<svg version="1.2" xmlns="http://www.w3.org/2000/svg" viewBox="0 0 2817 943" width="2817" height="943"><defs><clipPath clipPathUnits="userSpaceOnUse" id="cp1"><path d="m2825.17 942.89h-2828.67v-942.89h2828.67z"/></clipPath><linearGradient id="P" gradientUnits="userSpaceOnUse"/><linearGradient id="g1" x2="1" href="#P" gradientTransform="matrix(0,-83.389,744.599,0,774.575,942.889)"><stop stop-color="#fff"/><stop offset="1" stop-color="#ff6b51"/></linearGradient><linearGradient id="g2" x2="1" href="#P" gradientTransform="matrix(0,-66.445,805.539,0,776.332,906.874)"><stop stop-color="#bfffce"/><stop offset=".99" stop-color="#ffffea"/></linearGradient><linearGradient id="g3" x2="1" href="#P" gradientTransform="matrix(0,-125.294,744.623,0,768.715,902.909)"><stop stop-color="#862940"/><stop offset="1" stop-color="#a74a1d"/></linearGradient><linearGradient id="g4" x2="1" href="#P" gradientTransform="matrix(0,-30.318,58.707,0,1103.802,863.214)"><stop stop-color="#a93d54"/><stop offset="1" stop-color="#8d381d"/></linearGradient><linearGradient id="g5" x2="1" href="#P" gradientTransform="matrix(0,-27.951,605.486,0,753.747,887.485)"><stop stop-color="#7a1d0e"/><stop offset="1" stop-color="#693118"/></linearGradient><linearGradient id="g6" x2="1" href="#P" gradientTransform="matrix(627.441,0,0,32.577,440.428,824.362)"><stop stop-color="#7a1d0e"/><stop offset="1" stop-color="#693118"/></linearGradient><linearGradient id="g7" x2="1" href="#P" gradientTransform="matrix(478.308,0,0,31.355,617.094,781.934)"><stop stop-color="#7a1d0e"/><stop offset="1" stop-color="#934b19"/></linearGradient><linearGradient id="g8" x2="1" href="#P" gradientTransform="matrix(171.693,0,0,11.238,880.256,870.758)"><stop stop-color="#fff"/><stop offset="1" stop-color="#b35454"/></linearGradient><linearGradient id="g9" x2="1" href="#P" gradientTransform="matrix(50.569,0,0,22.185,1088.254,837.455)"><stop stop-color="#fff"/><stop offset="1" stop-color="#b35454"/></linearGradient><linearGradient id="g10" x2="1" href="#P" gradientTransform="matrix(-286.566,-9.012,1.865,-59.294,1047.496,823.47)"><stop stop-color="#6d9134"/><stop offset="1" stop-color="#8b952a"/></linearGradient><linearGradient id="g11" x2="1" href="#P" gradientTransform="matrix(-286.146,-8.998,2.172,-69.071,1046.169,826.053)"><stop stop-color="#6d9134"/><stop offset="1" stop-color="#8b952a"/></linearGradient><linearGradient id="g12" x2="1" href="#P" gradientTransform="matrix(-532.748,-16.753,2.601,-82.705,1198.231,841.025)"><stop stop-color="#6d9134"/><stop offset="1" stop-color="#8b952a"/></linearGradient><linearGradient id="g13" x2="1" href="#P" gradientTransform="matrix(-285.438,-8.976,1.519,-48.299,1043.446,801.88)"><stop stop-color="#6d9134"/><stop offset="1" stop-color="#8b952a"/></linearGradient><linearGradient id="g14" x2="1" href="#P" gradientTransform="matrix(-389.581,-12.251,1.922,-61.117,1131.532,832.193)"><stop stop-color="#6d9134"/><stop offset="1" stop-color="#8b952a"/></linearGradient><linearGradient id="g15" x2="1" href="#P" gradientTransform="matrix(-289.818,-9.114,3.775,-120.055,1048.055,830.003)"><stop stop-color="#6d9134"/><stop offset="1" stop-color="#8b952a"/></linearGradient><linearGradient id="g16" x2="1" href="#P" gradientTransform="matrix(-285.83,-8.989,2.249,-71.51,1046.538,817.97)"><stop stop-color="#6d9134"/><stop offset="1" stop-color="#8b952a"/></linearGradient><linearGradient id="g17" x2="1" href="#P" gradientTransform="matrix(-285.06,-8.964,2.035,-64.717,1045.968,822.909)"><stop stop-color="#6d9134"/><stop offset="1" stop-color="#8b952a"/></linearGradient><linearGradient id="g18" x2="1" href="#P" gradientTransform="matrix(-285.196,-8.969,2.589,-82.329,1045.987,818.241)"><stop stop-color="#6d9134"/><stop offset="1" stop-color="#8b952a"/></linearGradient><linearGradient id="g19" x2="1" href="#P" gradientTransform="matrix(-289.94,-9.118,3.791,-120.559,1047.246,862.121)"><stop stop-color="#6d9134"/><stop offset="1" stop-color="#8b952a"/></linearGradient><linearGradient id="g20" x2="1" href="#P" gradientTransform="matrix(-288.835,-9.083,3.484,-110.781,1046.368,868.657)"><stop stop-color="#6d9134"/><stop offset="1" stop-color="#8b952a"/></linearGradient><linearGradient id="g21" x2="1" href="#P" gradientTransform="matrix(0,-32.717,402.538,0,751.097,858.213)"><stop stop-color="#fff"/><stop offset="1" stop-color="#b35454"/></linearGradient><linearGradient id="g22" x2="1" href="#P" gradientTransform="matrix(0,-40.379,162.162,0,1249.141,943.125)"><stop stop-color="#fff"/><stop offset="1" stop-color="#ff6b51"/></linearGradient><linearGradient id="g23" x2="1" href="#P" gradientTransform="matrix(0,-34.896,183.142,0,1246.996,927.474)"><stop stop-color="#bfffce"/><stop offset=".99" stop-color="#ffffea"/></linearGradient><linearGradient id="g24" x2="1" href="#P" gradientTransform="matrix(0,-61.058,168.055,0,1238.411,908.307)"><stop stop-color="#a42940"/><stop offset="1" stop-color="#a75f1d"/></linearGradient><linearGradient id="g25" x2="1" href="#P" gradientTransform="matrix(0,-21.494,137.363,0,1244.965,901.48)"><stop stop-color="#902211"/><stop offset="1" stop-color="#7f3b1d"/></linearGradient><linearGradient id="g26" x2="1" href="#P" gradientTransform="matrix(0,-42.384,112.817,0,1260.056,896.679)"><stop stop-color="#902211"/><stop offset="1" stop-color="#7f3b1d"/></linearGradient><linearGradient id="g27" x2="1" href="#P" gradientTransform="matrix(97.596,0,0,15.657,1212.373,885.005)"><stop stop-color="#fff"/><stop offset="1" stop-color="#b35454"/></linearGradient></defs><style>.a{opacity:.7;mix-blend-mode:multiply;fill:url(#g1)}.b{fill:url(#g2)}.c{fill:url(#g3)}.d{fill:url(#g4)}.e{fill:#d1634c}.f{fill:url(#g5)}.g{fill:url(#g6)}.h{fill:url(#g7)}.i{fill:#e17a3e}.j{mix-blend-mode:multiply;fill:url(#g8)}.k{mix-blend-mode:multiply;fill:url(#g9)}.l{opacity:.29;mix-blend-mode:soft-light;fill:#ffb643}.m{opacity:.29;mix-blend-mode:soft-light;fill:#ffe543}.n{fill:#d0703e}.o{fill:#a14a3e}.p{fill:#4a6134}.q{fill:url(#g10)}.r{fill:url(#g11)}.s{fill:url(#g12)}.t{fill:url(#g13)}.u{fill:url(#g14)}.v{fill:url(#g15)}.w{fill:url(#g16)}.x{fill:url(#g17)}.y{fill:url(#g18)}.z{fill:url(#g19)}.A{fill:url(#g20)}.B{opacity:.29;mix-blend-mode:soft-light;fill:#ffff43}.C{fill:#ea8d43}.D{mix-blend-mode:multiply;fill:url(#g21)}.E{opacity:.7;mix-blend-mode:multiply;fill:url(#g22)}.F{fill:url(#g23)}.G{fill:url(#g24)}.H{opacity:.87;mix-blend-mode:multiply;fill:#af4faf}.I{fill:url(#g25)}.J{fill:url(#g26)}.K{mix-blend-mode:multiply;fill:url(#g27)}.L{fill:#7f1534}.M{fill:#e18454}</style><g clip-path="url(#cp1)"><path class="a" d="m1151.5 859.5v82.5l-744.6 0.9v-76.3z"/><path class="b" d="m1141 852c0 0 36.4 5.5 40.4 8.2 4.1 2.6-22.8 7.2-42.6 5.7-19.7-1.4-51-5.4-67.1-2.7-16.2 2.7-32.3 28.2-32.3 28.2 0 0 11.7 4 12.5 8.5 0.9 4.5-57.8 8-138.8 6.7-80.9-1.3-490.8-29.2-527.6-32.9-36.7-3.8 36-31 210.1-33.1 174.1-2 545.4 11.4 545.4 11.4z"/><path class="c" d="m1151.6 859.5q0 0-0.3 0.1c-0.9 0.4-4.5 2-10.2 4.3q0.1-0.1 0.1-0.1 0 0-0.2-0.6c-1.4-3.7-9.2-22.9-22.1-25.7-12.6-2.7-64.4 46.2-76.6 58-1.4 1.3-2.3 2.2-2.5 2.4q-0.1 0-0.1 0c-7.5 1.8-14.7 3.2-21.4 4.2q-2.2 0.3-5.8 0.5-0.7 0.1-1.5 0.1c-82.7 3.7-604.1-36.1-604.1-36.1 0 0 30-67.9 96.2-84.4 66.1-16.6 594.7 16.8 609.1 24.2q0.8 0.4 1.7 1c14.3 9.6 36.9 50.8 37.6 52.1q0.1 0 0.1 0z"/><path class="d" d="m1141 863.2l-58.7-3.6c0 0 24.6-22.9 36.6-26.4 12.1-3.6 22.1 30 22.1 30z"/><path class="e" d="m1151.6 859.5q0 0-0.3 0.1c-0.9 0.3-4.6 1.7-10.3 3.6-1.4-3.7-9.2-22.9-22.1-25.7-12.6-2.7-67 48.7-79.2 60.4-13.3 3.9-21.6 4.2-27.2 4.7q-0.8 0.1-1.5 0.1 0 0 0 0c1.1-1.4 70.5-91.6 97.6-95.3q2.7-0.4 5.3 0c23.6 3.3 37.2 50.6 37.6 52.1q0.1 0 0.1 0z"/><path class="f" d="m1023.1 887.5l34-17.8h-19.2c0 0-25.6 2-108.2 4.6-82.6 2.7-302.5-12-346.5-12.7-43.9-0.6-131.6-2-131.6-2 0 0 113.2-1.2 220.4 6.9 107.2 8 351.1 21 351.1 21z"/><path class="g" d="m440.4 838.2c0 0 93.4 6 234 16.7 140.5 10.7 226.3-24.9 276.9-26.5 50.6-1.6 116.6 4.8 116.6 4.8 0 0-102.2-12.1-140.4-8-38.2 4-146.7 24.2-272.6 23.1-126-1.1-214.5-10.1-214.5-10.1z"/><path class="h" d="m1095.4 813.3c0 0-215-17.4-285-12.9-69.9 4.6-193.3-18.5-193.3-18.5 0 0 98.3 25.9 183.5 25.3 85.2-0.6 118.9-0.9 167 0 58.9 1 127.8 6.1 127.8 6.1z"/><path class="i" d="m921.8 881.9c0 0 89.2 0.7 100.9-1.4 11.8-2 34.4-10.8 34.4-10.8 0 0-32.5 20.7-37.2 21.7-4.6 0.9-98.1-9.5-98.1-9.5z"/><path class="j" d="m880.3 879.2c0 0 66 3.2 94.8 2.8 28.8-0.4 48.8-0.2 50.9-1.4 2.2-1.2 25.9-9 25.9-9 0 0-27.9-1.9-39.7 0-11.9 2-105.9 4.8-105.9 4.8z"/><path class="k" d="m1088.3 854.9c0 0 8.3-0.1 27.9 3.3 19.7 3.3 22.6 0 22.6 0 0 0-8.5-19.1-19.9-20.7-11.4-1.5-30.6 17.4-30.6 17.4z"/><path class="l" d="m520 835.7c0 0 108.3 15.1 185.2 12.8 76.8-2.2 198.6-24.9 210.8-29.8 12.2-4.8-84.3-9.5-145.7-12.3-61.4-2.8-261-22.9-250.3 29.3z"/><path class="m" d="m702.7 856.9c0 0 82.6 12.2 182.2 13.9 99.6 1.6 148.7-10.6 155.4-15.9 6.7-5.2 16.8-12.1 16.8-12.1 0 0-70.5-9.4-105.8-9.6-35.3-0.3-110.2 21.9-128.5 23.7-18.3 1.9-120.1 0-120.1 0z"/><path class="m" d="m897.1 807.2c0 0 48.1 9.8 92.4 14.5 44.3 4.7 76.1 7.9 79.7 5.9 3.6-2 20.1-9.9 20.1-9.9 0 0-80.6-17.2-192.2-10.5z"/><path class="m" d="m673.2 783c0 0 23.2 17.1 184.2 16.8 161-0.2 234.2 13.2 234.2 13.2l17-5.6c0 0-87.5-11.5-209-16.7-121.4-5.1-226.4-7.7-226.4-7.7z"/><path class="n" d="m657.4 848.6c0 0 35.5-3.2 78.1-5.8 42.5-2.6 77.9-3.6 77.9-3.6 0 0-83.3 11.1-156 9.4z"/><path class="o" d="m582.2 861.6c0 0 29.3-10.3 59.9-8.9 30.6 1.5 81.9 15.6 81.9 15.6z"/><path class="n" d="m695.1 793.9c0 0 74.5 4.4 111.5 3.7 37.1-0.7 81.8 2.7 81.8 2.7 0 0-76.6-0.2-94.9 1.9-18.3 2.1-98.4-8.3-98.4-8.3z"/><path class="p" d="m851.3 808.9c-6.8 1.5-20.2 2-24.1 8.1 7.8 2.8 19.9-0.5 28-0.9 5.2-0.3 14.7 0.6 18.9-3.1-3.9-2.8-8.7-2.9-13.4-3.2z"/><path class="p" d="m862 817.7c-4.9-1.5-10-0.5-14.8 1.3 2.6 3.2 15.1 1.7 16.6 0.1z"/><path class="p" d="m735.6 825.6c6.9-1.7 50.7-8.8 52.4-2.2 1.7 6-44.2 5.8-52.4 2.2z"/><path class="p" d="m822.7 790.9c-2.7-0.3-13.1 1-14.2 2.4-1.7 2.4 10.2 2.4 11.9 2.5 2.2 0 16.9 0.2 17.5-1.7 1.1-3-12.3-3.2-14.7-3.2z"/><path class="p" d="m785.5 807.9c8.5-0.4 19.2-1.4 26.7 1.4 5.6 2.1 4.1 5.7-1.1 8.5-7.9 4.3-18.6 2.5-27.1 2.1-9.9-0.5-19.7 0.2-29.5 0.6-4.9 0.2-39.7 2.4-43.7-0.7 10.2-4.2 52.9-9.6 62.2-10.5 4.8-0.4 10.7-1.5 12.5-1.4z"/><path class="p" d="m815.6 817.9c-3.4 0.3-8.4 1.5-10.3 4.3 3.6 2.5 12.4 1.1 14.1-3.5-0.4-0.4-0.7-0.5-1.2-0.8z"/><path class="p" d="m967 809.8c-6.4 1.1-13.7 0-19.7 2.2 6 1.5 16.2 5.4 22.4 3.6 2.3-0.7 5.7-3.5-2.7-5.8z"/><path class="p" d="m1022.4 816.1c-10.3-3.6-27.1-5.1-37.2-0.9 4.7 7.9 27.8 7.4 35.8 7.2 1.8-0.1 11.4-0.5 1.4-6.3z"/><path class="p" d="m1050.1 815.6c-3.2-1.3-9.6-1.8-12.5-0.4 2.3 3 12 5.4 15.6 2.7z"/><path class="p" d="m925.4 850.5c-6.7 1.8-15.3 3.6-20.6 8.1 3.2 0.8 26.3-0.6 20.6-8.1z"/><path class="p" d="m921 864.8c2.6-3.4 7.9-4.7 11.5-1.8-0.9 2.8-4.9 2.9-7.5 2.7z"/><path class="q" d="m851.1 808.1c-6.8 1.5-20.2 1.9-24.2 8 7.9 2.9 19.9-0.5 28.1-0.9 5.1-0.2 14.7 0.6 18.9-3.1-3.9-2.7-8.8-2.8-13.4-3.1z"/><path class="r" d="m861.8 816.8c-5-1.4-10-0.4-14.8 1.4 2.6 3.1 15.1 1.7 16.6 0z"/><path class="s" d="m735.4 824.7c6.8-1.7 50.7-8.8 52.4-2.2 1.6 6.1-44.2 5.8-52.4 2.2z"/><path class="t" d="m822.5 790c-2.7-0.2-13.2 1-14.2 2.4-1.7 2.4 10.2 2.5 11.9 2.5 2.2 0 16.8 0.3 17.5-1.7 1-3-12.4-3.2-14.8-3.2z"/><path class="u" d="m785.3 807.1c8.5-0.5 19.2-1.4 26.7 1.3 5.6 2.1 4.1 5.8-1.1 8.6-7.9 4.3-18.6 2.4-27.1 2-9.9-0.5-19.7 0.3-29.6 0.6-4.8 0.2-39.6 2.5-43.7-0.7 10.3-4.1 53-9.6 62.2-10.4 4.9-0.5 10.7-1.5 12.6-1.4z"/><path class="v" d="m815.3 817c-3.3 0.3-8.3 1.6-10.2 4.4 3.6 2.4 12.4 1 14.1-3.5-0.4-0.4-0.7-0.5-1.2-0.9z"/><path class="w" d="m966.8 809c-6.4 1-13.7 0-19.7 2.1 6 1.6 16.2 5.5 22.3 3.6 2.4-0.7 5.8-3.5-2.6-5.7z"/><path class="x" d="m1022.1 815.2c-10.3-3.6-27-5-37.1-0.9 4.7 8 27.8 7.4 35.8 7.2 1.8-0.1 11.4-0.5 1.3-6.3z"/><path class="y" d="m1049.8 814.8c-3.1-1.4-9.5-1.9-12.5-0.5 2.4 3.1 12 5.4 15.7 2.7z"/><path class="z" d="m925.2 849.6c-6.7 1.9-15.3 3.6-20.6 8.1 3.2 0.9 26.2-0.6 20.6-8.1z"/><path class="A" d="m920.8 863.9c2.6-3.4 7.9-4.7 11.5-1.8-0.9 2.8-4.9 2.9-7.5 2.7z"/><path class="B" d="m1071.3 866.6c-3 1.3-25.6 2.8-26.2-0.9-0.5-3.7 42.9-53.8 65-55.4 22.2-1.6 36.9 35.4 36.2 40.4-0.7 4.9-6.8 7.9-7.5 5.6-0.7-2.2-7.4-21.4-23.9-21.6-16.5-0.1-43.6 31.9-43.6 31.9z"/><path class="C" d="m417.4 848.1c0 0 49-60.3 109-67.5 89.5-10.7 560.3 22.1 560.3 22.1 0 0-477.1-40.2-581.7-25.5-44.1 6.3-87.6 70.9-87.6 70.9z"/><path class="D" d="m754.5 844.7c69.2-6 146.7-16.9 163.9-18.4 19.3-1.8 35.3 0 35.3 0 0 0-90.9 14.7-117.7 25.7-26.9 11-150.8 3.8-170.1 4.9-19.4 1.2-114.7-11.1-114.7-11.1 0 0 103.4 6 177.7 0.9 8.3-0.6 16.9-1.3 25.6-2z"/><path class="E" d="m1173.1 908.3v34.1l162.1 0.7v-40.4z"/><path class="F" d="m1173.1 893.9c0 0-11.8 7.6-14.2 12.8-3.8 8.3 73.3 22.2 97.5 20.7 24.3-1.6 79.2-19.7 85-21.8 5.8-2.2-41.9-11.8-61.8-12.8-19.9-0.9-106.5 1.1-106.5 1.1z"/><path class="G" d="m1317 885c-1.4 0.5-2.8 1.2-4.2 1.8-23.2 9.8-57.5 21.3-58.8 21.5-6.7 0.8-47.1-11.6-88.5-28.3 0 0 1.4-1 3.7-2.6 0 0 16.6-2.7 39.3-5.3 12.8-1.4 12.1-6.1 9.1-10.3-2.3-3.3-5.9-6.3-6-7.5 0-2.1 3.3-5.1 4.9-6.5 13.5-4.7 115 20.1 117 26.7 0.6 2-6.4 6-16.5 10.5z"/><path class="e" d="m1165.5 880c0 0 4.3 25.9 7.6 28.3 3.3 2.4 80.9 17.2 80.9 17.2l81.2-22.8-1.7-28.2c0 0-76.6 31.3-81.3 31.3-4.6 0-86.7-25.8-86.7-25.8z"/><path class="H" d="m1254 925.5c0 0 0.3-17 0.9-18.8 0.7-1.8 78.6-32.2 78.6-32.2l1.7 28.2z"/><path class="I" d="m1315.3 900c0 0-44.4 2.4-48.2 1.1 1.6-5.9-89.1-21.1-89.1-21.1 0 0 97.9 14.2 103.5 15.3 5.5 1.1 33.8 4.7 33.8 4.7z"/><path class="J" d="m1324.4 896.7c-0.4-0.4-7-6.8-11.6-9.9-1.4-1-2.5-1.6-3.3-1.8-3.8-0.8-47.7-16-65.4-18.9-7.8-1.3-17.8-2.9-26.5-4.3-2.3-3.3-5.9-6.3-6-7.5 19.1 4.8 88.8 18.3 97.5 20.2 3.9 0.9 5 7.1 7.9 10.5 4.3 5.1 7.2 11.1 7.4 11.7z"/><path class="K" d="m1212.4 885c0 0 57.9 13.2 63.9 15 6 1.8 33.7-0.7 33.7-0.7 0 0-26.6-4.6-37-5.3-10.3-0.6-60.6-9-60.6-9z"/><path class="L" d="m1211.6 854.3l1.1 17.1c0 0 10.1-2.3 11.1-3.9 1-1.5-12.2-13.2-12.2-13.2z"/><path class="M" d="m1219.6 896.7c0 0 40.5 4.5 43.2 4.5 2.8 0 4.3-0.1 4.3-0.1 0 0-11.9 8.1-13.1 8.9-1.2 0.8-34.4-13.3-34.4-13.3z"/></g></svg>