<svg version="1.2" xmlns="http://www.w3.org/2000/svg" viewBox="0 0 2817 943" width="2817" height="943"><defs><clipPath clipPathUnits="userSpaceOnUse" id="cp1"><path d="m2825.17 942.89h-2828.67v-942.89h2828.67z"/></clipPath><linearGradient id="P" gradientUnits="userSpaceOnUse"/><linearGradient id="g1" x2="1" href="#P" gradientTransform="matrix(0,-346.093,800.35,0,1429.929,505.699)"><stop stop-color="#00ff83"/><stop offset="1" stop-color="#2481d1"/></linearGradient><linearGradient id="g2" x2="1" href="#P" gradientTransform="matrix(0,-216.802,700.413,0,1451.499,476.359)"><stop stop-color="#fff"/><stop offset="1" stop-color="#3f9cfc"/></linearGradient><linearGradient id="g3" x2="1" href="#P" gradientTransform="matrix(0,-510.504,1876.867,0,865.506,492.99)"><stop offset=".02" stop-color="#43caa4"/><stop offset=".47" stop-color="#3b9aa1"/><stop offset="1" stop-color="#245b9a"/></linearGradient><linearGradient id="g4" x2="1" href="#P" gradientTransform="matrix(0,-189.161,481.014,0,962.474,166.347)"><stop stop-color="#fff"/><stop offset="1" stop-color="#3f9cfc"/></linearGradient><linearGradient id="g5" x2="1" href="#P" gradientTransform="matrix(64.166,0,0,48.384,1204.958,40.234)"><stop stop-color="#fff"/><stop offset="1" stop-color="#3f9cfc"/></linearGradient><linearGradient id="g6" x2="1" href="#P" gradientTransform="matrix(72.56,0,0,44.351,1291.463,-6.745)"><stop stop-color="#fff"/><stop offset="1" stop-color="#3f9cfc"/></linearGradient><linearGradient id="g7" x2="1" href="#P" gradientTransform="matrix(0,-223.544,373.594,0,688.342,319.613)"><stop stop-color="#fff"/><stop offset="1" stop-color="#3f9cfc"/></linearGradient><linearGradient id="g8" x2="1" href="#P" gradientTransform="matrix(509.652,-0.019,.002,66.225,1249.396,405.191)"><stop stop-color="#33ff9f"/><stop offset=".97" stop-color="#00cfa6"/></linearGradient><linearGradient id="g9" x2="1" href="#P" gradientTransform="matrix(0,-486.094,915.745,0,1913.196,432.956)"><stop stop-color="#43aca9"/><stop offset="1" stop-color="#245b9a"/></linearGradient><linearGradient id="g10" x2="1" href="#P" gradientTransform="matrix(0,-526.375,2274.022,0,1062.917,494.479)"><stop stop-color="#009d91"/><stop offset="1" stop-color="#243b9a"/></linearGradient><linearGradient id="g11" x2="1" href="#P" gradientTransform="matrix(0,-174.075,452.081,0,1947.862,450.605)"><stop stop-color="#fff"/><stop offset="1" stop-color="#3f5efc"/></linearGradient><linearGradient id="g12" x2="1" href="#P" gradientTransform="matrix(0,-140.696,192.326,0,1774.855,316.744)"><stop stop-color="#fff"/><stop offset="1" stop-color="#3f5efc"/></linearGradient><linearGradient id="g13" x2="1" href="#P" gradientTransform="matrix(0,-160.752,286.745,0,657.849,295.582)"><stop stop-color="#fff"/><stop offset="1" stop-color="#3f5efc"/></linearGradient><linearGradient id="g14" x2="1" href="#P" gradientTransform="matrix(0,-136.669,481.147,0,888.269,477.659)"><stop stop-color="#fff"/><stop offset="1" stop-color="#3f5efc"/></linearGradient><linearGradient id="g15" x2="1" href="#P" gradientTransform="matrix(0,-6.758,14.511,0,884.387,191.402)"><stop offset=".02" stop-color="#43caa4"/><stop offset=".47" stop-color="#3b9aa1"/><stop offset="1" stop-color="#245b9a"/></linearGradient><linearGradient id="g16" x2="1" href="#P" gradientTransform="matrix(0,-469.426,462.686,0,2399.015,408.792)"><stop stop-color="#009d91"/><stop offset="1" stop-color="#243b9a"/></linearGradient><linearGradient id="g17" x2="1" href="#P" gradientTransform="matrix(0,-149.193,248.489,0,2586.139,156.771)"><stop stop-color="#fff"/><stop offset="1" stop-color="#3f5efc"/></linearGradient><linearGradient id="g18" x2="1" href="#P" gradientTransform="matrix(0,-329.91,627.89,0,2519.038,432.238)"><stop stop-color="#39778b"/><stop offset="1" stop-color="#0f6854"/></linearGradient><linearGradient id="g19" x2="1" href="#P" gradientTransform="matrix(0,-138.457,163.548,0,2619.115,377.081)"><stop stop-color="#fff"/><stop offset="1" stop-color="#3f5efc"/></linearGradient><linearGradient id="g20" x2="1" href="#P" gradientTransform="matrix(0,-70.8,116.773,0,2544.804,414.833)"><stop stop-color="#fff"/><stop offset="1" stop-color="#3f5efc"/></linearGradient><linearGradient id="g21" x2="1" href="#P" gradientTransform="matrix(0,-137.864,173.201,0,2761.742,370.382)"><stop stop-color="#fff"/><stop offset="1" stop-color="#3f5efc"/></linearGradient><linearGradient id="g22" x2="1" href="#P" gradientTransform="matrix(0,-212.391,388.232,0,1497.926,478.297)"><stop offset=".03" stop-color="#00b3a6"/><stop offset="1" stop-color="#33a654"/></linearGradient><linearGradient id="g23" x2="1" href="#P" gradientTransform="matrix(0,-86.874,159.66,0,1638.598,473.67)"><stop stop-color="#fff"/><stop offset="1" stop-color="#3f5efc"/></linearGradient><linearGradient id="g24" x2="1" href="#P" gradientTransform="matrix(0,-127.729,149.893,0,1521.14,440.932)"><stop stop-color="#fff"/><stop offset="1" stop-color="#3f5efc"/></linearGradient></defs><style>.a{fill:url(#g1)}.b{fill:#92ffb3}.c{fill:#0cc0c5}.d{opacity:.7;mix-blend-mode:multiply;fill:url(#g2)}.e{fill:url(#g3)}.f{fill:#00ffb3}.g{opacity:.7;mix-blend-mode:multiply;fill:url(#g4)}.h{opacity:.7;mix-blend-mode:multiply;fill:url(#g5)}.i{opacity:.7;mix-blend-mode:multiply;fill:url(#g6)}.j{fill:#0ccea9}.k{opacity:.7;mix-blend-mode:multiply;fill:url(#g7)}.l{fill:url(#g8)}.m{fill:url(#g9)}.n{fill:#25dbb3}.o{fill:url(#g10)}.p{fill:#0ca9a6}.q{opacity:.7;mix-blend-mode:multiply;fill:url(#g11)}.r{opacity:.7;mix-blend-mode:multiply;fill:url(#g12)}.s{opacity:.7;mix-blend-mode:multiply;fill:url(#g13)}.t{opacity:.7;mix-blend-mode:multiply;fill:url(#g14)}.u{fill:url(#g15)}.v{fill:url(#g16)}.w{opacity:.7;mix-blend-mode:multiply;fill:url(#g17)}.x{fill:url(#g18)}.y{opacity:.7;mix-blend-mode:multiply;fill:url(#g19)}.z{opacity:.7;mix-blend-mode:multiply;fill:url(#g20)}.A{opacity:.7;mix-blend-mode:multiply;fill:url(#g21)}.B{fill:url(#g22)}.C{fill:#0cffa9}.D{opacity:.7;mix-blend-mode:multiply;fill:url(#g23)}.E{opacity:.7;mix-blend-mode:multiply;fill:url(#g24)}</style><g clip-path="url(#cp1)"><path class="a" d="m1904.9 458.6c-96 18.5-107.5-88.2-59.3-146.8 48.1-58.6-80.3-126.1-203.9-106.8-123.7 19.3-43.4-17.6-40.2-32.1 3.2-14.4-53.3-17.6-67.6-7.2-14.3 10.4-40 20-27.1 15.2 12.8-4.8 14.4 0.9-9.6 15.7-24.1 14.8-69.6 5.7-79.2 8.9-9.7 3.3 22.4 21.5 27.8 28.9 5.3 7.5-35.3-10.7-62.1 0-26.8 10.8-6.4 33.2-9.6 50.4-3.2 17.1-19.3 3.2-47.1 6.4-27.9 3.2-34.1 46.6-109.6 57.5-75.6 11-139.8 2.4-101.3 73.1 38.5 70.6 381.1 99.6 547.3 75.6 166.1-23.9 241.5-38.8 241.5-38.8z"/><g style="opacity:.5;mix-blend-mode:soft-light"><path class="b" d="m1568.3 213c-0.3-6.9 2.1-17.2 8.1-21.3 2.6-1.7 6.6-2.5 9.7-4.9 5.2-3.9 12.6-9.9 8.8-17.4-4.5-8.6-21.3-7.2-29-6.7-12.5 0.9-25.6 1.3-35.5 9.8-2.4 2-10.3 8.8-9.3 12.6 0.5 1.7 2 0.8 2.8 1.8 2.2 2.9 5.7 5.3 7.9 8.1 1.7 2 2.8 4.1 5.4 5.9-2 2.6-5 5.3-6.9 7.9-2.2-3.6-6.5-6-9-9.4-2.6-3.5-1.3-4.6-1.7-8.8-5.7-0.6-10.9 4.3-15.5 6.9-6.2 3.7-12.9 5.2-19.9 6.4-9 1.7-18.5 5-27.8 4.9-6 0-21.7-4.9-26.4 0.2-3.3 3.6 1 6.1 4.4 8.8 3.8 3 7 5.2 9.8 9.1 1.6 2.2 2.9 7.2 5 8.6 4.8 3.2 9.7-5.9 15-8.2 8.1-3.6 19.3-4.6 28.1-4.5-2.7 3-2.5 4.8 1 5.4 3 0.5 8.1-2.6 11.4-2.9 2.2-0.2 4.3 0.2 6.4-0.4-1-7.4-9.8-5.1-12.8-9.7-5.1-7.6 12-13.8 18.1-13.3 4.5 0.3 11.3 3.1 10.2 8-0.7 2.8-5.8 4.1-6.4 7.4 3.1 0.5 5.6 0.7 7.9 2.8 4.5 3.8 1.5 6 8.9 4 7.3-1.9 23.1-6.3 31.3-11.1z"/><path class="b" d="m1445.2 244.1c-5.6-2.2-9.4-5-15.7-5.8-8.5-1.1-17.3-1.1-25.9-1.6-9.9-0.6-17.8 0.5-23.1 10-2 3.6-8.4 17.4-6.5 21.5 1.5 3.2 6.8 3.2 9.5 6.2 3.5 4 4.3 15.7 9.8 17.8 3.6 1.4 11.5-5.3 15.2-6.8 8.1-3.4 16.2-4.6 24.8-5.6 0.2-4.2-5.2-6.5-5.5-10.5-0.5-6.7 10.1-6.4 14.7-5.9-2.6 5.8 8.3 13.5 10.7 18.6-6.8 0-28.9 4.7-29.1 12.9 9.9-0.5 18.7-7 29-7 6.4 0.1 10.9 3.5 16.7 4.8-0.2-15.1 20.7-25.6 34.3-21.4-6 2.2 11.1 5.6 14.7 2.8 1.2-0.9 1.9-5.9 2.3-7 2.5-6.3 6.2-10.9 11.9-14.7 11.7-8 24.8-9.2 37.9-12.5-0.6-0.1-1.3-0.1-1.9-0.2 0.8-9 22.8-11.2 29.4-14.9 5.9-3.3 14.4-18 22.2-14.4-20.6-1.1-43 10.7-60.4 20.3-3.1 1.7-11.9 8.7-15.5 7 1-4.4 4.6-7.9 7.5-11.2-4.7 0.1-9.6 1.9-14.1 3.1-6.6 1.8-14.2 6.9-21 7.5-2 0.2-1.4-2.2-3.8-2.1-11.2 0.7-23.9 13.4-30.6 21.1-1.6 1.8-6.2 9.6-9 9.4-0.7-0.1-8.2-6-9.3-6.7-8.5-5.1-1.2-5.7-1-12.5-4.6-1.7-10.8-2.5-18.2-2.2z"/><path class="b" d="m1528.2 268.7c-2.9-17.4 30.1-24.4 42.1-21.6-7.1 1.6-13.6 4.4-19.9 8.1-6 3.5-12.5 4.9-22.2 13.5z"/><path class="b" d="m1563.5 314.7c-6.8-11.3 11.5-29 18.3-35.4 15.2-14.2 31.4-18.4 51.1-21.9 5.7-1 8.7-4.6 13.6-8 7.1-5.1 15.6-5.6 22.5-10.1-1.9-6.2-12.6-4.9-17.5-5.5-13.2-1.7-3.2-10.6 3.7-14.8 21.8-13.1 47-11.9 70.6-5.5 15.7 4.2 30.4 10.1 41.6 22.2 4.7 5.1 6.8 4.1 14 3 15.8-2.3 29 11.7 36.5 24.6 8.9-10.9-36.3-33.1-43.4-37 6.3 1 12.2 3.9 18.2 6 11.1 3.8 22.8 7.3 33 13.3 9.4 5.5 11.8 11.4 14.5 21.2 0.8 3 1.9 5.5 2.1 8.8 0.9 11.1-2.2 14.1-12.5 10-7.9-3-14.7-6.2-23.2-7.1-5.1-0.5-12.4 1.9-17.1 0.8-3.9-0.9-3.6-3.8-6.2-7.9-8.4-13.3-20.7-21.9-36.2-25.2-4.6-1-20.4-4.1-23 1.6 7.7 3.5 19.2 7 21.9 16-3.6-0.1-6.6 3.4-9.1 5.7-2.9 2.6-5.3 9.4-8 11.2-1.1 0.8-2.7 0.1-4 0.3-5.7 1.2-12 0.4-17.8 1.5-12.7 2.4-23.5 11.2-35.6 13.5-2.6-7.2-2-14.4-11.6-15.9-8-1.3-13.7 3.9-20.6 5.7-7.8 2.1-15.5 3.7-22.9 9.6-12 9.8-16.6 25.2-27.8 35.4-12.8-8.7-35.1 5.7-45.5 13.8 5.7-13.4 16.2-23.6 20.4-29.9z"/><path class="b" d="m1557.1 279.9c-11.2 5.2-27.7 23-27.4 35.9 4.4 1.8 10.2-3.9 14.6-4.9 2.3-0.6 3.6 0.8 5.9-0.3 4.1-2.1 16.8-23.3 6.9-30.7z"/><path class="b" d="m1501.4 362.4c-1.2-13.9-30.3-27.6-42.2-23.1 0.1 0.7 0.2 0.9 0.4 1.5-6.5 0.1-15.2-3.4-21.3-5.7-7.3-2.8-6.4-6.1-8.9-12.9-4.4-12.3-19.2-16.8-30.2-21.9-15-7-28.4-7.8-44.5-6.9-3.6 0.3-6.3 0.3-9.7-0.1-12.5-1.5-22.5 0.9-33 8.4-12.4 9-20.4 21.9-30.6 32.9-3.1 3.4-8.2 6.8-9.4 11.7 6 2.5 14.8-4.9 21.8-3.8 1.5 0.3 3.2 1.3 4.4 1.5 1.8 0.3 6.4-0.7 8 0.2 3.8 2.2 0.8 6.4 0.4 10.1 7-1.9 12.8-6.9 20-8.8 4.9-1.3 9.8-1.9 14.8-1.9-0.3-12.2-17.2-7.4-24-6.5 3.2-6.5 4.4-14.1 9.5-19.8 6.3-7 17.7-11 26.8-8.5-1 8.4-11.3 11.5-13.9 18.2 4.6 3.7 10.7-0.4 15.5 1.6-0.3 5.3-5 8.1-7.3 12.3 13.4-1.9 23.5-2.8 37.4 1.6 10 3.2 22.7 6 30.3 13.8 4-5.6 10.4-8 16.6-10.1-2.5-3-6.1-4.7-8.9-7.3 10.9-0.3 26.7 4.7 37 8.4 7.6 2.8 16.8 6.5 22.3 12.8-1.2-1.5-3.2-2.4-5.3-2.6 8.4 0.3 22.7 2 24 4.9z"/><path class="b" d="m1351.6 345.8c-8.2 0.6-16.1 3.3-23.5 6.7-4.3 1.9-13.1 5.3-15 9.8 7.6 0.6 15.4-0.8 23.1-0.4 7.7 0.5 13.7-1.5 21.6-3.4 1.8-0.4 11.4-0.5 12.5-2.6 3.7-7.4-19.5-5-18.7-10.1z"/><path class="b" d="m1267.6 337.7c-7.3 4.4-15 8.9-23.2 11.3-11.2 3.4-23.5 3.3-35 5-29.4 4.4-62.3 8.8-83.5 31.8 7.5-0.8 15.6-4.6 23.3-4.1-0.9 2.8-3.9 6.4-5.8 8.9 3.4 0.2 6.4-1.6 9.7-2.6 8.9-2.6 23.5-6.1 32.7-3 7 2.4 7 1.9 14.3-2.6 7.7-4.8 18.3-7.9 25.2-13.5-11.9-5-21 2.7-32 4.1-0.7-13.5 34.5-18.4 43.3-12.8-1.1 1.5-2.8 2.9-3.3 4.8 11.5-0.2 30.1-13.6 34.3-27.3z"/></g><path class="c" d="m1284.2 332.9c4.9-19.5 26-32.9 44-38.1 9.5-2.7 23.4-5.3 32 1.2 3.8-1.7 9.7-0.4 13.3-2.2 3.7-1.7 2.3-2 3.8-7.1 0.9-3.4 4.6-7.2 4.8-10.2 0.2-4-5.2-9.8-5.8-14.2-1.7-11.4 4.8-19.4 15-23.8 5.6-2.5 12.5-4 18.6-3.6 4.6 0.4 6.8 3.1 10.6 4.3 2.5 0.8 5.1 0.1 8.4 0.1 7-0.1 14.2 1.5 21.1 1 0.3-2.2 3.1-5.5 2.8-7.5-0.6-3.1-7.1-6.3-9.7-7.5-3.7-1.8-10.5-2.6-11.8-7.4-2.7-9.3 15.8-11.4 21.3-11.7 11.8-0.7 21.9 2 33.6 0.4 15.9-2.2 28.1-11.9 38.8-23.5-2.2-2.6-4.1-4-3.2-7.5 2.1-7.4 23.5-11.1 29.4-12.4 8.4-1.8 38.1-8 44.5 2.6 3.6 6.2-5.2 15.6-10.2 18.8-8.9 5.8-18.5 6.6-24.7 16.3-1.8 2.8-3.2 5.8-4.2 8.8 14.2-1 30.4-2.7 43.8 3.9 17.8-7.6 41.5-2.7 59.5 0.7 4.4 0.8 4 1 7.2-0.8 8.3-4.7 13.2-10.2 23.2-12.5 13.3-3.2 24 0.8 35.9 5.6-4.2-11.9-20.1-6.3-28.2-10.1-11.7-5.5-19.5-10.7-29.1-0.6-3.8 4.1-2.9 3.3-7.7 3.3-4.7 0.1-8.7-6.2-13.4-4.9-2.3 0.6-6 8.4-8.3 8.6-3.6 0.3-7.2 3.4-11 3.3-8.9-0.3-18.2 1.5-27.2 2.3-5.1 0.4-15.1 1.7-19.9-1.9-5.6-4.2-0.1-9.1 4.3-11.2 5.6-2.7 13.3-4.8 18.9-7.4 11.8-5.6 7.3-26.3 1.2-34.8-3.9 0.7-8.2 4.6-12.2 4.4-3.4-0.2-5.6-3.6-8.8-5.6-6-3.7-9.4-3.9-15.6-1.7-4.3 1.5-0.9 3-7.2-0.6-15.7-9.1-36.5-10.8-51.7 0.2-8.2 5.9-14.4 13.2-10.8 22.7 0.7 1.8 1 3.8 2.2 5.3 2 2.7 6.8 3.6 8 7 1.2 3.2-5.5 0.6-2.9 3.3-5.5-0.8-8.5 2.7-12.9 5.6-8.1 5.3-4.7 9.2-12.2 6.4-9-3.3-17.6 5-26.3 3.3-3.5-0.8-6.5-4-9.7-5.6-7-3.5-14.9-5.1-22.6-3.3-5.7 1.4-27 13.4-18.1 20 2 1.5 5 0.2 7.5 2.7 3.5 3.5 4.3 7.9 9.2 10.5 8.6 4.4 16.7 0.6 21.2 9.5-3.1 1.2-13.1-0.2-16.4-1.2-9.2-3.1-24.4-11.7-32.5-4.9-2.4-7.8-15.7-7.5-21.8-5.8-8 2.3-12.7 7.8-14.5 15.8-1.4 6.5 1.1 10.9 0.9 16.8-0.1 3.3-3 7.1-1.1 11.2 3.1 6.7 11.7 4.1 17.6 6 0.2 4.4 3.8 9.5 1.1 13.8-5.8-1.4-8.7-2.4-15 0.4 12.4-13.7-18-18.2-19.3-7.5 0.8-3.6-2.1-5.4-5.2-6.7-7-2.9-12.5-0.7-15.3 6.1-2.8 6.7 1.5 7.1 4.3 12.4-6.1 3.2-29 6.9-27.2 17.2-17.1-4.9-16.7 7.4-14.3 22z"/><path class="d" d="m1134.8 421.8c9.7 0.3 34 0.7 41.5-5.1 2.7-2.1 0.6-3.7 2.3-5.7 4.3-5 4.8-8.9 12.2-13.8 43.5-28.4 97.1-34.1 145.1-17.6 8.3-9.6 35.4-7 47.2-7.2-1.6-8.3-13.4-13.5-5.7-19.6 10.7-8.5 36 3.6 47.3 5.7 3.5-23.5 34.2-15.4 52.2-9.5 9.6 3.2 16.6 8.9 25.1 14 2.3 1.4 2.9 4.7 5.9 5.2 4.3 0.8 11.5-3.1 16.5-3.4-19.5-21.1-52.2-44.1-82.3-37.3 1.7-11.2 20-23.4 30.5-24.7 5.3-0.7 10.6 1.5 16.4 1.1 0.4-22.6 58-50.8 76.1-43-21.2 14.9-32 35.5-36.2 60.1 7.6-1 19.1-5.4 25.2 1.5-10 7.9-20.3 19-21.3 32.5 20-16.5 47.5-16.5 71.8-15.8-0.5-38.2 54.6-76.2 86.8-47.7-3.7 3.1-7.8 6.8-9.8 11.4 22.1 1.3 41.7-5.8 64.3-1.1 0.4-13.3-0.9-27 2.4-39.9 17.1 0.7 67.4 26.5 72.6 44.1-11 3.4-29.7 19.7-31.8 31.1 13.2-1.2 28.1-1.3 30.9 14.5 1.3 7.8-2.6 19.2-1.2 28.4 2.7 17 9.5 29.9 16.5 45-37-13-107.2-23.6-140.7 3-9.7 7.7-12.7 19.8-20.5 28.6-7 8-13 7.2-24.5 8.5-96.8 11.3-192.9 17.4-289.9 2.1-42.2-6.7-83.6-16.7-125.6-24.1-31.1-5.5-60.6-17.7-99.3-21.3z"/><path fill-rule="evenodd" class="e" d="m1873.4-17.5c0 0-4.3 0-40.7 12.2-36.4 12.2-146.6-2.1-191.6 5.3-44.9 7.3-56 40.6-139.5 50.3-83.5 9.6-48.5-41.1-49.9-47-1.9-8.2 1.8-7.2-7.5 6.7-9.3 13.9-49.3-1.4-61 1.8-7.5 2-16.6 4.9-24.2 8.9-2 1.1-3.9 2.2-5.6 3.4-2.1 1.5-4 3.1-5.6 4.8-3 3.6-5.8 5.6-10.2 6.9-6.4 1.7-16.3 1.7-35.8 1.7-1.1 0-2.2 0.1-3.2 0.1q0-0.8-0.1-1.7-0.2-2.4-1.2-4.6c-2.3-5.4-7.6-9.4-12.5-12.1-5.9-3.3-15.4-7.4-21.1-1.3-5.4 5.8-2.5 16.7 2 22.3 0.4 0.4 0.7 0.8 1 1.1 0.9 0.9 1.7 1.7 2.4 2.4q1.2 1.1 2.3 1.9c-23.2 11.4-46.1 32.3-67 46.5-29.9 20.3-56.7 5.3-56.7-25.7 0-31-17.1 9.6-33.2 11.8-16 2.1-99.5 3.2-48.2 28.9 51.4 25.7 71.8 91 93.2 91 21.4 0 104.9 3.2 73.8 26.7-31 23.6-16 39.6 11.8 30 27.8-9.6 34.2 7.5 37.5 30 3.2 22.4 43.8-3.3 41.7 38.5-2.1 41.7-6.4 78.1-15 71.7-8.5-6.4-31-1.1-16 7.5 14.9 8.6 5.5 34.2-9 27-14.5-7.2-8.7 36.9 28.2 63.5 0 0-84.5-23.1-156.2-37-71.8-13.9-5.4-17.1-5.4-39.6 0-22.5-69.6-17.1-79.2 4.3-9.6 21.4-59.9 6.4-71.7 0-11.8-6.4-26.8-18.2-4.3-36.4 22.5-18.2-59.9-26.8-71.7-45-11.8-18.2-80.3-25.6-66.4-42.9 13.9-17.2-38.5-49.1-58.8-38.4-20.4 10.7-34.3 51.4-80.3 38.4-46-12.9-192.8 7-179.9-12.3 12.8-19.2-542.1-163.7-542.1-163.7v-137.9zm-1289.1 136.9c-30-2.4-50.8 39-80.3 38.3-16.1-0.3-12.9-17.6-10.8-28.4-12.3-1.6-25.8-2.8-36.8-9.1-17.7-9.9-3.5-20.4-3.4-35-9.8-2.3-28.1 5.6-36.2 10.8-10.5 6.7-10.5 13.7-6.1 25.2 4 10.1 11 13.7 5 23.2-8.4 13.4-30.8 15.5-42 26.8 14.5 16.7 28.2 20.8 38.6 28 16.4 11.4 29.4 26.5 47 36.2 19.9 11.1 40.9 12 62.5 16.4 12.4 2.5 13.7 5.4 22.4-1.7 6.8-5.8 31-37.5 29.5-47.5-0.7-4.4-7.9-10.7-9.8-15.2-6-13.9-3.2-25.5 3.5-38.8 4.4-8.7 16.4-20.1 16.9-29.2zm688.6-119.9l1.6 3.2q-1.8-1.3-3.9-1.6c-1.1 6.6 10.7 18.7 16 12 6.9-8.7-6.2-16.7-13.7-13.6zm235.5-7.5l2.2 2.2c-11.8-3.6-19 21.4 2.2 14.7 14.1-4.5 8.9-17.7-4.4-16.9z"/><g style="mix-blend-mode:soft-light"><path class="f" d="m1223.7 298.7c11.8-3.2 26.4 2.1 38.5 2-8.6-8.5 4.2-5.8 9.7-4.7 17.5 3.4 31.2 8.8 39.2 25.6 4.6-6.8-4.8-11.7-8.2-16.5 11-5 21.3 9.2 22.4 18.6 1.4 12.4-0.5 25.6-1.5 37.9-0.7 7.7-0.4 15.8-2.2 23.4-1.4 6.2-2.4 6-8.5 5.3-12.9-1.3-21.3 4.2-32.6 9.6-0.8-7.5 8.8-16 14.6-19.1 2.1-1.2 6-1.6 7.5-3.4 3-3.5 3.3-12.2 2.3-16.3-1.5-6.2-6.6-8.2-10.5-12 3.8 1.5 1.7 11.1 2.9 14.8-3.7-1.5-10.7-7.2-14.8-5.9-4.6 1.5-3.9 11.8-3.7 16.4-3.3-11-6.1-21-13.2-30.6-11.7-15.9-29.3-35-41.9-45.1z"/><path class="f" d="m1214.1 268.7c10.7-5.7 28.1-11.3 40.3-9.2 13.1 2.4 21.5 12.4 27.5 23.6 0.5-6.1-1.8-13.6-5.2-18.7-7.6-11.6-20.8-11.5-32.7-8z"/><path class="f" d="m1104.6 213.8c13.1-8.8 31.8-13.3 47.3-8.8-0.4 0.5-1 1.8-1.6 2.4 2.6 2.2 7.5 3.8 10.7 2.4-3.1-2.3-7.6-3.8-11.4-5.4 19.5-5.1 46.6-5 65.8 1.4 4.7 1.5 10.7 4.1 13.7 8-4 5.8-8.9 11.8-11.5 18.4-7.5-3.3-22.4-12.5-30.8-7.9 5.4 1.9 9.3 7.3 12.5 11.9-0.8 0.2-1.5 0.1-2.3 0.3 2 4 7.1 7.5 8.7 12.6-5.8-2-15.6-3.8-20.9-1.6 11.4 10.7 28.4 12.7 39.6 25.1 6.6 7.3 10.9 15.8 15.2 24.5-9.7-11.7-24.6-8.7-36-14.3-8.3-4-15.8-13.1-24.6-17.5-17.2-8.6-35-15.7-52.6-23.3 14.1-1.1 28.4 6.2 42.3 4.6-0.4-22.6-42.4-41-64.1-32.8z"/><path class="f" d="m1086.1 197.8c13.8 0.1 27.3 0.2 40.9 2.4 4.9 0.8 10.3 2.8 15.2 2.3 4.2-26.5-71-22.4-83.4-10.5 7.7 1.3 15.7 1.5 27.3 5.8z"/><path class="f" d="m1099 302.1c18.6 7.9 39.4 11.1 57.4 20.5 7.8 4.1 11.6 9.8 17.9 14.9 16.9 13.8 37 22.4 53.1 37.7 9.8 9.2 17.6 18.8 23.9 30.5-10.7-6.6-21-15-31.3-22.4-4.4-3.2-13-11.9-18-11.4-2.2-1.8-6.5-2.8-8 0-2.1 4.1 8.8 14.3 10.4 18.4q0.4 0.5 0 0c-9.3-8.6-21-14.8-32.8-19.2-12.5-4.7-30.5-5.5-41.4-12.6 13.7-0.4 27.1-1.1 40.7 1.5 7.2 1.4 14.7 4.1 21.9 4.6 2-13.6-21.7-27.5-30.8-33.7-17.4-12.1-44.7-28.3-63-28.8z"/></g><path class="g" d="m1052.4 104.7c-8.5-13.8-28.6-19.7-43.4-22.7-23.3-4.7-40.6 1.2-61.8 9-12.2 4.5-29.5 1.7-35.2 18.4 16 1.1 47.7-9.5 60.1 4-11.3 0.8-22.7 3.5-33.2 8-8 3.5-15.6 12.1-22.7 14.5-7-19-47.6-12.6-60.8-10-22.5 4.3-44.9 12.6-64.8 23.8-9.2 5.2-20.5 15.9-31 16.6-2.1-8.4 3.2-18.4 7-25.7 11.8-23.3 28.8-43.9 50.1-59.1 15.9-11.4 35.5-20 55-22.7 0.4-14.5-30.5-12.5-39.5-13.5-2.9-0.3-5.8-2-9.3-2.3-9.5-0.9-18.2 3.6-27.6 4 15-4.8 28.8-14.6 43.1-21.1 11-5 22.8-9 33.3-14.4-11.2-5.7-30.2-5.3-42.3-4.7-24 1-46.6 9.9-70.2 12.1 15.5-12.8 40.8-18.2 59.9-22.7 39.5-9.4 80.5-13.6 121.1-12.3 31.4 1 64.6 3.1 95.1 11.6 6.9 2 13.9 4.4 18.6 9.9-4.7 5.7-14.9 5.6-18.5 12.6 8.2 5.8 25.1 7.8 17.8 21.5 15.3 6 39 2.7 55.5 2.6-3.7-8.7-10-16.4-16.7-23-5-4.9-17.9-11.4-15.4-19.7 5.2-17.5 57.4-21.2 70.7-21.9 24.8-1.3 52.2 0.6 75.1 11.6 8.9 4.3 12.3 6.6 14.8 14.4 2.2 7 5.7 29.2-0.6 33-5.8 3.4-14.9-0.1-22.1 4.7-10.6 7.1-13.7 18.9-18.8 29.9-1.7 3.6-5.6 13.9-8.7 16.8-17.8 16.6-27.8-21-31.9-30-10.1-22-31.7-0.3-37.6 14.6-23.7-4.5-62.5 5.5-81 20.9 6.3 3.2 14.2 3 15.9 11.3z"/><path class="h" d="m1266.7 41.4q1.3 1.2 2.4 2.3c-26.8 9.9-46.7 32.4-64.1 44.9 16.9-19.5 37.1-37.6 60.8-48.4q0.4 0.6 0.9 1.2z"/><path class="i" d="m1359 20.7c-0.7 1.4-1.4 2.4-2 2.9-0.4 0.3-2 0.4-3.6 0.5-1.2 0.1-2.5 0.1-3.1 0.4-5.5 2.5-6.7 5.8-10.7 9.6q-1 0.9-2 1.7c-6.4 1.7-16.3 1.7-35.8 1.7q-1.6 0-3.3 0.1 0.1-0.8 0-1.6c-0.1-1.7-0.5-3.2-1.2-4.7 1.8 0.1 3.6 0.2 4 0 3.6-1.9 4.7-0.9 3.2-6.9-1.7-6.4-10.4-8.8-12.4-14.8-3.8-11 10.7-13.3 19.1-14.4 10.6-1.4 49.2-6.6 52.8 9 0.5 2.3-2.4 11.6-5 16.5z"/><path class="j" d="m1070.6 110.3c9.8 2.3 15.4 5.3 22.2 12.3 2.6 2.7 4.9 5.6 7.8 8 4.5 3.9 11.3 6.6 14.6 11.8 1.9 3 2.3 6.4 4.4 9.4 1.7 2.4 4.3 3.8 6.1 6.1 4 5.1 5.8 11.9 10.2 17.4 4 5.1 11.2 13.8 18.1 14.8 9.5 1.3 28.9-12.7 36-3.8 1.2 1.5-0.5 3.8 1.1 6.2 3 4.3 12.3 2.3 16.9 3 7 1.1 13.3 3.1 19.4 6.3 6 3.2 16.3 5.1 18.2 10.8 2.8 8.2-4.4 5.7-10.1 8 1.1 9.1-9.8 11.9-14.6 17.8-3.4 4.2-5.2 10-2 15 4.5 6.9 9.9 2.7 16 0.6 7.2-2.6 11.2-1.5 18.1-2.7 4-0.7 1.9-1.9 4.9-4 4.1-2.8 12.8-1.5 17.7-1.5 2.7 0 10 0.2 11.7 3.1 1.7 2.9-0.8 2.8-1.8 6.4-3 10.9 10 23.5 15.8 31.4-7-2.7-11.4 7.1-0.9 8.2 6.7 0.8 27.9 1.4 28.8 9.6 0.2 2.2-2.8 6.8-2.9 9.5-0.2 4 1.3 7.7 1.6 11.6 0.8 7.9-2.1 14-3.2 21.8-1 7.8 2.1 15-1.1 22.4-0.7 1.6-2.2 3.5-3 4.9 3.2-14.7 3.1-28.6 3.8-43.5 0.4-8 1.4-21.8-6.2-26.9-7-4.7-14.2 3.8-21.7-1.4-4.5-3.1-9.3-6.9-13.5-10.3-4.8-3.9-3.9-4.7-4.3-10.8-0.6-9-8.2-27.2-18.4-28.4-5.9-0.7-8.2 3.1-13.1 4.6-6.1 2-13.9 1.5-20.4 3-6.2 1.3-10.7 2.2-14.1-4.3-3.4-6.7 0.9-7.4 3.5-12.2 2.1-4 0.9-8.9 3.4-13 2.6-4.2 6.7-4.7 10.1-7.7 3.5-3.1 5.6-9.3 3.7-13.8-3.7-8.5-13.5-4.5-20.3-4-2.4 0.1-2.3 0.6-4.4 0.2-4.2-0.8-8.9-4.2-13.4-5.3-7.4-1.8-27.6-6.5-33.7 0 0.7 2.2 1.9 4.3 3.7 5.8-7.9-0.8-18.3-1.6-22.6-8.8-3.7-6-5.6-10.8-10.5-16.3-2.1-2.4-5-5-6.4-7.9-1.6-3.2-1.9-7-3.3-10.3-3.9-8.6-10.9-14.4-17.5-20.8-6.6-6.3-12.8-12.9-18.7-19.8-3.2-3.8-6.3-9-15.7-12.5z"/><path class="k" d="m571.8 102.8c18.5-2.7 40 1.7 57.6 7.4 10-8.5 20.9-8.3 32.9-10.6 4-0.7 4.9-4.2 13.3-3.4 12 1.2 33.9 5.3 42 15.1-5.3 11.8-24.3 12.1-32.7 21.6 24.4 8.8 46.8 10.8 65.5 31.6-2.2-19.9 3.9-17.4 19.9-11.3 15.4 5.8 54.4 22.2 56.3 42.2 1.1 11.5-8.3 7.1-17.3 12.7 6.7 11.4 29.3 16.5 40.8 21.1 25.4 10.1 51.9 22.8 71 43.1 9.3 9.9 20.4 29.1 20.9 43.3-6.8 0.6-8.5 4.3-14.9 4-13.6-0.6-28.8-9.8-43.2-11.2-9.1-0.9-18.3-0.3-27.3-2.3 2.7-8.7 6.6-16.3 3.3-25.5-6.8-18.6-33.8-30.2-51.6-33.3-13.6-2.4-35.2-4.1-39.4 12.2-2 7.7 2.8 15.3-0.2 23-14.5 0.9-29.1-1.5-43.7-1-6.3 0.2-19.4 4.3-24.8-0.9-7.7-7.6 3.7-18.6 4.2-25.8 0.7-9.2-1.7-8.9-12.3-13.8-17.4-8-35.8-14.9-54-20.6-14.1-4.3-30.1-4.5-43.8-9.3-8.7-3-15.4-12.2-25.5-12-2.1-32.7 5.2-67.3 3-96.3z"/><path class="l" d="m1256.7 455.3c-63.2-29.9 410.4-40 481.7-34.5 71.2 5.5-52.1 58.5-264 64-212 5.4-217.7-29.5-217.7-29.5z"/><path class="m" d="m2258.7-22.3h-674.4c0 0 39.6 14.4 107.1 15.4 67.4 0.9 94.2-3.2 111.4 1.2 17.2 4.4 33.1 10.6 27.4 19.2-5.6 8.5 17.4 17.1 30.3 14.9 12.8-2.1 64.7 1.7 60.5 22.5-4.2 20.9 23.5 16.1 34.7 9.7 11.3-6.5 30-53 15.6 19.2-14.5 72.3 5.3 69.1 30.5 107.6 25.3 38.5-4.3 9.6-11.6 31.3-7.3 21.7 20.1 18.5 8.9 44.2-11.2 25.6-168.9 169.6-168.9 169.6l417.7-48.4c1.4 0 1.2 0.7 2.3 1.5-3.3 4.8-1.5 12.5-3 18.2-1.5 5.4-13.9 22.4-8 28.1 3.4 3.4 14.3-2.5 18.1-3.4 14.1-3.2 28.6-5 42.9-7 44.8-6.4 157.1-18.6 199.9-32.5-0.5-3.6-4.5-91.6-64-122.3-6.1-3.2-21.9 6.5-15.4-5.9 2.3-4.4 6.9-8 9-12.4 3.5-7.4-2.3-9.9-2.6-16.6-0.4-8.4 4.8-15.1 0.7-24.1-6.1-13.6-14.9-2.6-24-7.9-6.8-4-10.9-12.8-17.2-17.7-9.8-7.6-21.7-10.7-33.8-7.8-17.2 4.2-35.5 20.2-40.1 37.7-8.9-5.2-19.8-1-29 1-1.6-7.8 3.8-27.7 13.4-28.7 2.5-0.3 5.5 3.5 7.8 4.4 4.5-7.5 2.5-16-2.8-22.5-4.3-5.3-9-5.2-14.6-7.5-16.8-7-38.1-11.6-56.4-13.2-14.7-1.3-24.9 6.3-38.5 9.3-23.3 5.2 6.4-58.9 18.4-66.9 12.1-8.1 4.8-14.5-8-11.3-12.8 3.2 0 0 20.9-15.2 6.1-4.5 12.4-1.7 18.6-0.7 14.8 2.5 25.5-0.2 26.9-17.2 8.5 4.7 22.9 14 33.3 6.5 4.4-3.2 2.7-9.2 8.2-12.5 5.9-3.5 12.9 1 19-2.5 9.4-5.5 15.2-15.2 26.2-18.9 14.3-4.7 26.8 1.4 37.6 10.6 4 3.5 6.4 7.1 11.7 6.9 11.3-0.4 28-17 36-23.7 10.6-8.7 26.7-23.9 24.2-39.2-1.7-9.8-8.7-16.4-17.9-18.9-17.8-4.7-38.6-6-56.9-4.2-44.9 4.5-87.8 30.1-132.1 30.1z"/><g style="opacity:.5;mix-blend-mode:soft-light"><path class="n" d="m2405.5 207.2c2.2-8.2-7.3-14.7-13-18.9-10.2-7.6-22.7-10.9-35.3-10.4-22.7 1-45.6 20.5-45.1 44.8 2.9 0 5.6 1.6 7.6 3.4-9.1 4.8-16.1 12.6-23.1 19.8-0.2-5.5 4.7-10.6 4.7-16.2-0.1-9.2-7.7-10.8-15.8-10.7-16.9 0.1-27.2 12.7-40 19.2-10.1 5.2-19 9.9-27.7 17.6-6.4 5.6-10.7 15.2-18.9 10.6-18.5-10.5 7.7-29.8 17.3-35.7-6.9 1-2.6-16.3-1.8-18.8 2.9-9.1 8.8-19.4 16.3-25.5 3.3-2.7 9.2-3.8 12-6.9 9.3-10.4 3.2-21.2-8.5-24.2-15.8-4-29.8 3.5-42.7 11.8-5.3-6.9-38.7 27.3-40.4 34.8 7.3 2.3 16.3-7.7 23.9-3.3 1.8 1 1 3.3 2.9 4.5 1.9 1.2 7.1 0 8.3 1.2 5.4 5.2-10.8 19.7-1 23.5-6.5 4.9-14.2 12.2-16.8 20-2.2 6.9 2.8 13.7 0.5 19.5-2.2 5.5-11.7 10-15.9 13.6-9.7 8-18.3 17.4-25.6 27.6-7 9.8-23.5 32.2-18.5 45.3 4.6-0.9 8.7-4.6 12.4-7.2 8.8-6.4 17.4-12.3 27.4-16.7 15.6-6.9 29.7-11 45.8-5.9 2 0.6 2.8 2.5 5 2.2 4.2-0.7 11.7-9.1 15-11.5 13.6-9.9 32.6-21.5 49.7-23 2.1-0.2 7.4 1.3 9 0.5 4.7-2.3 10.1-9.8 14.5-13 8.4-6.3 17.5-12.5 27.9-15.1 18.3-4.6 39 2.8 49.9 18.3 6.8-3.5 14.7-5.9 22.2-7.4 2.8-0.6 11-0.2 13.4-2.3 2-1.8 2.5-6.8 3.5-9.3 2.3-5.9 5.2-11.5 7.5-17.4 3.4-8.7 8.2-22.2-6.6-38.8z"/><path class="n" d="m2260.8 372.2c2.7-15.1 26.1-32 36.8-40.5 11.5-9.1 26.5-20.4 41.5-21.3 7.1-0.4 15.5-2.1 22.9-2.1 3.9 0.1 8.6-0.2 9.7 4.2 2.7-1.1 14.1-5.4 14.2-8.8 0.3-5.6-15.7-5.1-19.7-6.6 0.7-8.1 21.6-16.2 27.6-18.7 14.7-6 30.8-8.6 45.6-1.5 15.6 7.3 28.4 26 35.1 41.5-2.6-5.6-9.3-10.5-15.7-11.1 0 3.6 3.6 6.6 5 9.9-1.4 0.4-3 2.1-4.2 2.5 10.2 12 24.2 23.2 24.6 41-16.6-24.7-51.8-25.4-75.2-12.2-8.2 4.6-8.3-1.3-16.6-4.4-14.8-5.5-29.8 0.9-44.5 2.5-0.3-5 2.3-9.2-0.3-14.4-4.5-9.1-17.4-9.8-26-8.2-27.9 5-52.1 33.3-60.8 48.2z"/><path class="n" d="m1864.2 418.6c2.4-9.3 11.2-18.2 16.8-25.5 12.9-16.9 27.3-33 42.6-47.9 12.1-11.8 26.1-23.5 42.3-29.3 5.7-2 10.4-1.3 15-5.1 9.6-7.9 16.6-20.8 25-29.9 14.7-16 33.3-29.2 54.2-35.7 24.5-7.7 49.3-4.5 73.8-0.5 0.5-4.9-3.7-9-6.6-12.3-8.7-9.7-25.4-13-38.1-11.6-6.9 0.8-12.8 6.3-19.6 6.8-5.2 0.3-9.1-1.6-14.8 0.3-4.6 1.6-14.2 5.2-13.3 10.8 0.4 2.5 4.5 5.1 5.6 7.8-7 4.2-13.2 10.5-20.4 14.4-4.1-6.8 7.1-31.7-7-27-7.3 2.4-15.8 12-17.3 19.6-0.5 2.9 0 5.1-1 7.7-4.1 10.6-16.2 23.5-24.2 31.5-9.7 9.5-20.6 17.8-30.1 27.7-27.6 28.8-61.8 55-82.9 98.2z"/></g><path fill-rule="evenodd" class="o" d="m419.5 272c-43-14.8-84.7-32.2-126.9-49.1-18.8-7.4-38.2-14.6-57.7-19.8-22-5.9-44.5-6.6-67-9.8-35.2-5-74.3-12.1-105.5-29.7-8.7-4.9-20.6-9.8-27.7-17-4.4-4.4-5.3-10.8-9.4-15.3-4.9-5.3-13.3-9.6-19-14.6-18.3-15.8-20.2-37.9-19.3-61.3 0.9-21.6-1.6-45.5 4.1-66.6 4-14.9 21.4-10.6 34.9-10.6 37.6 0.1 75.3 1.1 112.5-4.5 31.3-4.7 61.3-7.9 92.9-3.6 28.4 3.9 55 12.9 82.7 19.8 25.7 6.3 51.5 9.8 78 8.9 14-0.5 27.8-4.5 41.7-4.6 8.9-0.1 16.3 1.7 22.8 7.1-0.2 0.5-1.1 8.6-1.7 11.7-2.6 13.4-10.1 29.2-21.3 37.5-12.4 9.2-23.6 4.9-37.3 2.9-15.5-2.3-28.5-1.3-42.4 6.2-10.8 5.8-19.7 9.8-31.3 13.3-7 2.1-12.9 3.8-16.1 11-4.7 10.6-4.3 41.7 10 45.5-6.1 9.1-26.2 8.3-23.5 20.4 1.9 8.3 12.7 11.3 14.4 20.8 1.7-8.6 8.7-16.7 16.5-19.9 6.7-2.7 14.8-3.2 21.9-2.5 6.3 0.6 12.1 4.1 18.3 4.6 10.3 0.8 15.6-12.4 26.2-13.6 14.1-1.6 23.3 6.1 32.9 14.8 6.7 6 18.1 2.4 26.7 3.7 10.1 1.6 15 5.1 17.3 14.8 1.4 6.1 1.7 12.5 3.6 18.6 1.2 4 2.6 8.4 5.1 11.8 1.3 1.8 3.2 2.9 4 4.9-3.8 2.1-8.1 0.4-10.5 4.9-2.2 4.4-0.2 17.2 5.1 19.2 2.1 0.8 5.4-1.2 7.4-1.8 4.6-1.4 9-2.3 13.7-2.6 5.7-0.3 11.3 0.1 16.8 0.8 1.2-3 1-6.4 2.4-9.4 2.2-4.7 6.1-5.2 9.3-8.4 6.4-6.3-3.3-21.3-7.8-26.6-2.4-2.8-3.1-1.6-2-6.1 2-7.6 8.4-13.9 13.8-19 5.5-5.2 13.3-8.3 18.2-13.6 2.6-2.7 2.3-4.9 3.1-8.6 3.5-15.6 15.7-30.4 30.6-36.3 7-2.7 15.1-3.8 22.5-2.9 4.8 0.6 10.1 3.4 14.9 3.4 4.2 0.1 7.4-2.7 11-4.4 4.5-2.2 8.9-3.4 13.9-3.4 5.7 0 9.5 1.2 15 0.6 6.6-0.8 5.6 4.7 10.1 6.5 3.1-7.1 6.6-11.6 12.1-17.2 1.9-1.8-0.7-2 3.4-3.1 2.9-0.7 5.7 0.3 8.6 0.7 14.8-0.7 30.3-0.6 46.1 0.5 25.4 1.9 51.6 6.4 77.5 14.9q0.1 0 0.2 0.1 8.7 2.8 17.3 6.2 3.2 1.3 6.4 2.7 0.1 0 0.2 0.1c17.5 7.5 34.7 17 51.1 28.9 6.4 4.7 12.4 9.3 17.8 13.8q4.3 3.5 8.2 6.9c24.9 22 38.5 41.3 46.9 56q0.3 0.5 0.6 1 0.5 0.8 0.9 1.6 0 0 0.1 0.1c10.8 19.5 13 30.3 22.6 27.8 19.3-4.8 50.6 24.1 55.4 43.4q0.9 3.9 1.4 7.5c0.4 3.1 0.6 6.1 0.8 8.8 0.1 0.4 0.1 0.8 0.1 1.3 0.4 4.2 1 7.7 2.6 10.2 0.9 1.4 2.1 2.4 3.8 3.1 2.4 1 5.8 1.3 10.6 0.7 20.3-2.6-12.3 38.7-34.3 44.3-1.4 0.4-2.9 0.6-4.3 0.7-10.6 0.2 0.7 5.5 18.3 13.1 18.5 7.9 44 18.4 58.8 28.3 28.9 19.3-41.7-83.5 0-69 41.7 14.4 30.5 57.8 48.2 51.3 17.6-6.4 59.4-16 48.1 4.8-11.2 20.9-24.1 43.4 35.3 35.4 59.4-8.1 86.7 25 86.7 37.8 0.1 12.8 29.1 14.6 53.1 15.1 23.9 0.6 49.7-19.2 101.1-25.6 51.4-6.5 37.1-3 27.3 10.5-9.9 13.5 51.3 12.2 81.8 0 30.5-12.1 6.5-10.5 29-29.8 9-7.8 31-20 51.4-31.7 30-17.1 56.6-32.8 33.6-30.9-22.6 1.9-35.8 6-38.6 1.2-2-3.3 1.1-11 9.7-26.9 20.9-38.5 9.7-47-1.6-54-9.8-6.1-17.3-63.2 68.2-128.8 12.6-9.6 27.2-19.5 44-29.3q3.3-1.9 6.3-3.6 0.1-0.1 0.1-0.1c125.3-71 123.6 1.1 109.4 24-14.4 23.2 24.1 28 38.5 23.2 14.5-4.8 8.1 28.9 0 49.8-7 18.2 123.8-26.2 160.8 0.1q0 0 0.1 0c5.2 3.8 8.5 9 9.3 15.9 1.4 12 4 20.2 7.4 25.7 12.5 20.6 35.9 3.8 47.2 0 14.5-4.8 103.8-33.7 103.8-33.7v69.9c0 0-421.4 179-849.4 190.2-428 11.2-847.3-183.1-847.3-183.1-55.1-22.8-100.8-23.7-144.6-38.9zm-112.2-100.8c-0.7 0.2-1 3-0.2 2.2q0-1.1 0.2-2.2zm564.2-24c1.5 8.6 22.9 27.6 22.2 11.7-0.3-7.1-11.5-16.3-22.2-11.7zm76.5 56.3c-0.4 3.3-6.7-0.4-13.4 3.6-1 0.6-1.9 1.4-2.6 2.3-2.6 3.3-2.9 8.2-1.6 13.2 2.5 10.5 11.8 21.3 20.5 17.7 3.6-1.5 4.4-6.6 7.8-8q0.7-0.3 1.5-0.3c-3-9.4-7.1-19.4-12.2-28.5zm-69.3-17.7q-1.3 0.9-2.3 2.6c-2.3 12.6 23.1 32.7 23.3 15.9 0-3.2-2.7-8.5-6.4-12.9q-0.1 0-0.1 0c-1-0.9-2-1.7-2.8-2.4-5.7-4.8-5.3-2.2-11.2-3q-0.1 0-0.5-0.2c0 0 0 0 0 0z"/><g style="opacity:.5;mix-blend-mode:soft-light"><path class="n" d="m1676.2 286.1c-21.9-10 6.6-86.5 32-82.5-2.2 5.5-3.8 9.2 0.8 12.5 4.7 3.3 9.9-2.6 10.7 8.2 0.7-2.2 1.9-5.6 3-8.2 2.1-4.8 13.9-16.5 13.3-21.9-1-10.7-18.6-4.2-25.2-2.3 0.8-8.3 12.2-18.9 17.8-24.7 17.4-18 41.5-36.5 66.6-41.2 3.4-0.6 25.9-5.1 19.9 6 5.7 1 7.4 1.7 6.2 6.4-1.7 7-10.3 5.3-7.1 14 1.9 5.3 10.3 8.3 13.9 12.5-13.2 12.7-29.8 17.4-38.2 36 9.2-8.9 16.6-14.1 29.6-11.6 12.3 2.4 10.8 5 15.6-7.1 3-7.4 11.7-18.4 12.7-26 0.8-6.7 1.5-3.3-3.3-7.2-4.7-3.8-9.9-0.9-11.8-8.9-2.5-9.9 7.3-19.9 14.9-24.2 26.1-14.7 38.2 0.4 42.1 24 2.6 15.6-1.2 13.1-13.6 14.6-12.8 1.6-18.7 9.5-25.1 19.8 5.3-4.4 17.1-10.3 22.7-3.1 5.6 7.2-9.3 8.8-15.1 12.9-7.7 5.5-13.2 13-17.9 21-1.2 1.9-5.3 13.1-7.6 14-4.4 1.7-14.5-6-18.1-8.5-7.2-4.9-10.6-9-20-7.7-25.7 3.5-48.2 26-65 43.8-5 5.2-9.1 8.7-10.6 16.4-2.1 10.5 3.7 18.6 6.5 27.6-12.7 5.1-22.9 23.3-27.3 35.4 3.9-16.6-13.9-1.5-18.3 2.4-0.7-12.9 11.5-35.9-4.1-42.4z"/><path class="n" d="m1702.7 340.7c-0.2-11.5 9.8-33.1 22.4-35.4 2.8-0.5 6.6 1.6 9.4 2.5 0 4.5-5.1 11.1-1.3 14.5 3.9 3.6 16.1-0.5 20.7-0.7 2.3-0.1 9.8 2.2 10.5 2.1 9.4-1.7 18.5-14.9 25.6-21.3 4.5-4 17.6-9.4 20.2-14.4 1.4-2.6 0.4-8.9 0.9-11.8 3-19 10.2-23.3 27.9-23.9 1.6-19.1 31.1-36.5 45.5-43.6 15.9-7.9 35.2-15.6 53.3-14-3.2 12.1-6.7 22.9-7.3 35.9-15.5-3.1-25.4 3.7-37.5 12.7-0.9-9.7-13-9.9-19.4-14.3 0.9-2.1 1.2-4.7 3-6.4-16.2 12.5-34.1 31.6-42.1 50.5 6.5-5.9 24.6-26.6 35.1-18.5-7.6 1-4.5 9.1-0.9 13.1 6.3-2.5 11.9-8.2 17.6-12.1 13.5-9.1 27.8-17.4 43.8-20.9 8.6-1.9 20.8-5.1 29.2-1.6-5.6 4-9.2 9.5-12.5 15.5-3.2 5.8-7.7 20.5-13.3 24.3-1.7 1.1-5.1 0.3-7.1 0.8-11 2.6-20.8 7.1-30.5 12.9-12.8 7.7-24.9 16.7-36.5 25.9-7 5.5-14.6 14.2-23.5 16.8-5-7.3-4.4-13.3-15.6-13.5-9.7-0.2-19.6 6.1-27.6 10.4-3.9-9.3-19.2 3.5-23.8 7-8.2 6.1-15.5 13.5-21.3 21.9-2.3 3.3-4.6 10.4-7.2 13-5.5 5.3-20.1 8-27.6 12.7-16.1 9.9-28.9 22.8-42.1 36-6-15.4-25.7-35.3-9.2-49.6 6-5.1 11.5-3.9 17.8-6.4 10.2-4.2 17.8-19.6 23.4-20.1z"/><path class="n" d="m1692.2 410.5c4.1-13.8 16.5-25.5 30.4-29.8 5.4-1.7 13.4 0.6 17.6-1.4 1.3-0.6 3.5-5.7 4.2-6.8 4.1-5.6 8.9-10.7 14.7-14.7 4.8-3.4 10.4-5.6 15.6-7.4-0.3 4.8-2.2 10-2.8 15.1-0.9 6.5 1 18.7-3.9 23.7-2.8 3-12.5 3.6-16.2 4.9-11.3 3.9-21.9 9.4-31.9 15.9-15.3 10-33 22.6-43.2 38.2-6.4-7.4 10.6-31.9 15.5-37.7z"/><path class="n" d="m1743.6 412.1c4.3-8.3 22.8-18.8 31.2-11.2-5.1 7.1-17.2 10.1-31.2 11.2z"/><path class="n" d="m1871.2 313.4c7.7-15.5 27.5-22.5 43.4-26.5 5.5-1.4 10.6-2.9 16-1.7 1.3 0.3 1.3 2.6 2.5 2.9 14 3.7 23.6-18.7 29-28.6-14.7-10.4 33.1-27.2 36.9-28.1 19.3-4.8 40.7-7.3 60.5-4.1 3.9 0.6 7.7 1.7 11.6 1.6-4.2-4.3-11-4.4-16.6-6 15.6-1.2 42.5-2.5 51.1 13.9 6.1 11.9 3.2 30 4.8 42.8-9.9-4.8-17.8-11.9-29.6-12.8-20.7-1.5-36.9 16.3-55.6 21.8-2.7-13.7 15.7-35.7-11.5-33.3-9.4 0.8-25.8 3.1-34.3 6.7-3.3 1.4-5.3-0.2-6.5 4.9 5.2 3.5 13.5 1.9 15.5 9.4-8.3 0.8-14.2 7.5-21.6 9.1-2.9 0.6-9.6-1.8-13.6-1.2-14.5 2.1-27.3 8.5-39.9 15.4-7.1 3.8-15.6 10.1-23.9 9.9-6.2-0.2-9.7-3.3-16.4-1.9-18.9 4-26.9 27.9-35.7 42.7 7.8-10.5 15.1-20.9 24-30.5 8.4-9.2 20.8-27.6 33.2-30.5z"/><path class="n" d="m930.4 222.6q-1 0-2-0.1c-1.1-6-0.3-9.7 3.6-13.1-2.6 3.3-2.9 8.2-1.6 13.2z"/><path class="n" d="m861.9 270.8q-0.8 5.7 0.8 11.1c3.8 1.3 7.3 3.6 10.9 5-0.4-8.5-5.6-16.6-13.8-19.3z"/><path class="n" d="m960.4 271.9c1.2 14.1 1.9 36.8 10.4 48 8-12.2 14.1-5.6 24-2 3.4-11.9 1.3-31.7-2.2-43.8-4.2-14.7-24.1-26.2-32.2-2.2z"/><path class="n" d="m1010.7 283.7c-8.4 11-9.5 41.4 3.3 50.4 2.9 2 29.2 9.8 32.4 8.4 6.7-2.8 1.5-36.7-2.6-43.5 1.3 2.1 3.1 3.9 4.5 5.9-2.1-20.5-24.9-38.5-37.6-21.2z"/><path class="n" d="m633.9 96.4c36.5-0.2 73.9-4.7 110.2 1.7-8.3-10.2-28.7-14.1-41.2-15.1-23-1.9-42.6 11.6-69 13.4z"/><path class="n" d="m696 316.9c24.7-7.8 67.1-25.1 91-8.5-1.5 0.8-3.8 4.2-5.2 5 10.9 3.7 21.1 6.2 32.7 5.4-0.7-1.9-0.5-6.1-1.8-8.2 11.7-4.4 31.3-2.2 43.7-1-2.6 3-6.7 6.3-9.4 9.2 11.4 1.2 22.8-0.5 34 1.2 12.3 1.9 24.1 3.5 36 7.4 12 4 24.8 11.7 36.8 13.9-1-4.1-4.9-8.5-6.1-12.6 30.9 15 69.5 14.8 93 44.1 4.7 5.8 10.4 14.1 13.5 21-10.1-6.8-24.8-8.2-34-15.2-10.9-8.4-20.8-21.4-36.1-23.1-0.1 10 8.5 17.6 11.5 26.5-1.5-0.1-3.3 0.4-4.9 0.3 0.4 1.9-0.5 3.9 0.6 6.1-17.7-1.5-35.2-18.8-54.4-16.7 4.4 4.1 11.3 5.4 15 10.5-3.5 3.7-7.2-0.8-11.7-2.9 0 1.2-0.3 2.6-0.3 3.9-30.4-19.8-62.7-41-101.1-41.7 1.4 0.1 4-0.3 6-0.1-14.5-17.3-47.1-10.3-66.2-5.3 10.5 2.9 20.3 3 29.8 8.9-3.7 2.6-2.7 3.9-1 8.3-25.5-13.7-46.5-25-76.5-28.7-15.2-1.9-55.9-7.9-69.1 0.8z"/><path class="n" d="m651.1 313.7c23.7-6.5 47.9-13.2 70.8-20 10.7-3.2 21.9-5.5 33-6.9 4.6-0.6 15.7 0.6 19.8-2 2.8-1.8 5.7-6.1 5.9-10 1.2-27.4-116.7-1.6-133.9 7.2-9.9 5.1-22.5 13.9-27.4 24 21.7-2.4 42.7-15.2 65.9-12.5-0.2 1.4-1.2 1.1-2 2-11.9-3.9-24.5 9.1-32.1 18.2z"/><path class="n" d="m604.6 124.7q3.1-1.7 6.5-3.2c-2.1 1.4-4.3 2.6-6.5 3.2z"/><path fill-rule="evenodd" class="n" d="m964.2 279.3q-1.9-2.3-3.6-4.8 0 0 0 0c-5.7-8.4-9.4-18.2-16.1-25.9-5.3-6.2-7.4-5.3-13.2-0.8-4.7 3.5-5.5 2.9-10.2-1.1-8.2-6.8-16.4-16-23.5-24-4.6-5.2-6.2-6.5-1.4-11.3 3.2-3.1 6.8-3.7 5.9-8.7-0.7-3.9-5.2-8.1-8.8-11.3q-0.1 0-0.1 0c-1-0.9-2-1.7-2.8-2.4-5.7-4.8-5.3-2.2-11.2-3q-0.1 0-0.5-0.2c0 0 0 0 0 0-3.7-1.3-23.5-10.4-21.1 0 0.5 2.3 5.2 0.8 7.6 2 5.7 2.9 19.4 21.7 19.1 28.4-12.3 2.6-10.9 12-6.9 22.5-7.3-8.5-17.1-16.8-26.2-23.4-4.9-3.6-11.2-8.8-17.5-9.6-3.1-0.4-6.5 1.5-9.3 0.9-8.1-1.8-16.4-15.6-22.8-20.8-9-7.3-20.6-12.7-27.6-22-8.1-10.9-2.2-16.8 7.4-22-3.1-3.3-7.1-5.9-5.1-10.3 1.7-3.8 8.5-6.3 12.2-7.4-6.6-4.7-13.8-8.8-20.9-12.9-9.5-5.4-20.8-3.5-31.4-1.1-12.1 2.9-0.6 8.3 6 10.6 9 3.1 22.9 2.6 30.5 8.3-7.5 6.4-16.6 6.5-7.2 16.9-5.8-1.7-10.5-6.1-16.7-7.3-3.9-0.8-8.4 1.1-12 0.1-5.6-1.5-7.7-9.3-9.8-14-2.7-5.8-4.6-5.3-9.3-8-2.3-1.3-3.7-4.1-6.2-5.8-5.7-3.8-13.5-2.8-19.7-2.2-8.2 0.7-17.1-1-25.8-2.2-16 1.6-37.8 7.1-54.9 15 6.4-4.4 12.7-11.5 19.3-14.6 11.6-5.4 25.6-6.8 38-10.3q2.9-0.8 5.9-1.4 0 0 0 0c9.7-2.1 19.5-2.8 29.3-4.2 4.8-0.7 10.3-0.8 14.6-3.1-8.1-2.7-17-2.8-25.2-4.9q-2.7-0.6-5.2-1.6 1.8-0.5 3.7-0.9c16.1-3.7 32.6-4 49-3.4q4.9 0.2 9.7 0.3 0.1 0 0 0c8.8 0.4 17.5 0.9 26.1 2.1 11.5 1.7 22.3 5.5 33.6 7.8 11.5 2.4 21.1 0.1 31.6 6.9 1.7 1.1 3.6 2.4 5.4 3.9 3.2 2.5 6.4 5.4 8.8 8.5 1.2 1.6 2.3 3.1 3 4.7-4.9-1.4-6.5-5.5-10.4-7.7-2.5-1.4-8.7-1.9-15.2-1.4q-0.2 0-0.5 0c-8.3 0.7-16.8 2.9-18.5 6.5 2.2 5.4 14.1 12.4 20 12.2-0.8-3.7-2.3-7.4-2.7-11.2 5.4 0.4 10.8 5.9 16.1 7.6 6.2 1.9 12.7 1.7 18.8 3.6q0 0 0 0 0.5 0.1 1 0.3c10.3 3.6 19.4 11.8 27.9 19.8q0.1 0 0.1 0.1c3.8 3.5 7.4 6.9 10.9 9.9 3.8 3.2 9.5 6.7 10.7 11.2 0 0-0.4 5.9-0.4 6.1-0.1 4.5 1.4 3.7-2.1 5.6-2.8 1.4-8.4-0.4-11.5-0.4 2.3 7.1 5.6 23.9 13.5 26.2-5.9-10.6-4.1-19.1 9.7-18.8-0.9-5.2-4.2-10.1-6.5-14.9 4.6 8.4 13.3 15.3 19.1 23 3.4 4.4 6.5 9.3 9.3 14.5-0.4 3.3-6.7-0.4-13.4 3.6-1 0.6-1.9 1.4-2.6 2.3-2.6 3.3-2.9 8.2-1.6 13.2 2.5 10.5 11.8 21.3 20.5 17.7 3.6-1.5 4.4-6.6 7.8-8q0.7-0.3 1.5-0.3 0.4 1 0.7 2c-3.6 3.1-2.7 11.2-2.7 15.4-0.1 7.2 0.6 14.4 2.7 21.2q1.2 4.5 3.3 8.7zm-70.5-120.4c-0.3-7.1-11.5-16.3-22.2-11.7 1.5 8.6 22.9 27.6 22.2 11.7z"/></g><path class="p" d="m1662.5 378.4c-4.7-1.8-8.9 0.5-13.5 0.7 2.5-15.5 18.9-24.5 21.1-40.4 0.9-6.4 0.8-15 3.6-20.8 1.5-3 5.1-5 5.9-8.3 1.2-4.6-0.2-5.6-3.1-8.2-10.1-9.6-24-8.3-22.7-26.8 0.5-7.7 4.6-13 6.7-19.5 3.1-9.8 2.4-20.8 5.2-30.8 5-17.9 14.1-34.7 29.1-46.1 6.2-4.7 11.1-3.4 16.8-6.1 3-1.3 5-4.7 7.5-6.8 6.6-5.7 12.6-9.8 19-15.5 8.3-7.4 19.8-12 29.5-16.8 9.7-4.8 24.2-14.6 35.6-12.3 5.9 1.2 11.8 5.9 16.3 10.5-20.5-13.3-62.5 13.7-72.6 31.1 4.6 2.6 3.7 5.9 2.3 10.2-4 12.2-22 15.8-27.3 29.1 1-9 6.3-16.7 8.6-25.4-20.3 3.4-35.2 27.4-40.1 45.6-13.1-5.2-25.8 42.6-22.8 51.9 3 9.1 3.9 2.5 9.4 6.1 3 1.9 6.8 8.3 9.6 11.3 9.1 9.6-0.1 22.6-1 33-1 11.6-9.8 13.9-17.5 23.5-9.7 12.3-11 27.2-5.6 30.8z"/><path class="q" d="m1759.7 446.6q-2.4 1.8-4.4 4c4.6-14.6 24.5-17.9 30-29.2 2.4-4.8 1.4-13.1 3.5-18.5 3.1-7.7 9.2-16.9 17.4-19.9-1.6-14.1 25.3-19.7 35.3-18.3-0.8-11.6 16.8-23.7 24.3-29.1 18.7-13.3 39.2-21.2 61.7-24.6 9.3-1.5 24.5-3.9 24.3 9.5 5.8 0.9 16.5 2 19.8 7.1-9.8 5.3-25.5 12.1-31.4 21.7 22.1-15.1 41.2-21.4 66.7-22.9-6.7-14.7-33.5-21.3-15.5-40.7 11.8-12.8 21.7-10.1 25.3 5.1 18.6-3.3 38-10.6 57.4-7.8 4.1 0.6 7.4 2.5 10.9 1.6 10.3-2.5 14.7-9 27.4-8 21.1 1.8 45.2 5.5 65.4 11 5.8 1.6 15.5 5 19.3 9.6-6.4 3.5-24.5 12.3-14 18.2 6.4 3.5 17.2 0.8 24.3 2.1-8.2 6.4-24.7 10-34.7 13.3-24.6 8.3-49.8 14.5-74.2 23.4-22.4 8.2-45.2 15.7-67 25-86.6 36.7-182.8 39.2-271.8 67.4z"/><path class="r" d="m1751.4 310.4c-33.2 15-18.9-42.1-13.4-55.9 8.6-21.7 31.9-53.1 59.2-46.3 8.8 2.3 21.6 9.7 25 18.6 7-1.9 15.6-3.5 23.2-5.4-0.4-18.2 10.7-37.9 29.1-43.7 13.3-4.1 39.6-0.8 48 11.6-24.5 9-42 19.4-62.9 35.4-5.6 4.3-11.5 5.1-17 9-9.3 6.5-12.8 20.6-16.6 30.7-16.4-19-47.4 42.3-53.5 52.3-9.5-3.1-20-1.7-21.1-6.3z"/><path class="p" d="m724.9 82.2c7.7-1.5 17-0.2 24.2-4 2.7-1.4 2.2-3.7 5.4-4.9 10.7-4 25.2 6.5 35.6 7.6 14.2 1.5 29.9-4.3 44-1.1 13.7 3.1 8.5 15 15.9 23.4 4.4 5.1 7.9 2.7 13.2 4.8 4.6 2 7.3 6.6 11.8 8.9 4.6 2.5 9.2 2.8 13.9 6.2 10.5 7.7 15.1 20.2 23.3 29.9 6.2 7.3 9.7-10 17.7-5.8 9.9 5.2 20 31.9 25.4 41.4 7.4 13.2 12.5 42.2 28.8 47 8.1 2.3 14.9-1.3 22.8 4.1 7 4.8 11.5 11.7 19.2 16.1 17.4 10 20 33.6 23.9 52.6 1.3 6.3 2.3 15.4 9.4 17.9-5.7-1.3-15.3-7.3-16.6-13.3-0.7-3.1 2-5.5 1.7-8.5-0.9-9-9.4-18.8-12.5-27.4-5.5-15.2-6.9-21.1-22.9-25.3-3.9-1-11.3-5.8-15.2-2.6-4.2 3.6 1.5 13 3.9 16-10.9-5-23.7-14.5-29.6-25.2-4.7-8.8-6.9-24.6-11.8-33.4-15.1-26.9-30.4-44.9-56.5-62.4-25.1-16.9-48.6-36.7-77.8-46.1-30-9.8-62.4-14.9-97.2-15.9z"/><path class="p" d="m1056.4 312.6c2.2 7.5 9.1 11.8 6.6 20 12.9-9.5 7.7-18.4-5.8-22.4z"/><path class="p" d="m1102.2 385.6c-4.4-11-18.4-47.8 6.4-42.9 21.5 4.2 21.3 24 29.6 41.9-0.6-5.5 0.2-12.1-0.7-17.8-1.2-6.8-5.5-9.3-8.7-14.9-7.9-13.6-17.2-28.1-33.6-33.6-4.9 4.6-18.2 11.1-19.5 17.6-1.2 5.6 7.4 17.2 9.7 21.8 4 8.4 6.7 17.8 16.8 27.9z"/><path class="p" d="m1153.6 388.8c7.9-2.8 29.4-6.1 33.8 2.9 1.5 3.3-0.9 13.9-0.9 17.9 0 4.5-0.1 9 0 13.5-6.4-13.9 9.8-28.3 18.5-36.7-4.4-8-9.3-16.2-19.3-17.6-8.1-1.1-49.3 12.8-32.1 20z"/><path class="p" d="m1197.7 427.4c28.7 11.4 56.6-7.1 85 4.7-5.2-7.3-16.1-10.8-24.4-13.3-22.5-7.1-41.9-5-60.6 8.6z"/><path class="p" d="m1293.3 437c6.8 4.3 11.5 11 18.4 15.1-0.2-8.5-10.9-18.9-19.2-19.9z"/><path class="p" d="m1355.1 478.8c7.8-0.5 15.8 1.1 23.6 1.5 2.3 0.1 6.5-0.9 8.6 0.4 0.9 0.6 0.8 2.6 1.9 3.4 3.2 2.3 9.3 0.2 12.6-0.5 9.6-2.3 19-5.8 28.6-8.5 13.3-3.6 26.5-6.2 40.2-7.2 0.2-7.3 1.6-11 9.3-14.4 6.2-2.8 13.2-2.9 19.9-2.8-3.7-2.1-9.6-0.8-13.5 0.3-5.4 1.5-10.9 2.9-16.5 4-10.7 2.2-21.2 1.3-32 2.4-13 1.3-24.1 7.9-35.4 13.8-4.8 2.5-9.3 5.8-14.8 6.4-12.5 1.1-24.9 0.4-32.5 1.2z"/><path class="p" d="m1494.3 453.5c-5.7-0.7-14 2.3-17.6 6.9 3 1.9 21.7-1 17.6-6.9z"/><path class="p" d="m1512.8 472.7c7.7 2.7 15.3 2 23.3 2 8.9 0.1 18 0.2 26.9-0.8 9.2-1 21.7-2.8 28.6-9.1 5.9-5.4 13.2-12 16.9-19.1 4.1-7.7 7.8-14.1 14.5-20 3.1-2.7 8.2-3.6 11.2-6.7 2.1-2.1 2.8-5.4 6.5-5.7-11 5.2-22.6 9.7-31.8 17.9-3.9 3.4-14.9 9.6-15 15.7 0 1.8 1.9 2.7 1.6 4.4-0.5 3.2-6.7 6.1-9.2 7.4-6.8 3.3-13.9 6.3-21.3 7.6-16.9 3-33.9 6.1-52.2 6.4z"/><path class="s" d="m559.5 190.6c10.5-31.8 88.6-74.9 117.3-46.5 7 6.9 0.6 11.2 9 17.2 9.7 7 23.8-0.5 33.9 8.7 5.7 5.3 5.5 12.2 12.2 15.9 20.2 11.4 33.4 3.2 44.1 23.8 1.6 3.3-2.6 6.8 0.1 11.3 3.7 6.2 24.5 10.8 31 15.4 15.9 11.1 31.3 29.9 39.2 47.4-7.9-3.7-14.4-11.4-22-16.2-20.5-12.8-47.1-18.6-70.9-20.6-53-4.3-111.4 13.6-157.6 39.2-8.3 4.5-16.5 14.5-26.6 6.2-9.2-7.5-3.1-37-3.2-47.6-0.2-21.4-2.2-42.7-6.5-54.2z"/><path class="t" d="m667.1 354.3c25.4-3.5 51.2-10 77-7.7 11.2 1 20 5.7 30.6 7.6 10.8 1.9 33.1 4 32.3-10.8 20.7-7.2 52.2 3.5 72.4 9.2 16.4 4.5 27.4 11.1 39.9 21.5 2.6 2.2 4.5 6.1 7.4 7.9 9.6 5.8 22.4 4 32.6 6 10.3 2.1 21.7 8.5 32 11 0-1.3-1.2-1.4-1.3-2.7 57.9 19.1 112 42.8 158.3 81.3-81 1.2-169.2-24.9-244.2-54.2-40.1-15.7-81.1-28.1-122.7-39-32.8-8.6-72.6-15.4-114.3-30.1z"/><path class="u" d="m893.2 191.4c-1-0.9-2-1.7-2.8-2.4-5.7-4.8-5.3-2.2-11.2-3q-0.1 0-0.5-0.2c4.3-3.1 10.1 0.5 14.5 5.6z"/><g style="opacity:.5;mix-blend-mode:soft-light"><path class="n" d="m311.7 179.2c-5-13.7 14.2-28.8 26.3-29.2 11.3-0.4 22.3 9.2 32.9 7.2 2.4-0.4 9.2-2.6 11-4 1.9-1.5 1.1-3.2 2.5-4.9 9.2-10.9 23.5-7.8 34.5-0.6 6.3 4 12.3 7.7 18.4 11.8 11.1 7.4 25.4 3.5 29.8 19.7 1.6 5.8 0.4 12.4 0.6 18.4 0.3 7.4 2.3 13.3 3.9 20.3 1.4 6-0.1 11.2-0.4 17.3-0.2 6 1.6 11.5 2.4 17.1-3.8-3.3-7-9.1-9.7-13.5-2.5-4-7.1-16.1-11.6-18-3.5-1.5-7.8 3-11.9-0.1 1.2-0.7 5.3-1.3 6.2-2.5 2.4-3.1-2.3-12.7 0.4-15.2 3-2.9 9.3 2.3 13.6 1.2 8.6-2.2 1.5-12.2-2.2-17.5-5.9-8.5-15.4-15.3-25.8-17.1-4.6-0.8-5.4 0.7-8.9 1.6-13 3.4-23.5 7.1-14.5 22.8-3.6-0.1-7.4-3.1-10.9-4.4-9.8-3.7-19.8-2.7-30.1-1.7-18.1 1.7-34.8-3.9-56.5-8.7z"/><path class="n" d="m481.4 245.9q-1.2-1.9-1.7-4.2c13.1-12.2 40.4-26.5 54-7.4 5.8 8 12.1 15.8 18.6 23.6 6.2 7.5 17.7 18.5 17.2 29.1-10.1-5.7-17.7-16-26.5-23.5-15-13-35.3-24.6-61.6-17.6z"/><path class="n" d="m35.1 39.9q-3.2 0.7-5.8-0.8c4.5-16.9 25.3-27.3 40.4-32.3 25.8-8.5 54.1-5.5 75.7 10.9 12 9 21 5.6 35.9 6.7 24.9 1.8 50.7 11.4 63.5 34.4 12.8 22.9 18 54.4 19.8 80.2 1.9 26.9 28.2 44 38.4 67-11.2-6.1-21.5-18.7-33.8-22.4-10.3-3.2-19.3 0.4-22.9-15-1.1-4.7-0.3-5.2 0.5-9 1.9-9.7 4-14.6 1.9-25.5-3.2-16.6-11.3-38.2-27-47-10.3 10.4 8.9 29.9 14.3 38.4-3-0.6-6.9-1.3-10-0.6-2.5 0.5-5.6 4.5-7.8 4.4-4.2-0.2-7.4-7.1-9.8-9.9-6.7-8-14.9-14.8-23.7-20.5-6-4-12.6-6.9-15.7-14.4-5.9-14 9.2-10.3 16.2-16.8-19-16.6-82.4-28-85.1 10.6-2.4-1.7-5.3-1.9-7.9-2.8 7.8 17.2 26 28.9 33 45.7-20.9-5-38.6-13.7-60.8-13.6-17.8 0.1-39.7 8-55.6-1.9-6.5-4-7.6-6.3-10.3-13.1-6.3-15.5-11.7-33.1-16.2-49.2 6.2 0.5 12.5 1.1 18.8 0.9z"/></g><path class="v" d="m2455.8 383.8c26.2-0.3 16.9-25.4 28.5-41.4-8.8-15.3-26.4-22.1-39.6-32.7-14.6-11.9 0.1-21.8 8.6-32.9 7.4-9.8 6.9-16.1 22.5-11 4.6 1.5 12.7 6.5 16.8 4.7 4.9-2.1 10.4-9.9 16.2-12.7 23.3-11.4-9.5-24.6-15.5-35.8-9.3-17 5.8-35.8-21.4-32.1-8.2 1.1-14.4 3.8-21.5-2.1-11-9.3-9.2-28.2-3.4-39.8 3.2-6.3 10.7-9 13.5-14.2 2.9-5.2 1.8-11.5 5.5-17.1 13.9-21.4 34.6-10.9 52.4-1.9 7-11.3 20.4-16.7 33.3-17.7 13.3-1 27.2 5.1 21.6-15.3-1.9-7.2-9.4-15.5-17.9-14.3-4.8 0.7-8.3 7-13 8-2.1-4.8-2.5-14.4-6.5-17.9-6.3-5.6-18.3-0.7-25.8-0.7-33.6-0.2-69.3-14.9-67.7-53.6 0.5-13.1 7.6-42.1 22.8-47 6.6-2.2 16.1-0.7 23.6-2.2 12.5-2.4 25.2-4.1 38-1.6 11.5 2.3 21.6 8.4 33.1 10.8 28.6 6.1 55.2-7.4 81.4-16.8 17.7-6.4 28.4-11.6 44.2-1.3 17.8 11.5 34.2 12.6 55.2 12.5 16.5-0.1 46.7-6.4 58.4 7 4.6 5.2 7.1 15.4 10.8 21.4 6.5 10.7 12.4 21.1 15.9 33.3 4.8 16.4 5.7 33 4.3 50-0.9 11.9-3.4 24.3-1.7 36.2 1.9 12.6 8.5 23.3 12.4 35.2 4.9 14.8 4.9 30.6 0.7 45.5-8.8-8-19.7-5.4-29.7 0.9-13.5 8.4-16.8 19.9-21.2 34-18.6-9.4-37.3-4.2-53.6 8.7-7.6 6-51.4 57.4-22.8 53.6 12-1.6 21.9-8.6 34.6-4.9 10.2 2.9 11 9.3 17.1 16.3 6 6.9 10.9 4.7 19.2-2.3 7.6-6.4 10.1-13.9 11.6-23.3 0.9-6.1 0.1-12.1 5.2-16.4 5.9-5 17.4-3.1 23.7 0.3 5.7 3.2 6.3 8 10.7 11.7 3 2.6 7 1.7 9.2 5.5 3.7 6.5-1.7 23.7-0.9 31.1 1.8 16.5 10.1 30.8 17.6 45.2 2.5 4.7 5.9 9.6 6.3 14.8-16 5.4-35-0.3-51.5-1-29.2-1.1-58 0-87.1 2.4-62.3 4.9-124.8 12.4-186.3 23.7-45.8 8.3-92.1 13.3-137.8 22.2z"/><path class="w" d="m2514.8 58.6c-9.4-5.7-10.3-20.6-4.5-29 7.2-10.4 17.7-8.2 28.2-10.6 17.8-4.2 32.1-11.5 51.4-11.4 14.5 0 33.6 0.4 45.5 9.9-5.1 6.6-5.8 15.1 1.4 19.4 5.6 3.4 16.3 2.5 22.6 4.8 5.3 1.9 10 5 15.1 7 9.3-16-3.2-24.1 22.6-20.4 14.8 2.1 29.6 2.9 44.3 5.4 13 2.1 9.7 4 9.1 17-0.7 19.8 0.3 41.7 2 61.4 0.4 4.2 4.4 12.8 1.8 16.7-0.7 0.9-7.5 3.1-9.1 4.1-4.1 2.6-7.1 5.6-9.6 9.7-2.8 4.2-3.4 12.2-7.2 14.2-17.8-45.8-73.9-59.7-118-61.5-11.1-0.5-25-7.9-34-14.5-14.2-10.3-12.3-17.7-29.3-7.1-7.1-13.9-15-31.1-32.3-15.1z"/><g style="opacity:.5;mix-blend-mode:soft-light"><path class="n" d="m2450.2 179.8c-16.8-3.2 2.6-36.7 9.1-41.6 5.3-3.9 15.3-7.9 21.3-3.7-1.6 2.6-4.5 5-6.6 7.2 2.9-1.6 20.3-6.3 20.2-9.2-0.2-9.2-17 0.3-20.1-1.6-7.3-4.3 4.3-17.2 8.7-18.9 9.8-3.7 27-0.2 30.6 10.6 3.2-1.2 6.2-3.9 9.6-5.4 2.7-1.2 7.4-1.2 9.5-2.8 1.1-0.9 2.5-4.3 3.4-5.4 4.3-5.3 10.9-8.5 17.1-11.1 14.1-6.2 35.2-10.9 49.9-4.2 5.5 2.5 6.1 4.8 11.7 3.9 5.6-0.9 10.2-3.9 16.2-4.2 9-0.4 17.9 2.3 26.2 5.5 21.8 8.2 41.1 22.3 56.4 39.8 5.3 6 11.9 12.8 14.8 20.2-8.9-0.3-10.8 11.7-11.9 18.5-5.9 0.1-12.7-3-18.7-3.6-19.7-2-39.9-1.3-59.1 4.1-15.7 4.3-31.1 13.1-41.8 25.6-2.7 3.1-5.2 8.7-9 10.2-6-16.4 19.7-27.7 26.8-37.7 0.6-0.7 1-3.9 1.4-4.7 3-6.2 8.6-11.3 14.3-15 11.2-7.1 22.3-6.8 34.5-9.3 0.6-12.8-26.5-21.3-36-22.6-13-1.9-34.9 0.3-42.3 13.2 4.6 3 2.4 11.8 3.2 16.6 2.2-2 5.8-3.3 7.8-0.6-3.1 3.9-9.4 7.2-13.2 10.8-5.7 5.4-10.5 11.3-14.8 17.7-3.1-7.6-4.9-22-13.9-25-11.8-3.9-21.3 11.8-25.7 20.3-8.9 0.4-13.3 14.2-14.6 21.2-2.8 15.5 5 26.4 10 39.6-8.9-5.4-19.9-10.4-26.2-19-4.2-5.8-6.2-12.3-6.6-19.5-0.1-2.1 1.3-8.3 0.1-10.4-2.7-4.8-13.7-7.3-18.7-7.1-11.1 0.6-18.4 10.7-23.6-2.4z"/><path class="n" d="m2500.8 365c-1.2-16 16.3-35.3 28.6-43.1 3.4-2.2 6.9-2.5 10.2-4 5.7-2.6 10.5-8.7 15.4-12.5 14.9-11.6 37.5-25.9 57.3-19.5 5.3 1.7 8 3.4 13.4 0.5-5.7 2.6-17.6 8.9-18.2 15.4 8-1.4 18.8-3.6 24.1 4.8-3.7 1.5-7.4 3.3-9.9 6.4 5.1-1.4 9.1-2.8 14.5-2.8 4.2 0 8.8 1.3 12.8 0.1 0.3-18-19.8-33.9-11.8-52.7 5-11.9 19.2-16 30.9-17.1 7-0.7 21.7-2.7 26.8 3.2-5.3 8.7-16.6 11.8-12 24.7 2.9 8 10.4 13.4 16.1 19.2 2.9 3 4.6 7.3 7.3 10 1.9 2.1 8.2 3.4 9.2 6.1 2 5.3-6.4 9.1-9.7 11.3-11.4 7.8-20.9 14.9-24.6 28.6-15.1-6-30-6.2-46.2-4.2-13.9 1.7-27.2 5.9-40.1 11.4-4.9 2-13.2 8-18.8 6.5-3.2-0.9-5.3-5-8.1-6.9-7.3-4.9-16.7-4.5-24.8-2.2-15.9 4.4-37 16-44.2 31.7z"/><path class="n" d="m2466.5 320.8c-3.9 1.7-7.8-3-10.7-5.1-4.4-3.1-9.7-5.6-13.6-9.3-12.6-11.9 7.8-30.9 19-35.4 2.7-1.1 5.8-3.1 8.5-3.9 5.3-1.4 6.7 1.9 10.5 4.3 9.8 6.2 27.2-2.1 34.5 10.5-5.1 0.3-10.1 4.5-14.5 4.7-1.2 0.1-0.8-0.5-1.8-0.7-5.2-0.8-8.1-2.9-14-1.3-6.4 1.8-11 5.5-13.2 11.7-0.6 1.6-2.3 6-0.2 7.3 1.5 0.9 10.2-3.5 12.4-3.9 3.8-0.6 9.1-1.2 11.9 1.9-1.8 2.7-4.8 3.8-6.9 6.3-3.5 4.1-4.4 9.3-3.9 14.5 0.6 7.8 4.3 14.4 6.1 21.6-1.5-0.8-3.1-1.9-4.4-3.1z"/></g><path class="x" d="m2291.8 432.2c22.7-23.8 69.9-1.1 92.6-28.4 2.8-3.4 1.4-7.7 3.9-10.8 8.2-10.3 21.1-12.6 27.3-25.9 7.4-15.9 9.9-27.2 30.2-21.2 12.9 3.8 16.2 11.2 29.4 5.4 13-5.8 22.9-12 36.8-15.7 2-15.8-23.5-11.4-31.5-15.4-21.7-10.8 15.5-36.8 28.2-44.3 12.9-7.5 26.6-11.1 41.4-8.2 7.8 1.6 15.8 7.3 23.9 5.1 9.5-2.5 16.9-19.6 22-27 10.2-15 20.9-28.4 34.8-40.2 18-15.1 60.5-32 83.9-17.8 9.2 5.6 2.4 0.6 5.3 10.2 1.8 5.7-1.2 6.2 3.9 11.3 4.7 4.7 14.8 5.3 20.7 7.2 4.5 1.4 7.8 0.8 11.3 3.6 15.4-18.6 5.5-31.3 3.2-53.5-1.4-13.7 1.5-26.5 15.7-32.3 7.4-2.9 18.3 3.8 23.2 1.1 6.9-4 9.1-22.3 16.3-28.3 11.1-9.2 18.4-4.1 26.5 6.6 13.6 18 10.1 43.4 13.1 64.5 6.9 48.7 42.4 91.6 61.4 136 7.7 18 5.9 28-10.6 40.5-8.2 6.3-22.8 19.5-32.5 22.9-8.6 3-21.2-1-31.9 1-11.1 2.2-24.3 8.8-36.2 8.5-8.3-0.3-15.4-4.8-22.7-8.4-16.7-8.1-30.7-10.3-49.4-9.3-32.5 1.6-71.4 0.4-102.1 10.4 3 5.2 7.8 9.9 10.8 15.3-12.2 2.2-15.8 3.7-21.1 13-6.7 11.9-6.5 12.5-23.5 14.5-20 2.4-54.1 7.2-73-0.9-7.5-3.3-8.4-8.5-18.3-9.6-7.8-0.9-18.4 3.6-25.1-1 2.4-5.6 7.2-9.6 12.8-12-7.4-4.2-19.4 2.7-27.2 5.5-17.6 6.2-36 7.1-54.5 8.7-18.6 1.6-35.9 6.6-54.2 10-23.7 4.5-48.4 1.1-64.8 8.9z"/><g style="opacity:.5;mix-blend-mode:soft-light"><path class="n" d="m2384.8 410.1c0.4-2.5 0.3-5.9 1.1-8.4 1.8-5.5 6.7-8.5 10-13 2.9-3.8 4.7-7.6 8.5-11.2 3.7-3.4 7.2-6.4 11.5-9 2.3-1.3 5.4-2.3 7.2-4.4 4.5-5.2 5.1-10.9 12.6-13.7 7.6-2.8 17.4 0.1 24.3 3.5 4.6 2.2 4.4 2.5 9 1.7 3.4-0.5 7.9-2.1 10.9 0.6-1.3 1.4-2.2 4.3-3.4 5.2-0.8 0.6-5.9 1.2-6.6 1.4-4.9 1.4-9.3 3.3-13.7 5.7-5.7 3.2-10.8 7.4-15.5 11.8 0.7-3.8 4.8-9.6-1.8-9.5-5.1 0-12.1 7.6-15.5 10.6-3.1 2.8-10.1 8-9.9 12.6 4.6 0.1 7.6 2.2 11.7 1.7 5-0.7 12.2-6.8 17.1-3.8-3.4 3.8-8.8 8.6-13.2 10.2-6.5 2.4-14.6 1.9-21.4 3.5-5.3 1.3-16.8 2.7-22.9 4.5z"/><path class="n" d="m2515.7 335.5c3.1-24.7-39-7.6-34.4-30 5.8-28.1 48.9-46.7 73.6-33-3.6 0.1-7.6 3.1-9.6 5.9 2.9-0.8 11.1-1.4 10.7 2.8-0.6 6-13.6 9.1-14.4 16.2 3-2 6-4 9.4-5.2 6.4-2.1 12.3 0.1 18.5-1.1 8.4-1.6 1.5-7.1 4.9-12.7 1.6-2.6 4.7-2.8 6.9-5 3.8-4 7.1-11.2 10.3-15.9 4.7-6.9 9.8-13.4 15.3-19.8 21.7-25.2 49.4-47.6 84.2-49.9 5.4-0.4 17.8-2 22.1 2.1 3.1 2.9 6.3 12.5 7 16.5-12.7-3.3-34.8 10.2-39.7 21.9 5.4 1.8 12.9-3.8 17.8 1.3-1.2 0.8-2.2 2-2.9 3.3 10.2-7.4 23.6-1.6 33.2 4.4-8.5-1.7-18.8 3.7-26.1 7.6-14.2 7.6-25.2 20.2-37 31-5.9 5.5-6.8 2.6-14.3 1.2-9.6-1.8-17.9 3.2-27 3.1 1.5-2.9 3.8-5.4 6-7.9 1.7-1.9 9.6-8.4 9.7-11.6 0.3-7.3-20.1 5.7-21.5 6.7-4.4 3.2-19 12.7-18.5 18.4 0.3 3.6 7.8 6.3 8.2 10.8-6.5 2.8-11.3 7.8-15.6 13.4-5.9 7.7-12.7 12.5-21.4 16.9-11.7 6-24 10.5-35.1 17.6-8.7 5.6-14.8 12.9-21.3 20.6-4.3-7.1 2.7-21.6 1-29.6z"/><path class="n" d="m2634.9 371.3c0.1-10 11.2-21 19.1-25.4 1.8-1.1 8.7-4.1 6.4 0.8 3.2-0.1 11.8-0.7 14.3-2.4 2-1.4 3.7-6.1 5.1-8 2.2-2.8 5.5-5.5 6.4-8.7-2.9 0-1.7-1.3-1.7-3.6 0.1-4.7 6-11 8.7-14.4 5.8-7.5 12.9-13.7 20.9-18.8 18.5-12 42.1-16.1 62.7-7.1-4.5 2.3-13.6 4.3-15 9.8 3.6 0.9 17.4 2.5 18.3 7.9 0.6 3.3-8 5.1-8.3 9.2-0.5 4.6 4.2 10.6 5.1 15-9 1-18.2 5.9-25.9 10.4-8 4.7-16 14.4-25 17 0.8-12.2 9.3-34.1-11.2-32.4-12.9 1-24 11.3-32 20.7-3.1 3.6-9.5 10.6-9.4 16.1 4.2-1 9.7-4.1 13.2 0.5-10.1 2.8-21 2.8-31.2 5.6-12.1 3.2-22.7 9.1-31.2 18z"/><path class="n" d="m2768.5 215.4q-1.5-1.2-2.5-2.7c6.2-17.9-6.6-30.9-6.5-48.4 0-10.5 5-22.1 15.7-25.5 4.8-1.4 16.7-2.9 20 1.9-1.7 1.4-6.4 5-5.1 7.5 0.4 0.6 4.2 1 5.1 1.6-2.1 6.1-8.1 11.8-11.2 17.7 7.6-9.5 19.5-15.7 31.8-15.6-0.9-2.9-4.5-4.8-6.6-7-7.5-7.9-1.7-19.3 4-26.8 7.2-9.6 19.1-14.4 25.8-1.2 4 7.7 4.4 17 4.5 25.6-5.7-2.4-11.7 7.8-14.2 11.5-1.9 2.7-3.6 4.8-6.7 6.5-10 5.3-19.1 6.8-26.9 16.1-4.5 5.4-6.7 10.4-7.4 17.3-0.3 3.6 0.9 10.9-1.1 13.7-0.8 1.2-3.7 1.5-4.9 2.1-6.2 2.8-11.5 7.2-16.2 12-7.6 7.7-13.9 17.3-17 27.8-0.1-11.5 11.9-28.7 19.4-34.1z"/></g><path class="y" d="m2617.1 377.1c-5.3-5.7-13.1-10.9-16.5-17.9-6.7-13.8-6.7-34.4 3.1-46.4 6.3-7.7 14.5-11.2 22-17.1 2.9-2.3 5-5.2 8.1-7.3 9.4-6.5 21.9-11.4 32.7-6.9 9.3-21.6 34.3-35.6 56.8-37.7 2.2-0.2 6.5 0.6 8.6-0.2 1.4-0.6 2.1-2.4 3.4-3.2 3.3-2.2 9.3-2.7 12.2 0.4-3.4 5.1-1.3 11.8 1.1 17 2.6 5.8 8.9 9.9 10.9 15.6-18.3 0.7-36.1 9.8-49.3 22.2-7.2 6.8-13.2 14.7-16.8 23.9-1.9 4.8-1.9 6.1-5.8 8-2.9 1.4-7 1.2-10.1 2.7-4.6 2.1-8.2 5.2-11.4 9-3.9 4.6-5.4 8.2-11.1 10.3-16.5 5.9-34.2 16.1-37.9 27.6z"/><path class="z" d="m2624.7 374c-5.2-4-8.1-8.4-14.1-11.4-5.2-2.6-13.6-2.9-18.2-6-2.3-1.6-3.5-4.8-5.9-6.6-7.4-5.9-18.9-6.4-27.9-5.8-13.3 0.9-24.4 5.3-33.6 15.3-5 5.6-8.9 11.9-12.3 18.5-0.1 0.1-5.3 8.8-4.8 10 2.3 5.3 11.4 1.5 14.2 7.9-3 2.4-5.7 5.8-6.4 9.5 11.8-1.5 23.7 0.7 35 4.3 2.5 0.8 10.8 5.6 13 5.1 3.2-0.8 0.5-0.8 2.9-3.4 4.3-4.5 5.1-12.3 10.1-17.1 5.5-5.2 12.6-8 20.2-7.1 8.7 0.9 15.2 6.6 22.9 9.3 2.3-5.8 3.1-12.5 4.9-22.5z"/><path class="A" d="m2736.3 370.4c-21.8-1.8 19.9-38 24-40.6 15.6-9.7 30.2-7.4 45.9-12.2 6-1.8 11.2-6.9 17.4-8.7 3.7-1.2 10.7-0.3 13.7-2.9 5-4.2 1-9.4-4.9-12.5-13.9-7.5-21.4-2.9-14.4-23.1 4.8-13.9 21.1-46.4 40.7-35.8 13.8 7.5 22.4 32.9 29.5 45.7 4.5 7.9 10.9 15.3 15 22.8-7.3 8.2-19.4 9.3-26.5 19.3-5.5 7.7-8.5 18-1.3 25.5-9.1 0-17.2 2.8-25.6 6.3-7.1 2.9-24.7 16.7-32.7 15.4-2.1-0.3-2.5-3-4.6-3.6-7.1-2.4-12.1-5.4-20-6.3-12.7-1.4-37.6-1.1-56.2 10.7z"/><path fill-rule="evenodd" class="B" d="m1743.6 433.4c-1.6 7.5-25.7 20.4-8.1 21.7 0 0-122.5 24.4-241.7 23.2-41.1-0.5-70.6-0.7-91.2-0.9 0 0-2.9 0-3 0-36.5-0.2-42.6-0.1-34.5-0.2 12.7-0.1 7.1-7.4 34.9-9 7.4-0.4 11.9 0.1 14.7 0.6 4.9 0.8 4.2 1.7 4.6-2.3 0.1-1.7 0.5-4.3 1.5-8 0 0 0 0 0 0q0.1-0.3 0.2-0.6 0-0.1 0-0.2 0.2-0.6 0.4-1.2 0.2-0.7 0.4-1.4c0.1-0.1 0.1-0.3 0.1-0.4q1.3-3.8 2-7c1-3.8 1.5-6.9 2.2-9.3 1.8-7.5 4.2-8.5 20.2-5q2.4 0.5 5.1 1.1c4.3 1 8.9 1.5 13.6 1.6q0 0 0 0c4.4 0.1 8.7-0.2 12.9-0.7h0.1q1.6-0.2 3.1-0.5c13.3-2 23.8-6.4 24-9.6q0 0 0 0 0-0.7-0.6-1.3c-1.3-1.1-4.6-2-10.7-2.3-10.1-0.5-14.9-1-16.8-2.2-3.2-2 2.2-6.3 5.7-16.9q0-0.1 0-0.1c1.1-3.4 2-7.4 2.4-12.2 2.2-28.8-5.3-30.2-5.1-37.3 0.3-7.2 13.1 5 13.8-5.2 0.4-6.1 6-34.6 20.7-56.2q0.1-0.1 0.1-0.1c0 0 0 0 0 0q0.8-1.3 1.7-2.4 0-0.1 0-0.1c9.3-12.6 21.9-22.4 38.6-23h0.1q0.4 0 0.7-0.1 1.1 0 2.1 0h0.1q3.1 0 5.7 0.2c11.3 0.9 16.8 4.6 19.6 9q0 0 0 0c6 9.6-0.4 22.8 11.6 20.5 3.8-0.7 8.2-1.3 12.8-1.8 8.8-0.9 18.6-1.1 27.3 0.6 0 0 0 0 0 0 9.6 1.8 17.8 5.9 22 13.6 2.3 4.2 3.8 8.1 4.8 11.6q0.2 0.7 0.3 1.3c2.5 11.2-0.7 17.9-1.9 16.8-1.6-1.6-9.1-3.8-4.3 6.4 4.8 10.1-27.8 36.4-14.4 34.8 13.4-1.7 24.1-10.7 40.5-14.9 14-3.6-11.2 13.9-0.3 11.3q0.1 0 0.1 0c2-0.4 4.9-1.5 9.5-3.4q0.6-0.2 1.2-0.5 0.1 0 0.2 0c29.5-11.8 44.5 5.6 41.4 18.9-3.3 13.6-4.3 29.8 9.6 21 13.9-8.8 1.6 14.7 0 22.1zm-241.7-54.3c6.2-5.1 4.7-24.9-4.8-18-9.9 0.2-4.5 25.7 4.8 18zm5.4-66c-7.7 6-7.5 16.1-2.4 17.7 2.5 0.8 6.2-0.3 10.7-4.9 6-6 3.4-12.5-1-15-3-1.8-6.9-1.7-9.4 1.7zm12.8 15l1.6 0.5c3.5-0.8 11-6.7 8-10.7-4.7-6.5-9.4 7-9.6 10.2z"/><g style="mix-blend-mode:soft-light"><path fill-rule="evenodd" class="f" d="m1589.6 309.4c-8.6 1.8-23.1 4.5-26.2 14.4-8.4-2.5-20.2 2-28.3 4.8-14.7 5.2-24.7 14-35.2 24.7-0.8-8.3 2.5-15.2 5-22.5 2.5 0.8 6.2-0.3 10.7-4.9 6-6 3.4-12.5-1-15 2.9-3 6.2-5.6 10.2-7.8-0.6-1.2-1.4-2.8-2-3.8-3.4-0.5-6.3 1.3-9.4 2q0.4-1.5 1.1-3.1c4.4-10.8 16.4-22.8 25.9-27.6 3.5-1.7 10.8-4.2 17.4-4.7h0.1c2-0.1 3.9-0.1 5.7 0.2 2.1 0.4 3.9 1.1 5.3 2.4q0.6 0.5 1 1.3l-9.3 2.2c6.2 0.5 12.2 2.5 16.8 5.7 4.4 3.2 10.8 8.9 8.4 14.8-1.8 4.2-7.3 4.5-5.1 10.5 1.1 3.3 5.8 5.6 8.9 6.4zm-59.8 8.5c-4.8-6.5-9.5 7-9.6 10.2l1.6 0.5c3.4-0.7 10.9-6.6 8-10.7z"/><path class="f" d="m1508.4 359.1c0.3-12.7 19.7-27 31.9-23.1-3.2 1.7-7.3 2.7-10.6 4.9-7.4 4.9-11.4 11.6-21.3 18.2z"/><path class="f" d="m1659.9 316.9c-9.5-22.8-41.2-32.4-61.6-18.6 5.3 2.7 12.9 0 18.2 2.9-3.1 0.7-7.1 1.8-9.5 3.9 14.9-0.4 30.2 2 41 12.8 1-3.3 0.7-6.9 0.1-10.1 6.9 3.1 15.3 11.6 17.1 19.2z"/><path class="f" d="m1641.7 379.5c-3.5 0.7-5.2 0.9-8-0.6-2.3-1.2-4.1-4.3-6.2-5.9-5-4.1-11.7-7.7-17.7-9.9-25.7-8.9-60.8 12.5-70.7 36.9 3.9-3.5 9.3-5.9 14.6-5.4-1.6 2.4-4 5-4.6 7.8 2.1 0.3 4.2 0.7 5.4 2.2-6.3 7.8-14.3 14.9-18.8 24.1 11.7-6.8 23.8-12.3 37.4-14.3 6-0.9 19.4 2 24.4-0.7 3.9-2.2 9.2-14 6.8-17.9-4-6.4-18.6-2.2-24.6-1.4 0.4-7 22.2-27.8 30.5-21.2 4.3 3.3-2.7 9.9-4.2 14.2 5.7 0.6 11.1-2.4 16.9 0.2-1.8 2.7-4.4 5.2-5.3 8.5 16.4-10.3 34.7-17.5 53.4-22.5-5.3-0.3-11.4 1.3-16.5 2.7z"/><path class="f" d="m1597.2 418c9.3-10.8 22.2-19.1 35.6-23.8 6.4-2.3 16.3-5.8 23.1-3.5-7.1 2.5-8.9 7.3-12.2 13.3-5.8-1.9-16.8 5.4-21.6 7.9-12.2 6.2-22.8 16.6-35 22.2-0.9-8.5 14.4-17.7 19.8-22z"/><path class="f" d="m1706.4 372c-14.7-6.7-42.2 11.6-49.6 23.6 7.1-6.2 17.6-7.9 26.5-5.2 10.2 3.1 6.5 6.3 15.9 1.6 7.4-3.8 16.1-5.6 24.2-7.1 1.6-0.3 5.5-0.1 6.6-1.5 6.7-8.1-10.2-15.1-23.6-11.4z"/><path class="f" d="m1423.3 465.1c-6.3-11-3-27.3 9.7-30.4 14.3-3.5 33.5 0.2 46.3 6.9-2.4 1.4-5.2 3-7.3 4.7 5.3 0.2 11.6 2.1 14.9 6.4-0.9 0.4-1.5 1.3-2.4 1.7 8.7 2.5 17.8 6.8 26.5 8.5-3.6-18.1 26.9-34.9 42.2-34.7-8.9 4-29.3 10.7-30.3 22.4 9.5-0.3 21.3-1.8 29.9 3.4-4.7 3.4-11.9 4.4-14.9 10 9.8-0.6 18-3.4 28.6-1.5 8.4 1.4 16.4 4.2 23.1 9.6-14.8 2.2-29.8 4.8-44.8 4.8-14.5-0.1-28.6-1.6-43-2.3-23.8-1.2-47.5 0.8-71.3 0.7-13.4-0.1-27.5 1.1-40.3 5.2 12.7-2 23.2-13.1 33.1-15.4z"/></g><path class="C" d="m1415.3 465.6c9.2-6.3 4.8-17.7 13-23.8 3.8-2.8 14.5-5.6 18-2-0.5 2.3-2 4.2-3.1 6 10.7-3.4 22.6-0.7 33.1-3.7 1.9-0.5 1.9-1.2 3.7-2 3.7-1.8 6.8-4.5 10.7-6 3.6-1.3 7.7-1 11.2-2.2 3.3-1.2 2 0.4 4.2-2 0.9-1.1 3-6.8 2.3-8.2-1.1-2.5-4.9-2.1-7-2.9-1.8-0.7-2.6-2.8-5.4-3-3.6-0.3-6.7 3.6-9.6 3.4-9.5-0.5 1.3-17.5 2.8-22.5 3.3-10.8-9.5-37.8 10-41.9-0.3-12.3 0.8-24.2 2.8-36.5 2.9-18.5 27.5-31.1 42.2-39.5-9.2-11.1 19.3-11.6 25.7-10.1 5.5 1.2 10.1 4.3 13.4 8.9 0.7-9.7-10.8-14.4-18.8-13.7-3.4 0.3-6.1 2.1-9.5 2.1-4.3 0-8.3-2.5-12.9-2.2-10.2 0.6-25.6 12.3-29.9 21.4 1.8-0.4 3.6-0.2 5.2 0.7-1.6 7.9-9.9 9.5-13.8 16.1-2.7 4.5-2.8 9.3-4.4 13.7-1.5 4.4-4.6 7.9-5.7 12.9-1 5.1 1.1 12.5-0.9 17.1-1.9 4.5-3.3 2.3-8 2.7-7.7 0.7-9.7 12.3-7.5 19.6 1.6 5.7 8.5 7.7 7.7 15.7-3.2-0.2-7.1 1.5-8.6 4.3 2.9-0.3 5.8 0.1 8 2.3-3.7 2-0.7 5.1-1 8.4-0.4 6.2-3.6 15.4-6.3 21-4.3-3.6-7.6-6.7-12.4-1.6-2.7 2.9-5 8-1 10.3 3.7 2.2 9.3-3.1 13.2 2.5 3.1-4 16.2-13.6 20-5.4-4.8 4.1-12.6 4.1-16.1 10.2-11.6-1-23.1-4.8-34-8.6-9.6-3.4-29.5-8.8-28.6 8.9 0.2 3.9 2.9 6.1 3.4 9.1 0.7 3.6-3.3 10.1-3.5 14.5-0.1 2.9 0.2 5.9-2.6 6z"/><path class="C" d="m1637.9 374.1c-4 9 7.2 3.6 10.1 1.8 6.7-4.2 10.5-5.4 17.9-6.6 9-1.4 16.8-14 27.5-7.1-4.5 2.3-13.3 5.8-14.7 11.3 4.8-0.9 9.5-3 14.3-4.2 3.4-0.8 8.2-0.5 11.3-1.7 1.3-0.5 1.7-2.5 3.2-3.1 6.5-2.6 13.5 1.1 18.7 5.1 11.6 8.9 6.6 12.9 7.5 25.2 0.2-11.9-6.3-23.3-18.6-25-4.6-0.6-10.7 0-15.6 0.4-6.2 0.6-12.6 1.1-18.2 4-2.4 1.3-4.4 3.3-6.9 4.1-2.4-2.7 0.3-6 2.5-7.8-7.2-2.8-17.3 2.8-24 5-6.7 2.1-15.2 8.7-21.9 9.2 0.1-4 3.6-9.7 6.9-10.6z"/><path class="D" d="m1589.7 473.7c1.4-2.2 2.6-3.6 4.8-3.9 0.9-4.3-7.8-14.6-11.6-11.7-2.1-3.7 3.1-9.6 5.3-12.3 7.2-9.2 17.4-16.2 28.3-20.3 5.8-2.2 11.6-1.8 16.2-3.8 2.1-1 5.1-5.2 7-6.6 3.6-2.7 7.8-5.1 11.8-7.2 11.4-6 25-8.9 37.8-7.3 8.5 1 13.3 4.1 19.8 8.9 1.1 0.9 0.8 1.4 2.1 2-5.1-4.1-7-15.7-3.1-21.7 4.1-6.4 9.7-1.2 14 3 2-0.9 4.5-1.3 6.7-0.4-4.5 9.9 8.7 20.6 13.3 28.9-4.7 5.5-8.6 11.5-10.1 18.7-1.2 6.3 1 9.5-4.2 11.7-4.6 1.9-13.1 1.4-18 1.9-11.7 1.4-23.3 3.5-35 5.1-23.4 3-47 9.8-70.6 11.2z"/><path class="E" d="m1539.7 400.1c-1.5 0.7-4.6 0.9-6.4 0.7 0.3-29.4 83.1-64.7 91.7-29.1 8.4-13 26.4-11.9 25.5-29.4-1.6-30.6-48-35.9-68-21.5 4.4 1.3 10.3 2.4 11.7 6.9-12 1-21.3 8.9-31.2 14.6 2.6-6.1 8-17.3 1.7-18.5-2.8-0.5-13.7 4.9-16 5.7-11 4-20.4 8.3-23.3 20-1.3 5.2-0.1 10.1-2.6 14.6-3.5 6-12 8.6-15.9 14.5-8.5 13-8.1 36.6-0.3 49.5 3.5-9.1 18-14 26.6-15.9-4.6 9.6-10.6 18.5-14.5 28.7 5.6-13.6 16.3-38.7 21-40.8z"/></g></svg>