<svg version="1.2" xmlns="http://www.w3.org/2000/svg" viewBox="0 0 2817 943" width="2817" height="943"><defs><clipPath clipPathUnits="userSpaceOnUse" id="cp1"><path d="m2825.17 942.89h-2828.67v-942.89h2828.67z"/></clipPath><linearGradient id="P" gradientUnits="userSpaceOnUse"/><radialGradient id="g1" cx="0" cy="0" r="1" href="#P" gradientTransform="matrix(1009.341,0,0,1009.341,1373.41,983.497)"><stop stop-color="#2fc990"/><stop offset="1" stop-color="#008da4"/></radialGradient><linearGradient id="g2" x2="1" href="#P" gradientTransform="matrix(0,-239.247,2828.667,0,1400.716,943.142)"><stop stop-color="#fff"/><stop offset="1" stop-color="#3f5efc"/></linearGradient><linearGradient id="g3" x2="1" href="#P" gradientTransform="matrix(0,-190.301,2828.667,0,1404.432,894.195)"><stop offset=".01" stop-color="#6f8e77"/><stop offset=".99" stop-color="#45e7a4"/></linearGradient><linearGradient id="g4" x2="1" href="#P" gradientTransform="matrix(1100.356,0,0,73.25,707.539,749.855)"><stop offset=".01" stop-color="#6fb59d"/><stop offset=".99" stop-color="#9fffea"/></linearGradient><linearGradient id="g5" x2="1" href="#P" gradientTransform="matrix(590.548,0,0,54.956,1151.516,786.747)"><stop offset=".01" stop-color="#6fb59d"/><stop offset=".99" stop-color="#9fffea"/></linearGradient><linearGradient id="g6" x2="1" href="#P" gradientTransform="matrix(0,-42.718,488.88,0,1252.056,746.613)"><stop stop-color="#bfffce"/><stop offset=".99" stop-color="#ffffea"/></linearGradient><linearGradient id="g7" x2="1" href="#P" gradientTransform="matrix(0,-86.749,635.447,0,606.23,805.726)"><stop stop-color="#bfffce"/><stop offset=".99" stop-color="#ffffea"/></linearGradient><linearGradient id="g8" x2="1" href="#P" gradientTransform="matrix(698.9,0,0,46.798,153.643,789.994)"><stop offset=".01" stop-color="#6fb59d"/><stop offset=".99" stop-color="#9fffea"/></linearGradient><linearGradient id="g9" x2="1" href="#P" gradientTransform="matrix(0,-235.943,810.663,0,1541.504,945.672)"><stop offset=".01" stop-color="#9fffea"/><stop offset=".99" stop-color="#6fb59d"/></linearGradient><linearGradient id="g10" x2="1" href="#P" gradientTransform="matrix(0,-239.526,2828.667,0,1400.692,883.021)"><stop stop-color="#84514c"/><stop offset="1" stop-color="#b35154"/></linearGradient><linearGradient id="g11" x2="1" href="#P" gradientTransform="matrix(0,-76.22,1004.208,0,495.711,786.746)"><stop stop-color="#bfffce"/><stop offset=".99" stop-color="#ffffea"/></linearGradient><linearGradient id="g12" x2="1" href="#P" gradientTransform="matrix(0,-33.443,170.569,0,222.54,746.74)"><stop stop-color="#2e4361"/><stop offset="1" stop-color="#615f5e"/></linearGradient><linearGradient id="g13" x2="1" href="#P" gradientTransform="matrix(266.567,0,0,49.479,1730.353,662.52)"><stop stop-color="#528d54"/><stop offset="1" stop-color="#396a37"/></linearGradient><linearGradient id="g14" x2="1" href="#P" gradientTransform="matrix(536.778,0,0,35.326,1005.334,634.612)"><stop stop-color="#528d54"/><stop offset="1" stop-color="#396a37"/></linearGradient><linearGradient id="g15" x2="1" href="#P" gradientTransform="matrix(0,-86.834,365.79,0,1224.216,753.244)"><stop stop-color="#ea8b4c"/><stop offset="1" stop-color="#b35154"/></linearGradient><linearGradient id="g16" x2="1" href="#P" gradientTransform="matrix(0,-38.69,347.169,0,1241.677,700.668)"><stop stop-color="#d19a54"/><stop offset="1" stop-color="#ea8b4c"/></linearGradient><linearGradient id="g17" x2="1" href="#P" gradientTransform="matrix(0,-131.69,538.056,0,597.488,802.713)"><stop stop-color="#ea8b4c"/><stop offset="1" stop-color="#b35154"/></linearGradient><linearGradient id="g18" x2="1" href="#P" gradientTransform="matrix(0,-75.902,531.867,0,611.282,746.925)"><stop stop-color="#d19a54"/><stop offset="1" stop-color="#ea8b4c"/></linearGradient><linearGradient id="g19" x2="1" href="#P" gradientTransform="matrix(460.47,0,0,54.487,381.782,693.91)"><stop stop-color="#396a37"/><stop offset="1" stop-color="#52771f"/></linearGradient><linearGradient id="g20" x2="1" href="#P" gradientTransform="matrix(85.966,-5.403,.884,14.072,559.98,738.79)"><stop stop-color="#396a37"/><stop offset="1" stop-color="#52771f"/></linearGradient><linearGradient id="g21" x2="1" href="#P" gradientTransform="matrix(0,-157.75,291.947,0,2040.748,786.084)"><stop stop-color="#2e4361"/><stop offset="1" stop-color="#615f5e"/></linearGradient><linearGradient id="g22" x2="1" href="#P" gradientTransform="matrix(-11.995,-88.575,137.664,-18.642,2080.238,725.142)"><stop stop-color="#5c7c34"/><stop offset="1" stop-color="#6d832a"/></linearGradient><linearGradient id="g23" x2="1" href="#P" gradientTransform="matrix(-11.995,-88.575,137.664,-18.642,2080.238,726.057)"><stop stop-color="#1e4457"/><stop offset="1" stop-color="#3f602a"/></linearGradient><linearGradient id="g24" x2="1" href="#P" gradientTransform="matrix(-11.995,-88.575,137.664,-18.642,2080.238,722.847)"><stop stop-color="#5c7c34"/><stop offset="1" stop-color="#6d832a"/></linearGradient><linearGradient id="g25" x2="1" href="#P" gradientTransform="matrix(-16.308,-120.431,364.14,-49.311,2035.76,761.721)"><stop stop-color="#5c7c34"/><stop offset="1" stop-color="#6d832a"/></linearGradient><linearGradient id="g26" x2="1" href="#P" gradientTransform="matrix(-13.071,-96.525,183.772,-24.886,2049.517,735.332)"><stop stop-color="#5c7c34"/><stop offset="1" stop-color="#6d832a"/></linearGradient><linearGradient id="g27" x2="1" href="#P" gradientTransform="matrix(-13.317,-98.344,254.858,-34.512,1985.044,738.694)"><stop stop-color="#5c7c34"/><stop offset="1" stop-color="#6d832a"/></linearGradient><linearGradient id="g28" x2="1" href="#P" gradientTransform="matrix(0,-73.854,426.26,0,2094.031,810.293)"><stop stop-color="#bfffce"/><stop offset=".99" stop-color="#ffffea"/></linearGradient><linearGradient id="g29" x2="1" href="#P" gradientTransform="matrix(0,-177.39,284.442,0,2028.685,928.577)"><stop stop-color="#fff"/><stop offset="1" stop-color="#3f5efc"/></linearGradient><linearGradient id="g30" x2="1" href="#P" gradientTransform="matrix(0,-48.034,88.043,0,2311.408,799.364)"><stop stop-color="#2e4361"/><stop offset="1" stop-color="#615f5e"/></linearGradient><linearGradient id="g31" x2="1" href="#P" gradientTransform="matrix(0,-78.77,533.075,0,2527.873,852.233)"><stop stop-color="#3f8677"/><stop offset="1" stop-color="#1e523c"/></linearGradient><linearGradient id="g32" x2="1" href="#P" gradientTransform="matrix(0,-83.612,249.282,0,2582.847,879.187)"><stop stop-color="#0c8177"/><stop offset="1" stop-color="#1e523c"/></linearGradient><linearGradient id="g33" x2="1" href="#P" gradientTransform="matrix(0,-111.239,226.111,0,205.528,823.822)"><stop stop-color="#0c8177"/><stop offset="1" stop-color="#1e523c"/></linearGradient><linearGradient id="g34" x2="1" href="#P" gradientTransform="matrix(0,-195.416,220.481,0,759.096,848.286)"><stop stop-color="#3f8677"/><stop offset="1" stop-color="#1e523c"/></linearGradient></defs><style>.a{fill:url(#g1)}.b{opacity:.7;mix-blend-mode:multiply;fill:url(#g2)}.c{fill:url(#g3)}.d{mix-blend-mode:soft-light;fill:url(#g4)}.e{opacity:.5;mix-blend-mode:soft-light;fill:#9dcaa2}.f{mix-blend-mode:soft-light;fill:url(#g5)}.g{fill:#939734}.h{fill:url(#g6)}.i{fill:url(#g7)}.j{mix-blend-mode:soft-light;fill:url(#g8)}.k{mix-blend-mode:soft-light;fill:url(#g9)}.l{fill:#fff}.m{mix-blend-mode:soft-light;fill:#fff}.n{mix-blend-mode:soft-light;fill:#8eae13}.o{fill:url(#g10)}.p{fill:url(#g11)}.q{fill:url(#g12)}.r{mix-blend-mode:soft-light;fill:#af9891}.s{opacity:.87;mix-blend-mode:multiply;fill:#af4faf}.t{opacity:.87;mix-blend-mode:multiply;fill:#af9891}.u{fill:url(#g13)}.v{fill:#65ac43}.w{opacity:.5;mix-blend-mode:multiply;fill:#af9891}.x{fill:url(#g14)}.y{fill:url(#g15)}.z{fill:url(#g16)}.A{opacity:.87;mix-blend-mode:multiply;fill:#e5ddda}.B{opacity:.5;mix-blend-mode:soft-light;fill:#b5c9b3}.C{fill:#fac252}.D{opacity:.5;mix-blend-mode:soft-light;fill:#ffca86}.E{fill:url(#g17)}.F{fill:url(#g18)}.G{fill:#ffe543}.H{fill:url(#g19)}.I{fill:url(#g20)}.J{fill:url(#g21)}.K{fill:#7c7881}.L{fill:url(#g22)}.M{fill:url(#g23)}.N{fill:url(#g24)}.O{fill:url(#g25)}.P{fill:url(#g26)}.Q{fill:url(#g27)}.R{opacity:.5;mix-blend-mode:soft-light;fill:#af9891}.S{fill:#948981}.T{fill:url(#g28)}.U{opacity:.7;mix-blend-mode:multiply;fill:url(#g29)}.V{fill:url(#g30)}.W{fill:url(#g31)}.X{fill:url(#g32)}.Y{fill:url(#g33)}.Z{fill:url(#g34)}</style><g clip-path="url(#cp1)"><path class="a" d="m-3.5 786.7c0 0 1039.1-91.7 1446.1-82.8 406.9 8.9 1382.6 179.1 1382.6 179.1v60.1h-2828.7z"/><path class="b" d="m-3.5 869.4c0 0 951.6-65.1 989.3-57 37.7 8.1 381.3 14.2 468 10.6 86.7-3.6 444 22.4 560.4 32 116.4 9.6 811 88.1 811 88.1v-48.9c0 0-774.3-142.6-1003.4-165.4-229.1-22.9-404.4-24.9-404.4-24.9l-3.7 23.3c0 0-104.9 30.7-185.3 25.6-80.4-5.1-175.5-43-175.5-43 0 0-861.4 62.2-1056.4 84.8z"/><path class="c" d="m2825.2 894.2c0 0-768.3-130.2-980.8-151.6-212.4-21.4-406.1-34-415.2-26.5-9.1 7.5 4.8 7 15.5 15.5 10.7 8.6-108.1 38-286.8 33.2-178.8-4.8-105-43.9-140.8-47.1-35.8-3.2-929.4 65.3-1020.6 81.3v-12.3c0 0 923-79.4 1056.4-76.9 0 0 76.8 36.3 184.7 36.3 138.2 0 176.1-18.9 176.1-18.9l3.7-23.3c0 0 179.3 1.2 470.8 37.4 291.4 36.1 937 141.7 937 141.7z"/><path fill-rule="evenodd" class="d" d="m1807.9 773.1c-8.2-0.4-229.9-10.9-256.2-4.9-26.8 6 2.5 12.4-18 18.8-18.9 5.9-194.5 34.1-391 36.1 8.2-3.6 4.3-8.7-20.4-14.8-76.2-18.9-138.5 3.6-110.4 11.2-137.2-10.9-143.4-43.4-181-55.5-44-14.1-123.4-10.7-123.4-10.7 168.3-12.6 78.8 12 227.4 31.3 148.6 19.3 379.4 11.8 507 0 127.5-11.8 63.5-11.2 107.3-20.6 42.9-9.2 250.9 8.5 258.7 9.1zm-675.6 27.8c-23.2 1.9 10.4 11.4 26.1 9 15.7-2.4-14.9-9.9-26.1-9z"/><path class="e" d="m1313.1 922.7c-171.9-26.9 141-156.6 492.5-134.5 351.4 22.1 395.5 91.7 401.8 120.6 6.4 28.9-655.1 51.3-894.3 13.9z"/><path class="f" d="m1151.5 836.5c0 0 190.9-2.7 295.3-12.3 104.3-9.6 102.8-28.5 130-35.1 27.1-6.6 165.3 2.9 165.3 2.9 0 0-130.1 0.2-148.6 8.9-18.5 8.6-19.3 17.4-41.8 26.3-22.4 8.8-246.5 21.9-400.2 9.3z"/><path class="g" d="m1551.2 749.3c-13.2-2.6-28.8-3.8-41.9-0.8 11.5 3.1 26.3 2.3 38.7 4z"/><path class="g" d="m1626 742.6q0.2-0.9-0.2-2c-2-6.4-18.8-7.8-24-8.6-14.5-2-29.4-2.1-43.9-0.7-3.3 0.3-23.6 1.1-24.6 5.6-0.4 1.4 0.5 2.8 1.9 4.1-18.3-1.4-35.8-2.8-51.7-3.4 4.8-2.9 11.8-4.1 18.1-5.4-10.2-7.5-35.7-6.8-49.8-9.6 10.8-9.2 56.9-15.1 71-6.3 33.6-5.1 75-3.2 104.7 5.6 11.5 3.4 36.8 4.1 43.9 11.4-13.5 5-29 7.9-45.4 9.3z"/><path class="g" d="m1642.2 718.2c-7.9 0.1-18.1-0.8-24.6 2.2 9.4 3.7 20.7 4.9 30.9 4-0.7-1.4-1.6-0.5-3.1-0.8z"/><path class="g" d="m1703.2 730c-8.7-1-25 1-30.7 7.3 6.7 1.3 39.9 5.3 42.5-0.9z"/><path class="g" d="m1758.9 752.5c13.5-3.7 43.8 0.7 53.2 10.7-10.8 15.7-41.5 7.6-56.2 5.2-29.3-4.9-59.9-4.8-88.8-10.5 15.1-5.1 35.9-2.3 51.8-3 14.4-0.6 28.8-1.3 40-2.4z"/><path class="g" d="m1862.7 758.9c-7.2-1.2-23-4.5-29.1 0 4.7 3.8 42.5 14.6 40.9 5.4z"/><path class="g" d="m1394.9 760c-12.1-3.6-28.7 2.2-38.8 8.6 7.1 5.9 37.4 6.1 44.2-2.2z"/><path class="g" d="m1404.8 757.3c-1.8-1.2-4.4 0.3-5.7 1.7 1 1.7 10 0.4 10.8-1.7-1-0.7-2.3-0.9-3.5-0.8z"/><path class="g" d="m1423.3 767.2c1.6-0.6 8.9-1.6 8.3 1.3-0.7 3.9-7.5 0.9-9.4 0.3z"/><path class="g" d="m1477.9 733.2c-5.4-1.2-12.6 0.4-17.4 2.8-6.8 3.4 0.4 4.6 4.6 4.5 1.8 0 19.9 0.7 17.9-4.9z"/><path class="g" d="m1489.9 741.3c-2.5 0.1-7.4 1-8.5 3.4 2.4 1.9 13.7-0.2 10.7-2.6z"/><path class="g" d="m1481.6 767.7c2.6-1.7 7.2-1.7 9.7 0.2-1.4 3.4-7.2 3.6-10.2 3.1z"/><path class="g" d="m940.9 720.2c-10.7 1.2-24 3-33.4 8.5 8.3 2.5 21.2-0.3 29.7-1 6.1-0.5 13.9-0.5 19.4-3.2-1.7-2.5-4.7-3.6-15.7-4.3z"/><path class="g" d="m1004.8 761.1c-6.9 0.8-18.6 0.7-23.4 5.9 7.4 2.5 24.6 4.3 31.4-0.6-0.3-1.4-1.3-2.5-8-5.3z"/><path class="g" d="m1056.2 772.8c-2.2 0.8-4.3 1-6.1 2.1 2.8 2.6 13.5 5.3 14.6-0.5q-0.6-0.7-1.6-1z"/><path class="g" d="m993 722.6c-4.6-1-9.2-0.5-13.8 0-7.1 0.8-27.4 2.2-31.4 9.4-3.4 5.8 7.7 7.3 12.3 8.5 8.9 2.3 17 5.2 25.7 8.2 8.1 2.9 15.8 1.4 23.9-1.1 4.7-1.4 16.9-3.6 18.8-9.5 4-12.9-28.2-15.6-35.5-15.5z"/><path class="g" d="m1063.5 759.1c-3.9-3.3-13.2-1.7-16 2 2.4 3 21 5.9 19.8 0.1z"/><path class="g" d="m1101.1 770.7c3.9-2.1 19.9-1.7 15 5.3-2.8 4.1-14.8-0.8-17.6-3.2z"/><path class="g" d="m955 817.3c-11 1.9-22.5 0.1-33.7 1.5-6 0.8-21.7 1.6-25.5 7.7 9.3 6.7 24 2.2 33.7 8.3 3.8 2.4 4.6 4.2 10.2 4.3 10.2 0.3 20.5-2.3 30.7-2.5 11.9-0.3 23.8-0.2 35.7-0.7 12.8-0.5 16.2-2.6 25.5-10.7-6.8-6.7-19.7-3.6-28.4-4.2-7.1-0.5-14.5-4-21.5-5.4-9.5-1.9-18.8-0.2-26.7 1.7z"/><path class="g" d="m977.5 802.3c-6.3-1.6-17.3 0.3-22.5 3.9 6.7 1.5 17 1.4 22.5-3.9z"/><path class="g" d="m1101.7 826.3c4.2-3.1 13.6-2.2 16.9 1.7-4.7 2.8-11.2 1.6-16.4 1z"/><path class="h" d="m1009.5 709.8c0 0 15.2-0.7 44.9 7 29.7 7.6 12.9 28.6 161.4 29.8 66.3 0.5 197-12 206.4-17.1 9.5-5-9.3-14.1 0.9-19.7 10.2-5.5 75.3-4.7 75.3-4.7l-81-1.2c0 0-2.1 12.9-2.9 18.1-0.8 5.2-107.8 28.6-205.9 21.3-98-7.3-154.4-36.7-154.4-36.7z"/><path class="i" d="m294.4 763.2c36.9-2.8 79.9 24.2 220.3 39.5 140.3 15.3 356.6-31.6 376.9-42.9 20.4-11.3 14.3-24.8 7.2-27-7.1-2.1 31.1-13.8 31.1-13.8h-53.5c0 0 4.5 23.5-1.7 31.3-6.2 7.8-126.3 34.9-258 48.7-131.7 13.8-255.2-38.1-255.2-38.1z"/><path class="j" d="m153.6 800.9c0 0 117.3-19.6 191-6.2 73.7 13.4 188.7 29.5 317.3 25.3 128.6-4.2 190.6-24.4 190.6-24.4 0 0-20.3 8.3-62 20.2-41.7 11.9-223 26.2-346.4 19.1-123.5-7.2-97.9-27.1-139-35.9-41-8.7-151.5 1.9-151.5 1.9z"/><path class="k" d="m1190.4 764.6c160.5 3 219.5 25.7 122.7 37.6-96.8 11.8 65.1 4.8 65.1 4.8 0 0-54.8 19.2-181 32.2-126.2 12.9 239.7 35.4 173.5 43.8-66.3 8.5-231.9 30.9-25.8 45.5 206.2 14.6 421.8 29.9 573.6 0 151.7-29.9-11.6-92.5-74.6-98.7-63.1-6.2-132.3-18.4-35.8-30.8 96.6-12.4 26.3-21.7-16.3-33.7-42.6-12 78.2-18 83.1-18.4 4.9-0.4-313.7-32.7-377.8-36.4-64.1-3.7-81.8 6.3-82.6 11.5 0 0-1.9 18.4-25.4 27.2-23.5 8.9-198.7 15.4-198.7 15.4z"/><path class="l" d="m749.3 846.8c0 0 34.5-1.6 49.1-2.5 14.6-0.9 19.2-2.7 19.2-2.7 0 0-16.7-0.8-31.4 0-14.8 0.9-36.9 5.2-36.9 5.2z"/><path class="l" d="m836 801.3c0 0 4 1.4 9.7 0.7 5.7-0.8 10.7-3 10.7-3 0 0-10.6 2.1-13 2.3-2.4 0.2-7.4 0-7.4 0z"/><path class="l" d="m1168 748.4c0 0 15.8-4.6 35-1.5 19.2 3.1 44 6.5 44 6.5 0 0-29.5 4.5-79-5z"/><path class="l" d="m2548.2 873.8c0 0 15.6 1.7 28.8 2.5 0 0-8.3 3.4-16.4 2.9-8-0.6-12.4-5.4-12.4-5.4z"/><path class="l" d="m2310.8 846.5c0 0 13.4 2.8 25.4 3.3 12 0.6 26.8-0.9 26.8-0.9 0 0-46-1.7-52.2-2.4z"/><path class="l" d="m195.2 818.7c0 0 7.7 4.1 19.1 5.8 11.5 1.6 18.9-1.3 18.9-1.3 0 0-19 1-38-4.5z"/><path class="l" d="m195.2 785.8c0 0 8.7 0.5 16.5 0 7.7-0.5 8.9-1.8 8.9-1.8 0 0-12.7 2-25.4 1.8z"/><path class="l" d="m297.1 815.4c0 0 15.8-0.7 22.2-1 0 0-6.3 3-22.2 1z"/><path class="m" d="m1350.1 791.2c0 0 41.6 0.9 102.7-4.7 61.1-5.7 67.7-11.2 67.7-11.2 0 0-113.5 13.3-170.4 15.9z"/><path class="m" d="m1350.1 839.2c0 0 76.8-2.8 139.2-7.4 62.4-4.6 74.8-10.6 74.8-10.6 0 0 7.2 7-75.3 13.9-82.6 6.9-138.7 4.1-138.7 4.1z"/><path class="n" d="m1900.1 857.4c-14.2 4.2-59.9 2.9-64.8 20.4-5.4 18.9 66.4 13.8 76.9 12.9 8.7-0.8 44.8-0.7 43.6-15.3-1.4-18.4-47.6-24.2-55.7-18z"/><path class="n" d="m1894.8 829.6c-9.2-1.2-28.8 2.8-31.2 12.9 10.2 5.9 38.6 5.6 45.1-5.4-2.6-2-6.2-3.4-9.6-3.3z"/><path class="n" d="m2344.8 861.6c-9.2-1.2-28.8 2.8-31.2 12.9 10.3 5.9 38.6 5.6 45.2-5.4-2.7-2-6.3-3.4-9.7-3.3z"/><path class="n" d="m2715.4 908.6c-9.1-1.1-28.7 2.9-31.1 13 10.2 5.9 38.6 5.5 45.1-5.5-2.7-2-6.3-3.3-9.7-3.2z"/><path class="n" d="m2077.8 904.5c-12-0.3-51.9-1.8-55.7 12.9-3.9 15.5 40.4 16.7 49.1 17 10.8 0.3 52 2.2 58.7-12 7.5-15.7-27.4-17.4-52.1-17.9z"/><path class="n" d="m1635.3 908.9c-19.4-0.5-83.8-2.9-89.9 20.9-6.3 24.9 65.2 26.9 79.2 27.3 17.6 0.6 84 3.7 94.9-19.3 11.9-25.3-44.3-28.1-84.2-28.9z"/><path class="n" d="m265.8 868.3c-19.4-0.4-83.9-2.8-89.9 20.9-6.4 25 65.1 27 79.2 27.4 17.5 0.5 84 3.6 94.8-19.3 12-25.3-44.2-28.1-84.1-29z"/><path class="n" d="m1845.9 898.3c-12.1-0.3-52-1.7-55.8 13-3.9 15.4 40.4 16.7 49.1 16.9 10.9 0.4 52 2.3 58.8-11.9 7.4-15.7-27.5-17.4-52.1-18z"/><path class="n" d="m2439.6 882.6c-12-0.3-51.9-1.8-55.7 12.9-3.9 15.5 40.4 16.7 49.1 17 10.9 0.3 52 2.2 58.8-12 7.4-15.7-27.5-17.4-52.2-17.9z"/><path class="n" d="m2045.7 882c7.6-1.4 24.2-3.9 26.8 5.4-6.2 3.2-16.8 4.3-23.6 2.1z"/><path class="n" d="m1820.6 879.4c-13.5-4.3-38.3-3-47.6 8.7 6.3 11.8 40.3 10.4 51.7 7.3 9.6-2.6 14.8-8.5-4.1-16z"/><path class="n" d="m1444.2 893.8c5.5-9.1 51.1-27.6 53.6-11.2 1.9 12.1-33 12.3-53.6 11.2z"/><path class="n" d="m1667.9 810.3c-5.8 0.9-13.7 3.6-15.1 9.6 13.9 9.5 41.2-4.4 14-8.5z"/><path class="n" d="m1130.6 891.6c-5.1 2.6-20.1 8-19.6 15.1 0.6 11.4 26.1 4.8 30.9 4 4.3-0.8 24.8-1.9 26-9.1 1.9-11.2-19.9-9.1-25.6-8.9z"/><path class="n" d="m119.7 803.9c-5.1 2.6-20 8-19.6 15.1 0.7 11.4 26.1 4.8 30.9 4 4.3-0.8 24.8-1.9 26.1-9.1 1.8-11.2-20-9.1-25.6-8.9z"/><path class="n" d="m1174.4 877.7c5.1 4.1 26 8.7 30.6 1.7 7.5-11.4-19-10.6-24.1-9.2z"/><path class="n" d="m268.1 853.6c5 4.1 25.9 8.7 30.6 1.7 7.5-11.4-19-10.6-24.2-9.2z"/><path class="n" d="m1224.8 921.6c6.2-6.6 22.4-6.7 25.5 3-6.4 3.6-15.6 3.3-22.3 1.3z"/><path class="o" d="m-3.5 739.7c0 0 986.1-90 1381-96.1 395-6.1 1447.7 163 1447.7 163v76.4c0 0-1122.6-166.8-1413-172.2-290.5-5.5-1415.7 75.9-1415.7 75.9z"/><path class="p" d="m-3.5 786.7c0 0 609.8-39.7 740.2-50.6 130.4-10.8 264-25.6 264-25.6 0 0-687.7 36-1004.2 76.2z"/><path class="q" d="m140.5 728.7c0 0 0 8.8 47.3 16.4 47.4 7.6 95.2-13.6 100.1-16.4 4.9-2.8 23.2-12.2 23.2-12.2 0 0-91-12.6-170.6 12.2z"/><path class="r" d="m152.1 725.9c-5.8 4 45.8 12.1 80.3 11.6 34.5-0.5 78.7-21 78.7-21 0 0-93.7-11.1-159 9.4z"/><path class="s" d="m142.7 731.6c0 0 49.6 8.3 89.7 5.9 40.1-2.4 74.2-18.6 74.2-18.6 0 0-38.8 28.7-88.7 35.6-49.9 6.8-75.2-22.9-75.2-22.9z"/><path class="t" d="m2280.5 727c0 0 127.3 19.2 156.8 32.4 29.5 13.1 102.8 15 157.9 18.8 55.1 3.7 230 44.9 230 44.9v-16.5c0 0-428.8-66.1-544.7-79.6z"/><path class="u" d="m1996.9 662.5c0 0-46.5 7.1-73.2 9-26.8 1.9-76.3-0.7-120.6-3.7-44.2-3-72.7-0.8-72.7-0.8 0 0 189.6 43 211.4 45 0 0 15.8-18.5 21.4-24.7 5.6-6.3 33.7-24.8 33.7-24.8z"/><path class="v" d="m1742.4 667.4c0 0 67.7 12.4 116 21 48.3 8.7 89 13 91.2 10.1 2.3-2.8 47.3-36 47.3-36 0 0-47.4 3.6-104.8 3.9-57.4 0.3-149.7 1-149.7 1z"/><path class="w" d="m1819.4 686.9c0 0 18.9-0.7 58.6 4.9 39.8 5.6 61.4 8.8 61.4 8.8 0 0 5 8.2 2.4 11.4 0 0-78.8-15.4-122.4-25.1z"/><path class="x" d="m1005.3 664.5c0 0 145.6-28.9 262.8-29.8 117.2-1 175.5 12.8 218.1 15.5 42.5 2.8 55.9 5.8 55.9 5.8 0 0-25 16-100.2 13.7-75.3-2.3-178.6-6.9-221.7-8.1-43.1-1.1-214.9 2.9-214.9 2.9z"/><path class="v" d="m1063.4 654.4c0 0 163.8 0.2 231.5 4.5 67.6 4.3 105.5 1.2 151.9 3.5 46.3 2.2 95.3-6.4 95.3-6.4 0 0 0.3-2.1-128.4-15.5-85.6-8.9-135.1-21.7-350.3 13.9z"/><path class="y" d="m1070.2 666.4l-18.6 46.6c0 0 86.9 37.7 185.9 40.1 99.1 2.4 176.2-25.9 176.2-25.9l3.7-40.5z"/><path class="z" d="m1081.3 664c-43.5 1.7 49.5 23.6 133.1 33.9 83.7 10.3 203-11.2 203-11.2 0 0-67.9-33.1-336.1-22.7z"/><path class="A" d="m1398.4 652.1c0 0 150.6 54.8 154.9 55l-76.6-45.1c0 0 62.2-7.6 109.8 0 47.7 7.5 205.3 62.9 205.3 62.9 0 0-202.1-17.4-374.4-21v-17.2c0 0-80.8-19.8-167.1-24.7-86.4-4.9-158.4 1.6-158.4 1.6 0 0 197.3-12.2 306.5-11.5z"/><path class="A" d="m1052.9 709.8l17.3-45.6c0 0-62.2-1.5-102.3 2.2-40.2 3.7-91.5 4.2-91.5 4.2l-79.1 54.3 67.7-53.7-26.7 1.7c0 0-9.5 15.8-41 32.6-31.5 16.9-125 28.9-125 28.9l140.9-60-17.3 2.2c0 0-146.9 57.2-181.4 63.9-34.5 6.6-34.1-45.4-34.1-45.4l-18.5 0.6v53.5c0 0 413.5-42.6 491-39.4z"/><path class="B" d="m1162.9 662c-35.8 0.9 18.7 27.3 80.9 34.8 62.3 7.5 121.4-8.4 121.4-8.4 0 0-39-30.1-202.3-26.4z"/><path class="A" d="m1091.9 675.6c0 0 41.8 51.8 56.1 58.2 14.2 6.5 63 11.5 63 11.5l-41.8-44.6c0 0 52 40.5 63.9 44.6 11.8 4.2 92.3-3.2 92.3-3.2l-98.1-42.9c0 0-71-7.2-135.4-23.6z"/><path class="C" d="m1309.1 653.4c0 0 107.8 7.4 128.1 8.6 20.4 1.1 78.5-0.3 92.5-4.3 14-3.9 168.2 4 168.2 4 0 0-132.7-15-216.8-13.7-84 1.2-172 5.4-172 5.4z"/><path class="C" d="m1077.3 671c0 0 59.7 26 129.5 29.7 69.9 3.6 97.2 2.2 115.1 0 17.9-2.3 57.5-8.3 57.5-8.3 0 0-54.8 5.5-110.5 6-55.7 0.6-191.6-27.4-191.6-27.4z"/><path class="D" d="m1140.2 667.4c0.6 4.8 5.9 7.5 9.7 9.6 9.7 5.4 21.1 9 31.6 12.5 29.7 9.9 59.5 12.3 90.6 12.2 37-0.2 71.8-5.2 107.2-15-30.1 0.2-60.6-3.7-90.3-7.5-26.2-3.4-52.7-5.8-79.1-7.3-12.9-0.7-25.9-0.9-38.8-1.4-9.5-0.4-19.2-1.2-30.9-3.1z"/><path class="C" d="m1702.5 662.5c0 0 62.2 6.8 89.3 13.1 27 6.3 113.1 4.7 113.1 4.7 0 0-96-15.9-202.4-17.8z"/><path class="A" d="m1671 661.7c0 0 31.4-1.5 79.1 9.3 47.8 10.9 63.8 56.9 63.8 56.9 0 0-45.8-8.6-54.7-10.2-8.9-1.6-88.2-56-88.2-56z"/><path class="s" d="m1207.2 657.4c0 0 93.7-3.5 122-2.3 28.3 1.2 78.7 29.4 78.7 29.4 0 0-81.8-25.8-200.7-27.1z"/><path class="E" d="m344.6 753.2c0 0 64.2 39.7 206.6 48.5 142.3 8.8 316.4-42.3 322.4-49.2 5.9-7 9-81.5 9-81.5l-531.8 45.4z"/><path class="F" d="m350.8 716.4c0 0 109.2 34.2 274.7 30.2 165.6-4 257.1-75.6 257.1-75.6 0 0-321.9 2.5-531.8 45.4z"/><path class="A" d="m364.6 720.2c0 0 59.3 28.3 194.9 35.3l59.8 45.4-43.2-50.6c0 0 108.4-3.8 119.1-3.4 10.7 0.4 72.8 35.2 72.8 35.2 0 0-144.4 38.5-271.2 14.4-126.7-24.2-142.8-43.2-142.8-43.2z"/><path class="C" d="m399 727.9c0 0 152.9 10.2 222.8 11.8 69.8 1.5 162.5-20.3 162.5-20.3 0 0-86.5 32.1-211.7 30.9-125.1-1.2-173.6-22.4-173.6-22.4z"/><path class="D" d="m444.1 700.7c0 0 68.5 30.5 214.3 26.6 145.8-3.8 221.3-58.5 221.3-58.5 0 0-303.9 12.6-435.6 31.9z"/><path class="G" d="m1199.9 694.8c0 0 59-11.8 89.6-11.8 30.6 0 73.2 10.9 73.2 10.9 0 0-92.6 14.6-162.8 0.9z"/><path class="H" d="m381.8 724.9c0 0 50.6-16.1 182.3-24.2 131.7-8.1 278.2-6.7 278.2-6.7 0 0-69.1 41.6-172.1 48.1 0 0-106.7-13.5-161.4-12.1-54.7 1.4 52.2 16.3 52.2 16.3 0 0-61.5 12-179.2-21.4z"/><path class="t" d="m839.2 695.7c0 0-106.5 42.8-157.8 41.2-51.4-1.6-176.5-15.1-191.2-12-14.7 3.2 5 8.9 5 8.9 0 0 14.4-7.8 52.7-3 38.4 4.8 121.1 13.9 125.9 13.3 4.8-0.7 118.8-14.7 165.4-48.4z"/><path class="t" d="m385.6 723.8c0 0 43.4 11.2 92.5 17.9 49.2 6.7 73.1 5.6 73.1 5.6 0 0-32.9 3.1-86.3-3.2-53.5-6.3-83.1-19.2-83.1-19.2z"/><path class="I" d="m562.3 739.5c-9 1.5 11.1 12.6 31.6 11.3 20.4-1.4 52.8-4.8 52.8-4.8 0 0-38.6-14.2-84.4-6.5z"/><path class="t" d="m562.3 739.5c-2.8 3 22.2 7.4 34.2 8 15.3 0.7 40-0.8 40-0.8 0 0-44.1 4.5-53.2 5-9.2 0.4-31.9-10.7-21-12.2z"/><path class="J" d="m1939.4 724.9c-9.3-3.5 16.7-36.8 24.6-41.5 7.9-4.8 79-55.1 120.5-55.1 41.5 0 116.9 71.7 122.2 87.5 5.3 16.2 27.3 58.6 21.8 69-5.5 10.5-255.3-46.7-289.1-59.9z"/><path class="r" d="m1951.9 695.7c0 0 66 22.5 129.1 22 63.2-0.5 105.1-17.3 107.6-19.8 2.5-2.5-58.3-67.8-100.9-69.4-42.6-1.6-127.4 55.5-135.8 67.2z"/><path class="w" d="m2010.4 744.3c0 0 45.8-19 108-28.9 62.3-9.9 83-8.2 83-8.2 0 0 28.7 57.7 24.3 74.2-4.5 16.5-215.3-37.1-215.3-37.1z"/><path class="K" d="m2001.6 708.8c0 0 49.9 7.9 51.5 8.9 1.6 1.1 9.9 5.3 10.9 7.2 1 1.8 34.3-5.9 36.8-6.3 2.5-0.5 49.4-9.8 49.4-9.8l28.8-6.6c0 0-37 6.1-41 7.3-4.1 1.3-47.5 8.5-57 8.2-9.5-0.3-47.2-5.5-48.2-5.5-1 0-31.2-3.4-31.2-3.4z"/><path class="L" d="m2081.2 629.7c-7.4 1-14.8 1.5-22 3.6-3 0.9-15 3.5-15 7.6-0.1 2.3 3.6 2.2 4.1 3.9 0.2 0.9-1.3 2.5-1.2 3 1.9 6.3 18.5 4.2 23.6 4.4 4.7 0.2 10.1 0.6 13-4.2-2.1-2.8-8.6-2.6-8.5-6.6 0.1-5.9 12.7-5.3 16.1-4.5-1.9 0.4-6.5 2.1-7.8 4.4 2.6 2.2 6.3 2.4 9.3 3.7-4.7 6.1-1.3 7.3 6.4 9.2 6.6 1.6 18.5 1.5 24.1 5-2.3 2.3-6.3 7.1-9.1 8.2-2.3 0.8-4.6-0.7-7.6-1.2-5.6-1-11.1-0.9-16.6-0.2-7.5 1-21.2 2-26.2 8.2 1.8 1.7 5.1 1.7 7.7 2.1 0 1.6 1.4 4.1 0.8 5.5-1.5 3.6-9 2.7-6.4 8.5-6.2 4.8-19.8 4.3-24 11.6-1.4 2.4-2.3 2.3 0.5 3.6 4.2 2 15.2-1.1 19.7-1.4 13.8-1 26.8-0.3 40.4 1.9 6.8 1 13.6-2.1 20.4-4.1 4.7-1.4 27.7-5.3 25.6-13.2-1.3-4.9-12-5.5-8.3-11.6 5-8.2 16.1-0.7 21.9 1.5 3.5-4.3-4.5-12.4-7.4-15.1-6.9-6.2-14.8-10.6-22.8-15.2-19.2-11.1-40.3-21.9-63.2-18.2z"/><path class="M" d="m2081.2 630.6c-7.4 1-14.8 1.5-22 3.6-3 0.9-15 3.5-15 7.6-0.1 2.3 3.6 2.2 4.1 3.9 0.2 0.9-1.3 2.5-1.2 3.1 1.9 6.2 18.5 4.1 23.6 4.4 4.7 0.2 10.1 0.6 13-4.3-2.1-2.8-8.6-2.6-8.5-6.6 0.1-5.9 12.7-5.3 16.1-4.5-1.9 0.4-6.5 2.1-7.8 4.4 2.6 2.2 6.3 2.5 9.3 3.7-4.7 6.1-1.3 7.3 6.4 9.2 6.6 1.6 18.5 1.5 24.1 5.1-2.3 2.2-6.3 7-9.1 8.1-2.3 0.9-4.6-0.6-7.6-1.2-5.6-1-11.1-0.9-16.6-0.2-7.5 1-21.2 2-26.2 8.2 1.8 1.7 5.1 1.7 7.7 2.1 0 1.6 1.4 4.1 0.8 5.6-1.5 3.5-9 2.7-6.4 8.4-6.2 4.9-19.8 4.3-24 11.6-1.4 2.5-2.3 2.3 0.5 3.7 4.2 1.9 15.2-1.2 19.7-1.5 13.8-1 26.8-0.3 40.4 1.9 6.8 1.1 13.6-2.1 20.4-4.1 4.7-1.4 27.7-5.3 25.6-13.2-1.3-4.9-12-5.5-8.3-11.6 5-8.1 16.1-0.7 21.9 1.5 3.5-4.3-4.5-12.4-7.4-15.1-6.9-6.2-14.8-10.5-22.8-15.1-19.2-11.2-40.3-22-63.2-18.3z"/><path class="N" d="m2081.2 627.4c-7.4 1-14.8 1.5-22 3.6-3 0.9-15 3.5-15 7.6-0.1 2.3 3.6 2.2 4.1 3.9 0.2 0.9-1.3 2.5-1.2 3 1.9 6.3 18.5 4.2 23.6 4.4 4.7 0.3 10.1 0.7 13-4.2-2.1-2.8-8.6-2.6-8.5-6.6 0.1-5.9 12.7-5.3 16.1-4.5-1.9 0.4-6.5 2.1-7.8 4.4 2.6 2.2 6.3 2.4 9.3 3.7-4.7 6.1-1.3 7.3 6.4 9.2 6.6 1.6 18.5 1.5 24.1 5.1-2.3 2.2-6.3 7-9.1 8.1-2.3 0.9-4.6-0.6-7.6-1.2-5.6-1-11.1-0.9-16.6-0.2-7.5 1-21.2 2-26.2 8.2 1.8 1.7 5.1 1.7 7.7 2.1 0 1.6 1.4 4.1 0.8 5.5-1.5 3.6-9 2.7-6.4 8.5-6.2 4.9-19.8 4.3-24 11.6-1.4 2.5-2.3 2.3 0.5 3.6 4.2 2 15.2-1.1 19.7-1.4 13.8-1 26.8-0.3 40.4 1.9 6.8 1 13.6-2.1 20.4-4.1 4.7-1.4 27.7-5.3 25.6-13.2-1.3-4.9-12-5.5-8.3-11.6 5-8.1 16.1-0.7 21.9 1.5 3.5-4.3-4.5-12.4-7.4-15.1-6.9-6.2-14.8-10.6-22.8-15.2-19.2-11.1-40.3-21.9-63.2-18.2z"/><path class="O" d="m2043 645.3c-5.5-1.3-11.9 1.1-17 2.9-6.3 2.2-14.5 4.5-19.5 9.2 5.1 3.4 19.1 2.5 24.9 0.8 3.2-1 9.7-2.9 11.3-6.4 1.5-3.5-0.3-6.2 0.3-6.5z"/><path class="P" d="m2034.6 663c2.4-4.9 11.9-3.9 16.4-3.6-1.2 1.3-3 2.1-4 3.5-1 1.4-0.5 3-1.9 4.3-2.3 1.9-8.9 0.4-10.5-4.2z"/><path class="Q" d="m1992.9 682.7c-8.9-1.8-28 3.6-33.1 11.1 2.5 3.5 9.6 3.5 13.5 3.9 7.9 0.8 16.3 1.1 24.2 0.6 14.5-0.8 5.9-10.9-4.6-15.6z"/><path class="R" d="m2004.5 703.8c0.3-3.1 5.5-3.6 7.4-5.6 2.1-2.3 1.9-4.3 0.3-6.9-2.9-5.1-8.1-7.3-12.7-10.4-1.8-1.2-4-2.5-3.8-4.9 0.3-5.1 10.4-9 13.8-10.5 3.1-1.4 11.9-6.1 15.7-3.7 1.6 1.1 2.9 3.9 4.5 5.3 4.1 3.9 4.2 6.8 10.7 5.4 3.8-0.9 11-1.5 12.2-6.1 0.6-2.2-0.2-4.2 1.2-6.3 2.8-4 9.4-5.6 13.9-6.3 8.5-1.3 17.1 0 25.1 3-0.9 1.1-3.2 1-4.5 1.3-4.6 0.9-9.3 1.2-13.9 2.1-3.2 0.7-9.4 2-11 5.3-1.3 2.4 0.3 3.8 0.7 6.1 0.4 2.6-0.9 1.7-1.3 4.1-0.5 2.7 3.2 4.7 3.8 7.2-2.2 0.8-4.5 1.2-6.5 2.5-2.6 1.7-2.2 3-3.5 5.3-2.2 3.5-7.7 3.7-11.3 4.6-4.8 1.1-14.1 2.3-17.5 6.2 4.3 5.1 12.7 6.8 18.9 8 3.8 0.8 8.3 1.2 12.1 0 1.3-0.3 1.9-1 3-1.4 5.6-1.8 12.9-0.3 18.7-0.3 7.5 0 14.7 0.4 21.9 2.2 10 2.4 21.4-2 30.1-7 5.9-3.5 11.1-4.4 17.8-5.4 4.4-0.6 6.1-1.2 3.7-5.5-1.3-2.1-4.7-6.4-1.9-8.8 4.7-4 17 2.5 21.3 4.7 1.8 0.9 7.5 3.1 8 5.6 0.6 2.6-4.4 6.8-6.2 7.8-6.7 3.7-16.5 3.7-23.9 5-11.4 1.9-22.6 4.9-34 7-18.2 3.5-35.3 3.6-53.7 1.4-10-1.1-19.7-3.7-29.6-5.4-8.3-1.4-16.2-4.8-29.5-5.6z"/><path class="w" d="m2120.9 716.4c-9.7 2.4-19.1 5.9-28 10.4-8.4 4.3-17.8 8.6-7.8 16.9 8.8 7.3 21.8 12.4 32.5 16.4 16.3 6 34.1 10 51.4 6 11.7-2.7 23.1-10.4 25.7-22.8 1.8-8.3-1.7-14.7-9.1-18.8-9.4-5.2-22.4-7-33-8.5-10.7-1.5-19.9 0.4-31.7 0.4z"/><path class="S" d="m2056 719.4c0 0 16.1-3.6 25-1.7 9 1.9 9 1.9 9 1.9 0 0-22.2 5.3-24.1 5.3-1.9 0-9.9-5.5-9.9-5.5z"/><path class="T" d="m1887.3 736.4c0 0 106.9 16.1 183 32.4 76 16.3 243.3 41.5 243.3 41.5 0 0-207.9-58.4-426.3-73.9z"/><path class="s" d="m1989 739c0 0 101.9 25.8 142.5 32.5 40.5 6.7 93.5 21.1 103.7 20.1 10.1-1.1-18.2-52.6-18.2-52.6 0 0 7.6 34.9 3.2 42.4-4.4 7.5-151.5-24.8-151.5-24.8z"/><path class="U" d="m1942.1 751.2c0 0-4.7 90.5 21.1 139.5 12 22.8 206.9 33.9 225.8 37.8 18.8 3.9 45.1-113.2 35-127.6-10.4-14.9-207.8-40.6-281.9-49.7z"/><path class="V" d="m2317.8 755.8c-58.1 19.4-39.3 36.6-4.8 41.4 34.6 4.8 49.5 3.2 54.8-20.7 5.4-24-20.1-30.7-50-20.7z"/><path class="r" d="m2283.4 778.6c-5.4 5.2 22.1 14 46.3 10.4 24.3-3.5 31.7-20.2 32.6-25.8 1-5.5-36.3-25.7-78.9 15.4z"/><path class="s" d="m2284.8 787.7c0 0 39.9 7.5 59.6-3.2 19.7-10.7 20.5-25.1 20.5-25.1 0 0 4 4.6 2.5 18.9-1.5 14.3-12.9 27.3-27.5 26.5-14.7-0.9-44.5-9.5-55.1-17.1z"/><path class="W" d="m2772.9 800.9c-16.3-4.4-26.9-1.3-41.5-1.8-11.4-0.3-22-4-33-6.5-8.9-2.1-30.3-9.3-39-6.1-10 3.6-6 8.5-12.4 14.8-11.5 11.6-34.6 12.2-13.4 28.2 4.3 3.3 7.9 0.9 9.5 8 1.4 6.4-0.5 9.7-8.2 8.9 0.6 0.9 1.5 2.4 2.1 3.1-6.7 1.4-39.1-2.9-41.7 2.4-15.7 1.6-31.9-3.3-47.6-4.3-17.5-1.1-35.5-0.4-53 0.4-16.6 0.7-30.6-3.3-46.9-5.9-15.7-2.5-31.9-0.3-47.8-1.7 0.8 1.1 1.8 4.9 3.6 6.7-26.2 1.4-51.4 2.9-77.8 0.9-19.1-1.5-39.4-5.7-58.6-4.1 25.9-8.6 54.4 4.8 80.8 1.1 11.8-1.7 27.2-0.9 37.9-4.7 3-1.1 6.1-5.2 10.1-6.8 15.5-6 38.1-3.4 54.3-2.8 35.5 1.2 70.8 6.8 106.3 8.6 16.7 0.9 46.7 15.3 60.8 2.7 6.4-5.6 5.3-13.5 3.2-20.5-1.7-5.4-7.8-10.8-5-16.2 1-2 11-7.9 13.4-11.4 8.4-11.9 15-21.8 31.4-20.3 20.5 1.9 40.3 8.7 61.6 9.7 13.9 0.7 27.8 3 41.8 1.5 6.5-0.6 13.4-3.5 20-2.9 6.1 0.4 11.5 2.4 16.4 6-6.6 2.9-17.7 4.1-27.3 13z"/><path class="X" d="m2719.3 795.6c-13.3 4-28.7 2.9-41.6 9-7.9 3.9-10.8 10.1-16.9 15.1-4.3 3.5-9.7 3.3-14.6 6.2-20.1 12.1 15.2 22.2 9.3 34.9-2.6 5.6-8.3 5.8-13.9 6.3-7.1 0.5-14.9-1.7-21.3 1.7-2.9 1.5-2.7 5-5.9 6.2-12.5 4.9-36.3-6.6-48.9-8.9-9.3-1.7-19-2.6-28.3-1.1-3 0.5-8.1 3.2-10.8 3-7-0.6-8.8-6.1-14.3-10.4-11-8.6-25.9-14.3-39.9-14.7 6.4 3.9 13 6.7 18.7 11.6 3.7 3.2 6.9 10.2 10.5 12.5 3.7 2.5 7.4 1.6 12.6 2 13.1 0.9 26.6 2.7 39.2 6.1 7.1 1.9 9.6 2.5 17.4 1.8 21.3-2 42.1-1.3 63.6-0.5 18.9 0.7 46.9 9.2 60.2-7.6-3.3-4.8-11.8-10.3-16.3-14.2-7.4-6.5-26.5-7.7-23.9-18.8 4.1-17.4 24.2-12.6 35.4-13.3 10.2-0.7 40.2-15.5 29.7-26.9z"/><path class="Y" d="m287 714.3c5.7 1.2 18.7 2.1 22.6 6.6 4.8 5.5 0.4 8.1 2.4 13.7 3.1 8.8 15.9 10.3 18.6 18-7.8-0.1-10.3 2.1-15.7 5.7-0.7 0.4-1.8 3.2-3.2 4.1-7.6 5.4-27.4 4.5-37.1 5-23.3 1.3-46.5 5-69.5 8.7-15.9 2.6-31.8 4.4-47.6 7.8-11.2 2.4-29.6 5.1-37.7 13.5 2.2 1.7 6 3.8 7.8 6.2 1.8 2.5-3 3.4-0.1 6.3 5 4.8 21.7 3.1 28.3 3.3 11.9 0.5 24.7-2.1 35.4 3.6 24.2 12.7 50.5 5.2 76.9 0.4 20.1-3.7 41.9 0.4 61.5-4.7-33.4 0.3-67.3 4.8-100.8 3.6-14.5-0.5-24.5-10.3-39.2-11.6-10.4-0.9-31.3 1.3-39.2-4.4 8.1-19.5 46.7-12.5 63-14.8 13.4-1.9 26.2-6.8 39.8-6.8 7.1 0.1 13.9 1.9 20.6 0 14.9-4.2 26-11.2 42.6-11.6 9-0.2 17.3 1.2 25.9 3.5-5.7-9.1 0.8-15.3 3.6-24-8.3-5-18-6.1-21.8-16.8-2.3-6.5-1.4-13.5 4.9-16.9-9.5-0.5-19.9 0.9-42 1.6z"/><path class="Z" d="m865.8 658c9 4.8 34.1 2.4 38.2 11.7 1.4 3.3-2 5.1-1.6 8.1 1.1 9.4 5.4 20.7 9.9 29.3 3.1 6 3.2 5 10.8 9.7 5.4 3.3 6.1 3.6 8.1 8.9 1.6 4 1.7 6.6 1 10.9-0.7 3.7-5.6 9.9-4.9 13.2 2.2 9.4 22.6 8.5 13.8 18.3-6.7 7.4-30.4 8.5-39.3 10.7-11 2.8-21.6 9-32.4 11.5-18.3 4.3-45.9-8.1-60.1 7.2-3 3.3-3.6 8.6-6.8 11.5-4.5 4.2-13.6 3.6-18.8 6 13 0.7 41.9-3.1 51 7.4-2.4 2.4-1.3 6.1-2.8 8.1-4.1 5.5-8 4.4-16.6 5.2-26.9 2.6-53.1 9.8-79.8 11.9 4.3 2.1 13.7-1.2 19.1-1.8 13.1-1.4 26.4-1.9 39.6-3.1 10.1-1 38.7 0.5 46.6-7.4 1.8-1.7 6.5-14.1 5.9-15.2-4.6-7.9-27.5-2.6-35.3-8.4 1-6.4 8.5-10.7 14.4-11.7 5-0.9 9.7 1.9 14.5 1.9 5.8-0.1 10.3-2.1 15.8-3.5 14.5-3.6 24.9-1.5 38.3-8.1 9.5-4.8 19.1-7.5 29.5-9.7 6.8-1.4 22.9-2.1 28.5-7.1 5.1-4.4 4.5-14.2-0.6-18.2-8.7-6.8-20 0.2-18.9-15.9 0.7-9.2 7.5-17.9 7.9-27 0.5-14.9-11-17.7-22.1-13.4-2.5-4.8-5.8-9.8-7.2-15-2-7.3-0.5-15-4.5-21.9-11-18.7-34.9-3-41.2-4.1z"/></g></svg>