<svg version="1.2" xmlns="http://www.w3.org/2000/svg" viewBox="0 0 2817 943" width="2817" height="943"><defs><clipPath clipPathUnits="userSpaceOnUse" id="cp1"><path d="m2825.17 942.89h-2828.67v-942.89h2828.67z"/></clipPath><linearGradient id="P" gradientUnits="userSpaceOnUse"/><linearGradient id="g1" x2="1" href="#P" gradientTransform="matrix(0,-122.457,639.771,0,1694.883,945.681)"><stop stop-color="#fff"/><stop offset="1" stop-color="#ff6b51"/></linearGradient><linearGradient id="g2" x2="1" href="#P" gradientTransform="matrix(0,-128.623,619.682,0,1667.042,941.961)"><stop stop-color="#bfffce"/><stop offset=".99" stop-color="#ffffea"/></linearGradient><linearGradient id="g3" x2="1" href="#P" gradientTransform="matrix(0,-260.965,857.133,0,1723.676,934.043)"><stop stop-color="#a93d54"/><stop offset="1" stop-color="#b85f1d"/></linearGradient><linearGradient id="g4" x2="1" href="#P" gradientTransform="matrix(857.379,0,0,145.457,1334.836,641.275)"><stop stop-color="#e58657"/><stop offset="1" stop-color="#e57734"/></linearGradient><linearGradient id="g5" x2="1" href="#P" gradientTransform="matrix(739.249,0,0,113.485,1400.292,655.098)"><stop stop-color="#b85f1d"/><stop offset="1" stop-color="#a93d54"/></linearGradient><linearGradient id="g6" x2="1" href="#P" gradientTransform="matrix(540.327,0,0,72.483,1505.561,694.7)"><stop stop-color="#e5ab98"/><stop offset="1" stop-color="#b35454"/></linearGradient><linearGradient id="g7" x2="1" href="#P" gradientTransform="matrix(221.065,0,0,65.934,1694.302,684.272)"><stop stop-color="#e36d54"/><stop offset="1" stop-color="#e5771d"/></linearGradient><linearGradient id="g8" x2="1" href="#P" gradientTransform="matrix(180.588,0,0,43.12,1418.6,659.96)"><stop stop-color="#e36d54"/><stop offset="1" stop-color="#e5771d"/></linearGradient><linearGradient id="g9" x2="1" href="#P" gradientTransform="matrix(107.919,0,0,44.448,1491.269,664.025)"><stop stop-color="#8b3824"/><stop offset="1" stop-color="#a44231"/></linearGradient><linearGradient id="g10" x2="1" href="#P" gradientTransform="matrix(115.023,0,0,52.363,1802.012,697.679)"><stop stop-color="#8b3824"/><stop offset="1" stop-color="#a44231"/></linearGradient><linearGradient id="g11" x2="1" href="#P" gradientTransform="matrix(744.953,0,0,248.33,1340.541,685.713)"><stop stop-color="#b35454"/><stop offset="1" stop-color="#fff"/></linearGradient><linearGradient id="g12" x2="1" href="#P" gradientTransform="matrix(766.172,0,0,127.384,1355.07,730.415)"><stop stop-color="#b35454"/><stop offset="1" stop-color="#e5ab98"/></linearGradient><linearGradient id="g13" x2="1" href="#P" gradientTransform="matrix(643.668,0,0,124.101,1378.188,792.784)"><stop stop-color="#b35454"/><stop offset="1" stop-color="#e5ab98"/></linearGradient><linearGradient id="g14" x2="1" href="#P" gradientTransform="matrix(14.597,0,0,57.804,1498.746,770.782)"><stop stop-color="#b35454"/><stop offset="1" stop-color="#e5ab98"/></linearGradient><linearGradient id="g15" x2="1" href="#P" gradientTransform="matrix(28.118,0,0,55.398,1665.628,652.596)"><stop stop-color="#b35454"/><stop offset="1" stop-color="#e5ab98"/></linearGradient><linearGradient id="g16" x2="1" href="#P" gradientTransform="matrix(166.6,0,0,9.223,1489.31,654.802)"><stop stop-color="#b35454"/><stop offset="1" stop-color="#fff"/></linearGradient><linearGradient id="g17" x2="1" href="#P" gradientTransform="matrix(275.916,0,0,74.278,1863.625,685.551)"><stop stop-color="#fff"/><stop offset="1" stop-color="#b35454"/></linearGradient><linearGradient id="g18" x2="1" href="#P" gradientTransform="matrix(153.233,0,0,96.854,1355.07,730.415)"><stop stop-color="#b35454"/><stop offset="1" stop-color="#fff"/></linearGradient><linearGradient id="g19" x2="1" href="#P" gradientTransform="matrix(162.807,0,0,50.125,1677.944,696.579)"><stop stop-color="#b35454"/><stop offset="1" stop-color="#fff"/></linearGradient><linearGradient id="g20" x2="1" href="#P" gradientTransform="matrix(152.713,0,0,27.255,1423.13,663.687)"><stop stop-color="#fff"/><stop offset="1" stop-color="#b35454"/></linearGradient><linearGradient id="g21" x2="1" href="#P" gradientTransform="matrix(0,-87.15,418.042,0,1708.239,902.903)"><stop stop-color="#b35454"/><stop offset="1" stop-color="#ff8961"/></linearGradient><linearGradient id="g22" x2="1" href="#P" gradientTransform="matrix(177.776,0,0,62.307,1958.679,703.682)"><stop stop-color="#b35454"/><stop offset="1" stop-color="#fff"/></linearGradient><linearGradient id="g23" x2="1" href="#P" gradientTransform="matrix(0,-120.692,203.866,0,1512.385,855.836)"><stop stop-color="#fff"/><stop offset="1" stop-color="#b35454"/></linearGradient><linearGradient id="g24" x2="1" href="#P" gradientTransform="matrix(59.442,-287.608,597.708,123.533,1463.027,864.94)"><stop stop-color="#a93d54"/><stop offset="1" stop-color="#b85f1d"/></linearGradient><linearGradient id="g25" x2="1" href="#P" gradientTransform="matrix(55.179,-266.98,596.993,123.385,1472.168,866.829)"><stop stop-color="#b35454"/><stop offset="1" stop-color="#fff"/></linearGradient><linearGradient id="g26" x2="1" href="#P" gradientTransform="matrix(99.466,0,0,11.399,1419.249,752.495)"><stop stop-color="#fff"/><stop offset="1" stop-color="#b35454"/></linearGradient></defs><style>.a{opacity:.7;mix-blend-mode:multiply;fill:url(#g1)}.b{fill:url(#g2)}.c{fill:url(#g3)}.d{fill:url(#g4)}.e{fill:url(#g5)}.f{opacity:.87;mix-blend-mode:multiply;fill:url(#g6)}.g{fill:url(#g7)}.h{fill:url(#g8)}.i{fill:url(#g9)}.j{fill:url(#g10)}.k{fill:#ce4faf}.l{opacity:.87;mix-blend-mode:multiply;fill:url(#g11)}.m{opacity:.87;mix-blend-mode:multiply;fill:#af4faf}.n{opacity:.87;mix-blend-mode:multiply;fill:url(#g12)}.o{opacity:.87;mix-blend-mode:multiply;fill:url(#g13)}.p{opacity:.87;mix-blend-mode:multiply;fill:url(#g14)}.q{opacity:.87;mix-blend-mode:multiply;fill:url(#g15)}.r{opacity:.5;mix-blend-mode:soft-light;fill:#ffe543}.s{opacity:.87;mix-blend-mode:multiply;fill:url(#g16)}.t{opacity:.87;mix-blend-mode:multiply;fill:url(#g17)}.u{opacity:.5;mix-blend-mode:multiply;fill:url(#g18)}.v{fill:#b84a36}.w{fill:#be6436}.x{opacity:.3;mix-blend-mode:multiply;fill:url(#g19)}.y{opacity:.3;mix-blend-mode:multiply;fill:url(#g20)}.z{opacity:.5;mix-blend-mode:soft-light;fill:#ff8d43}.A{fill:#b7614f}.B{fill:#903a13}.C{fill:#6d1e1e}.D{fill:#b25542}.E{fill:#7f251e}.F{fill:#cc7342}.G{opacity:.3;mix-blend-mode:multiply;fill:url(#g21)}.H{opacity:.4;mix-blend-mode:multiply;fill:url(#g22)}.I{mix-blend-mode:multiply;fill:url(#g23)}.J{fill:url(#g24)}.K{opacity:.87;mix-blend-mode:multiply;fill:url(#g25)}.L{opacity:.3;mix-blend-mode:soft-light;fill:#ffe543}.M{opacity:.29;mix-blend-mode:soft-light;fill:#ffe543}.N{fill:#e17a54}.O{fill:#ffa943}.P{opacity:.87;mix-blend-mode:multiply;fill:url(#g26)}.Q{mix-blend-mode:multiply;fill:#af4faf}</style><g clip-path="url(#cp1)"><path class="a" d="m1391.5 823.2l2 22.5c4.8 3.5 42.6 3.8 60.5 11.1 26.5 10.7-50.7-6.7-60.3-7.9l-7 96.8 639.8-3.7-4.6-40.4z"/><path class="b" d="m1387.7 817.1c0 0-15.2 3.8-17 6.1-2.6 3.2 33.8 10.7 134.9 34.6 101 23.9 199.1 61.5 267.4 72.6 68.2 11.2 160.3 15.9 186.8 6.7 114.4-39.7-118.1-69.3-288.8-102.6-170.7-33.2-283.3-17.4-283.3-17.4z"/><path class="c" d="m2192 762c0 0-35.7 40.1-86.8 81.6-6.1 5-12.6 10-19.2 15-0.2 0.2-0.3 0.3-0.5 0.4-54.6 41.2-121.9 79-182 74.7-127.7-9-507.3-101.3-513.4-111.5-1.2-2-4-8.9-7.8-18.6-11.5-29.8-31.9-86.6-41.8-114.4-3.5-9.9-5.7-16.1-5.7-16.1z"/><path class="d" d="m1334.8 673.1c0 0 131.7 48.9 345.5 87.1 320.7 57.2 504.6 4.5 511.7 1.8 7.1-2.8-141.8-68.8-408.7-100.2-205.2-24.1-306.6-20.3-306.6-20.3z"/><path class="e" d="m1400.3 677.5l89.6-22.4c0 0 389.6-0.6 649.6 99.4 0 0-275.9 62.9-739.2-77z"/><path class="f" d="m1505.6 694.7c0 0 126.5 8.9 315.9 33 194.8 24.8 224.4 38.3 224.4 38.3l-21 1.2c0 0-45.3-20.3-220.7-41-158-18.7-291.1-29.9-291.1-29.9z"/><path class="g" d="m1663.6 741.4l148.5-57.1c0 0 53.6 4.3 96.1 13.4l-138.1 59.5c0 0-77.4-11.5-106.5-15.8z"/><path class="h" d="m1491.3 703.1l107.9-39.1c0 0-54.1-4.2-103.6-4l-77 23.1z"/><path class="i" d="m1599.2 664v13.5l-86.8 31-21.1-5.4z"/><path class="j" d="m1908.2 697.7l-1 18.3-100.3 44.6-36.8-3.4z"/><path class="k" d="m2086 858.6c-0.2 0.2-0.3 0.3-0.5 0.4-54.6 41.2-121.9 79-182 74.7-127.7-9-507.3-101.3-513.4-111.5-1.2-2-4-8.9-7.8-18.6 13.2 18.8 38.3-13.8 38.3-13.8 0 0 27.3 43.7 68.7 53.2 41.4 9.5 52.8-19.8 52.8-19.8 0 0 24.9 40.4 78.5 53.9 53.6 13.5 73.1-17 73.1-17 0 0 37.5 39.9 84.9 48 47.5 8.1 63.5-24.3 63.5-24.3 0 0 26.5 35.5 76.4 38.1 49.9 2.5 134-61.8 134-61.8 0 0 2.8 19 33.5-1.5z"/><path class="l" d="m2085.5 859c-54.6 41.2-121.9 79-182 74.7-127.7-9-507.3-101.3-513.4-111.5-4.9-8.1-36.4-96.1-49.6-133l1.4-3.5c0 0 350.1 95.8 500.2 137.5 127.9 35.6 222.7 44.3 243.4 35.8z"/><path class="m" d="m1599.2 677.5l-35 43.2-51.8-12.2z"/><path class="m" d="m1907.2 716l-48.6 48.1-51.7-3.5z"/><path class="n" d="m1355.1 730.4c0 0 307.6 78.9 482.2 113.1 174.6 34.3 283.9-11.8 283.9-11.8 0 0-84.9 46.6-279.1 15.3-194.2-31.3-479.7-112.6-487-116.6z"/><path class="o" d="m1378.2 792.8c0 0 297.1 80.2 432.1 108.8 135 28.7 211.6 0.1 211.6 0.1 0 0-63.4 34.9-226.2-1.1-162.8-36.1-417-106.5-417-106.5z"/><path class="p" d="m1508.3 827.3l-9.6-56.5c0 0 8.5 45.4 14.6 57.8z"/><path class="q" d="m1672.5 708l-6.9-44 28.1-11.4c0 0-19.1 7.6-21.2 11.4-2.1 3.9 0 44 0 44z"/><path class="r" d="m1667.1 741.9c0 0 100 7.8 113.4 6.4 13.4-1.4 127.7-50.6 127.7-50.6 0 0-64.1-7.7-94.3-9.1-30.3-1.5-146.8 53.3-146.8 53.3z"/><path class="r" d="m1420.8 683.4c0 0 42.5 13.3 63 15 20.6 1.6 112.4-34.4 112.4-34.4 0 0-96.1-2.9-99.4-3.2-3.4-0.2-76 22.6-76 22.6z"/><path class="s" d="m1489.9 655.1l-0.6 6.7c0 0 14.8-1.8 16.3-1.8 1.4 0 93.6 4 93.6 4l56.7-1.5c0 0-115.4-9.5-166-7.4z"/><path class="t" d="m1863.6 685.6c0 0 107.1 22.8 171 41 63.9 18.1 73.5 33.2 73.5 33.2l31.4-5.3c0 0-118.3-46.5-275.9-68.9z"/><path class="u" d="m1355.1 730.4l143.3 43 9.9 53.9-130.1-34.5z"/><path class="v" d="m1488.2 702.3c0 0 47.8-16.7 60.9-20.8 13-4 33.3-11.4 33.3-11.4l-88.8 33.6z"/><path class="v" d="m1764.4 756.4l126-51.1-117.5 52.1z"/><path class="w" d="m1487.3 718.5c0 0 68.3 19.7 87.3 25.3 19 5.6 94.1 14.3 94.1 14.3z"/><path class="r" d="m1551.2 729.7c0 0 146.3 39.1 271.3 50.1 125.1 10.9 197.1-9 197.1-9 0 0-76.9 1.6-212.7-10.2-135.8-11.9-255.7-30.9-255.7-30.9z"/><path class="x" d="m1677.9 742.8c0 0 71.2-39 123.6-45.1 77.7-9.1 26.5 40.9-37.1 47.2-63.6 6.4 10.8-40.6 38.2-37.5 27.5 3.1 0.5 17.9-15 17.3-15.5-0.5-10.3-6.2-10.3-6.2 0 0 0.1 6.4 14.5 4.2 14.3-2.2 21.4-13-2.3-10.8-23.8 2.1-30 13.8-23.3 19.4 6.7 5.7 54.5-1 62.1-17.8 7.6-16.9-31.5-18.1-65.6-2.4-34.2 15.8-63.3 35.6-63.3 35.6z"/><path class="y" d="m1430.7 686.4c0 0 37.6-14.7 73.4-18.4 23-2.5 60.5-1.5 43.7 6.4-25.9 12.2-62.3 15.8-59.6 7.1 2.7-8.7 23.2-8.4 23.2-8.4 0 0-19.3-3.6-33.5 7.1-14.2 10.7 17.2 15 51.1 5.5 34-9.5 46.8-21.6 46.8-21.6 0 0-50.6-1.6-79.9 1.6-29.3 3.1-72.8 18.6-72.8 18.6z"/><path class="z" d="m1750.8 778.6c0 0 125 65.9 223.3 74.4 98.4 8.5 168.2-74.4 168.2-74.4 0 0-169.3 22.2-391.5 0z"/><path class="A" d="m1498.7 770.8c0 0 155.7 41.9 297.3 70.4 141.6 28.5 234 13.3 234 13.3 0 0-84.8 8.2-192.7-8.3-108-16.5-338.6-75.4-338.6-75.4z"/><path class="A" d="m1372.5 736c0 0 122.4 35.2 123.6 36 1.1 0.9 3.8 9.8 3.8 9.8l-2-11.2z"/><path class="B" d="m1497.9 770.6l-1.8 1.4 10.7 47.3z"/><path class="C" d="m1575.8 785l-18-11.7c0 0 30.5 8.8 40 16.5 9.6 7.7 8.8 7.5 8.8 7.5z"/><path class="C" d="m1634 780.6c0 0 5.5 6.1 7.2 7.3 1.7 1.3 16.9 7.2 16.9 7.2 0 0-14.2-11.4-24.1-14.5z"/><path class="D" d="m1635 781.7c0 0 10.7 7.3 12 8.4 1.4 1.1 8.8 4.1 8.8 4.1 0 0-12.2-4.4-14-5.3-1.7-0.9-6.8-7.2-6.8-7.2z"/><path class="D" d="m1560.9 775.3c0 0 15.7 11.9 16.8 12.7 1.1 0.8 23 7 23 7 0 0-19.4-7.3-21.8-8.9-2.5-1.6-18-10.8-18-10.8z"/><path class="E" d="m1984 828.6c0 0 33.1-4.2 54.4-9.2 21.3-5 38-23.1 38-23.1 0 0-21.7 24.4-92.4 32.3z"/><path class="E" d="m2024.9 837.6c0 0 16.7-4.5 23.5-7.1 6.8-2.7 15.6-7.3 15.6-7.3 0 0-8.2 10.4-39.1 14.4z"/><path class="F" d="m1984 828.6c0 0 38.6-3.4 56.8-8.7 18.2-5.4 29.4-17.8 29.4-17.8 0 0-13.8 12.3-30 16.6-19.7 5.4-56.2 9.9-56.2 9.9z"/><path class="F" d="m2027.7 837.2c0 0 10-0.9 19.9-3.5 9.8-2.7 14.2-8.4 14.2-8.4 0 0-6.9 4.8-16 7.7-9.1 2.8-18.1 4.2-18.1 4.2z"/><path class="G" d="m1508.3 827.3c0 0 99.5-19.2 172.1-8 72.6 11.2 188.9 38.1 236.8 67 47.9 28.9-102 16.5-214.7-9.7-112.8-26.2-41.9-51.7 39.9-33.1 81.9 18.7 85 37.9 85 37.9 0 0-70.6-39.8-129.5-34.9-59 5 69.3 50.4 146.2 46.4 76.9-4.1-53.5-66.1-163.7-67.6-110.2-1.5-159.9 5.1-159.9 5.1z"/><path class="H" d="m1958.7 747.4l1.1-43.7c0 0 136 34.9 176.7 51.4 0 0-49 8.9-90.6 10.9z"/><path class="I" d="m1650 738.3l-30.3 9.1c0 0-81.3 83.5-103.6 103.2-22.3 19.6-76.3-20.9-69.3-34.5 7-13.6 76.5-57.2 76.5-57.2l109.7-23.8z"/><path class="J" d="m1885.5 673.9c-0.3 0.6-1.9 1.5-4.7 2.6-40.6 15.8-355 80.8-360.1 83.9-5.5 3.3-37 25.5-44 29.4-7.1 4-184.4 41.6-197.4 37.2-13.2-4.5-40.8-38.1-38.6-44.8q0.3-1 2.6-2.1c24.5-12.1 198.3-43.6 208.6-43.6 10.9 0 58.8 1 60.7 1.5 1.8 0.5 359.6-87.8 367.4-86.8 7.6 1 10.4 12.6 5.5 22.7z"/><path class="K" d="m1885.5 673.9l-4.7 2.6c-40.6 15.8-355 80.8-360.1 83.9-5.5 3.3-37 25.5-44 29.4-7.1 4-184.4 41.6-197.4 37.2-13.2-4.5-40.8-38.1-38.6-44.8q0.3-1 2.6-2.1c4.8 3.3 31.6 21.8 39.3 25.2 8.5 3.7 183.9-27.4 193.9-31.8 9.9-4.3 38.2-19.3 43.6-21.6 95.1-10.3 365.4-78 365.4-78z"/><path class="m" d="m1279.3 827c0 0 3.4-16.8 5.5-17.9 2.1-1.2 189.2-33.6 191-33.1 1.9 0.5 0.7 12.1 0.7 12.1 0 0-26.8 11.8-90 22.2-65.9 10.8-107.2 16.7-107.2 16.7z"/><path class="L" d="m1536.8 734.3c0 0 286.5-74.1 334.6-79.2 30-3.1 4.9 18.6-17.6 24.3-2.8 0.7-249.9 52-317 54.9z"/><path class="r" d="m1673 713.7c0 0 152.4-41.1 192.9-44.6 0 0-126.7 33.7-192.9 44.6z"/><path class="M" d="m1250.6 777.4c-10.5 3 31.6 27.6 43.6 27.9 11.8 0.2 192.1-37.8 202.5-42.8 10.2-5.1-70.4 3.8-73.6-1-3.2-4.7 51.3-23.5 51.3-23.5-25.1-3.4-201.1 33-223.8 39.4z"/><path class="N" d="m1378.2 792.8c0 0 80.5-20.4 92.2-22.7 11.8-2.4 33.1-10 33.1-10 0 0-28 16-30.6 15.9-2.5-0.1-94.7 16.8-94.7 16.8z"/><path class="N" d="m1268.6 797.1c0 0 17.4 5.6 22.3 6.1 4.9 0.6 21.2 0.4 21.2 0.4 0 0-28.9 5.8-29.9 5.4-1-0.3-13.6-11.9-13.6-11.9z"/><path class="O" d="m1512.6 738c0 0 353.5-82.4 362.9-83.2 9.4-0.8 12 4.6 12 4.6 0 0-0.5-8.2-6.6-9.9-6-1.8-368.3 88.5-368.3 88.5z"/><path class="P" d="m1518.7 752.5l-99.5 11.4c0 0 77.1-3.8 80.7-3.8 3.6 0 18.8-7.6 18.8-7.6z"/><path class="L" d="m1426.9 761.5c-3.7-0.5 34.3-13.6 53-18.2 18.8-4.6 43.7-4.1 46-2 2.2 2.1-21 11.5-42.8 14-21.7 2.5-56.2 6.2-56.2 6.2z"/><path class="Q" d="m1888.2 676.7c0 0-8.8 6.9-26.7 8.9l6.1 5-163.4 34.3 18.6-8.5 160.4-41.1z"/></g></svg>