<svg version="1.2" xmlns="http://www.w3.org/2000/svg" viewBox="0 0 2817 943" width="2817" height="943"><defs><clipPath clipPathUnits="userSpaceOnUse" id="cp1"><path d="m2825.17 942.89h-2828.67v-942.89h2828.67z"/></clipPath><linearGradient id="P" gradientUnits="userSpaceOnUse"/><linearGradient id="g1" x2="1" href="#P" gradientTransform="matrix(0,-822.772,2828.667,0,1291.174,943.142)"><stop offset=".03" stop-color="#005e5b"/><stop offset=".51" stop-color="#138754"/><stop offset="1" stop-color="#277dc2"/></linearGradient><linearGradient id="g2" x2="1" href="#P" gradientTransform="matrix(0,-181.726,1645.949,0,1402.154,497.785)"><stop offset=".03" stop-color="#00b3a6"/><stop offset="1" stop-color="#33ccc4"/></linearGradient><linearGradient id="g3" x2="1" href="#P" gradientTransform="matrix(0,-284.52,1022.427,0,1035.73,651.948)"><stop offset=".03" stop-color="#009739"/><stop offset="1" stop-color="#33c454"/></linearGradient><linearGradient id="g4" x2="1" href="#P" gradientTransform="matrix(0,-218.527,1444.566,0,1406.602,703.884)"><stop stop-color="#d19a54"/><stop offset="1" stop-color="#ea8b4c"/></linearGradient><linearGradient id="g5" x2="1" href="#P" gradientTransform="matrix(0,-392.202,642.915,0,1819.74,724.851)"><stop offset=".03" stop-color="#009739"/><stop offset="1" stop-color="#33c454"/></linearGradient><linearGradient id="g6" x2="1" href="#P" gradientTransform="matrix(1250.516,0,0,427.717,-3.5,226.948)"><stop stop-color="#396a37"/><stop offset="1" stop-color="#528d54"/></linearGradient><radialGradient id="g7" cx="0" cy="0" r="1" href="#P" gradientTransform="matrix(251.146,-42.932,42.932,251.146,1813.879,437.292)"><stop stop-color="#00ec13"/><stop offset="1"/></radialGradient><linearGradient id="g8" x2="1" href="#P" gradientTransform="matrix(0,-152.869,90.171,0,1962.29,135.348)"><stop stop-color="#fff"/><stop offset="1" stop-color="#3f5efc"/></linearGradient><linearGradient id="g9" x2="1" href="#P" gradientTransform="matrix(0,-31.194,35.124,0,1970.177,654.006)"><stop stop-color="#2e4361"/><stop offset="1" stop-color="#615f5e"/></linearGradient><linearGradient id="g10" x2="1" href="#P" gradientTransform="matrix(0,-140,1168.227,0,572.225,739.65)"><stop stop-color="#1e4457"/><stop offset="1" stop-color="#3f602a"/></linearGradient><linearGradient id="g11" x2="1" href="#P" gradientTransform="matrix(0,-217.133,901.476,0,2348.279,806.575)"><stop stop-color="#1e4457"/><stop offset="1" stop-color="#3f602a"/></linearGradient><linearGradient id="g12" x2="1" href="#P" gradientTransform="matrix(0,-121.261,90.63,0,611.511,395.885)"><stop stop-color="#fff"/><stop offset="1" stop-color="#3f5efc"/></linearGradient><linearGradient id="g13" x2="1" href="#P" gradientTransform="matrix(990.85,0,0,207.999,1834.317,480.691)"><stop stop-color="#528d54"/><stop offset="1" stop-color="#396a37"/></linearGradient><linearGradient id="g14" x2="1" href="#P" gradientTransform="matrix(0,-403.799,606.825,0,157.079,432.124)"><stop stop-color="#396a37"/><stop offset="1" stop-color="#0f6854"/></linearGradient><linearGradient id="g15" x2="1" href="#P" gradientTransform="matrix(0,-132.747,152.1,0,148.61,264.372)"><stop stop-color="#fff"/><stop offset="1" stop-color="#3f5efc"/></linearGradient><linearGradient id="g16" x2="1" href="#P" gradientTransform="matrix(0,-53.629,183.141,0,114.336,333.161)"><stop stop-color="#fff"/><stop offset="1" stop-color="#3f5efc"/></linearGradient><linearGradient id="g17" x2="1" href="#P" gradientTransform="matrix(0,-138.898,141.935,0,-9.379,210.934)"><stop stop-color="#fff"/><stop offset="1" stop-color="#3f5efc"/></linearGradient><linearGradient id="g18" x2="1" href="#P" gradientTransform="matrix(312.888,0,0,7.058,1562.637,609.605)"><stop stop-color="#ea8b4c"/><stop offset="1" stop-color="#b35154"/></linearGradient><linearGradient id="g19" x2="1" href="#P" gradientTransform="matrix(413.592,0,0,27.618,1138.153,612.866)"><stop stop-color="#b35154"/><stop offset="1" stop-color="#ea8b4c"/></linearGradient><linearGradient id="g20" x2="1" href="#P" gradientTransform="matrix(133.897,0,0,11.195,1497.139,549.374)"><stop stop-color="#b35154"/><stop offset="1" stop-color="#ea7c4c"/></linearGradient><linearGradient id="g21" x2="1" href="#P" gradientTransform="matrix(0,-87.89,773.683,0,437.811,737.533)"><stop stop-color="#d98b29"/><stop offset="1" stop-color="#b35154"/></linearGradient></defs><style>.a{fill:url(#g1)}.b{fill:url(#g2)}.c{fill:url(#g3)}.d{fill:url(#g4)}.e{fill:url(#g5)}.f{fill:url(#g6)}.g{opacity:.87;mix-blend-mode:multiply;fill:#af9891}.h{opacity:.5;mix-blend-mode:screen;fill:url(#g7)}.i{opacity:.7;mix-blend-mode:multiply;fill:url(#g8)}.j{fill:url(#g9)}.k{fill:url(#g10)}.l{fill:url(#g11)}.m{opacity:.7;mix-blend-mode:multiply;fill:url(#g12)}.n{fill:url(#g13)}.o{opacity:.5;mix-blend-mode:soft-light;fill:#ffca86}.p{fill:url(#g14)}.q{fill:#25dbb3}.r{opacity:.7;mix-blend-mode:multiply;fill:url(#g15)}.s{opacity:.7;mix-blend-mode:multiply;fill:url(#g16)}.t{opacity:.7;mix-blend-mode:multiply;fill:url(#g17)}.u{mix-blend-mode:soft-light;fill:#65c943}.v{fill:#70b172}.w{opacity:.3;mix-blend-mode:soft-light;fill:#65c943}.x{opacity:.5;mix-blend-mode:multiply;fill:#af9891}.y{fill:url(#g18)}.z{fill:url(#g19)}.A{fill:url(#g20)}.B{opacity:.8;mix-blend-mode:soft-light;fill:#8eae13}.C{fill:#939734}.D{fill:#ffe543}.E{fill:url(#g21)}.F{opacity:.3;mix-blend-mode:soft-light;fill:#ffed43}</style><g clip-path="url(#cp1)"><path class="a" d="m2825.2 943.1h-2828.7v-822.7c0 0 976.5 344.7 1426.8 344.7 296.3 0 1401.9-111 1401.9-111z"/><path class="b" d="m589.2 316.1c0 0 461.1 188.5 850.7 169.2 389.6-19.2 795.3-169.2 795.3-169.2 0 0-283.7 146.2-748.2 178.4-464.5 32.2-897.8-178.4-897.8-178.4z"/><path class="c" d="m956.1 453.9c0 0-295.4-72.3-337.2-85.1-41.7-12.9 49.8 69 106 101.1 0 0-126-23.5-144.5-32.6-18.5-9.1-72.2 193.1 215.1 212.3 287.4 19.3 406.5-86.9 528.3-121.9 121.8-35 262.7-47 262.7-47 0 0-333.4 48-630.4-26.8z"/><path class="d" d="m700.8 682.1c0 0 504.2-44.8 589.2-58.7 85.1-13.8-56.7 3.9-93.1-7.9-30.5-9.9 73.9-91.5 427.1-122 353.2-30.5 274.5 32.6 218.3 61.5-56.1 28.9 48.2 22.5 187.9 53 139.7 30.5 123.8 91.9 98 95.7-25.8 3.8-359.7-51.7-691.5-51.7-345.3 0-735.9 30.1-735.9 30.1z"/><path class="e" d="m1617.9 476.7c-3.2 0.3 242.6-5.9 280.1 8.6 37.5 14.6-63.3 71.7-62.1 81 1.2 9.2 290.1 46 342.5 70.6 52.5 24.6 82.4 88 82.4 88v-392.3c0 0-328.9 110.2-642.9 144.1z"/><path class="f" d="m-3.5 226.9c0 0 787.8 267.9 921.1 310.5 133.2 42.5 329.4 91.8 329.4 91.8 0 0-87.4 10.1-165.1 10.1-77.6 0-141.9 27-297.6 9.5-155.7-17.5-787.8-49.1-787.8-49.1z"/><path class="g" d="m1370.7 551.1c0 0-97 19.5-255 28.4-23 1.3-82.5-7.6-82.5-7.6l-110.2-32.8c0 0 97-5 142.9-8.3 244.2-17.5 304.8 20.3 304.8 20.3z"/><path class="g" d="m1423.1 497.2c0 0 102.1-5.6 115.6-6.9 13.5-1.2 29.7 7.4 48.4 6.6 18.7-0.8 147.1 12.8 147.1 12.8 0 0-19.2 21.4-22.9 21.1-3.6-0.3 105 17 144 17.1 0 0-37 20-47.2 22.6-10.2 2.7 126.1 17 177.6 35 51.4 18 62.7 22.8 62.7 22.8 0 0-59.3-37.8-135.9-49.9-76.6-12.1 17.6-52.5 17.6-52.5 0 0-42.3 1.8-44.4 1.8-2.1 0 12.7-37.5 12.7-37.5l79.2-65.5 6.4-17.8c0 0-63.5 30-167.9 50.3-104.3 20.2-393 40-393 40z"/><path class="h" d="m2065 394.4c10.5 61.1-93.5 129.9-232.2 153.6-138.7 23.7-259.6-6.7-270.1-67.8-10.4-61.1 93.6-129.9 232.3-153.6 138.7-23.7 259.6 6.6 270 67.8z"/><path class="g" d="m2080.7 567.8c28.6 1.6 57.7-1 86.5 0.2 45 2 86.6-5.6 130.6-13.6 45.9-8.3 91.6-14.2 138.2-18.3 15.4-1.4 31.7-4.8 47.2-4-18.1-10.7-48.3-12.5-68.8-15.5-51.2-7.5-100.6-11.6-152.4-7.8-50 3.7-97.4 15.8-146.6 24.2-34.8 6-69.1 15.5-102.6 26.8z"/><path class="i" d="m2063 102.1c0 0 30.6 22.6 50.3 32.7 19.6 10 23.7-106.8 23.7-106.8l-72-45.5h-18.2z"/><path class="j" d="m1968.6 643.3c-10.6 17.5 20.4 10.5 30 0.5 9.6-10.1-5.1-41.4-30-0.5z"/><path class="k" d="m-3.5 599.7c0 0 626.2 18.6 742.9 38.3 167.5 28.3 255.4 0 293.8 1 38.5 1.1 131.5-0.8 131.5-0.8 0 0-220.4 18.6-380.4 38.1-160 19.5-787.8 63.4-787.8 63.4z"/><path class="g" d="m675.6 547.7c0 0-82.9 18-97.9 22.3-15 4.3 73.5 48.7 144.3 62.1 70.7 13.4 154.4 11.7 154.4 11.7 0 0-33.9-0.5-80.5-8.1-46.5-7.6-120.3-88-120.3-88z"/><path class="l" d="m1923.7 589.4c0 0 134.5 10.8 198 26.1 401 96.5 703.5 79.3 703.5 79.3v111.8c0 0-642-98.3-650-100-8-1.7-73.3-54.2-126.8-78.3-53.5-24-124.7-38.9-124.7-38.9z"/><path class="m" d="m660.9 330.7c0 0 25.7 24 37.9 35.3 12.3 11.2 39.1 29.9 39.1 29.9 0 0-20.1-35.4-35-56.8-14.9-21.5-55.6-64.5-55.6-64.5z"/><path class="n" d="m1834.3 573c0 0 88.3 8.5 241.2-3.5 153-12.1 749.7-88.8 749.7-88.8v186.7c0 0-252.4 78.4-817.8-65.6-82-20.9-150.6-22.9-173.1-28.8z"/><path class="g" d="m2284.8 622.5c0 0 137.2 21 259.1 25.9 121.8 4.8 281.3 11.3 281.3 11.3v-121.5c0 0-142.1 1.8-305.2 25.7-163.1 23.8-235.2 58.6-235.2 58.6z"/><path class="g" d="m-5.6 606.1c0 0 85.9 2.3 198 5.8 193.2 6.2 464.5 16.2 508.4 24.9 69.5 13.7 178.9 26.6 178.9 26.6 0 0-127.2 12.6-181.3 20.1-54.1 7.4-701.9 56.2-701.9 56.2z"/><path class="o" d="m1332.9 643.3c3.1 2.6 6.4 1.2 9.9 0.6 7.9-1.2 15.8-2.3 23.7-3.8 25-4.8 49.7-11.6 74.7-16.7 55.1-11.3 111-13.1 166.9-7.3 42.1 4.5 84.9 7.8 126.8 13.9 17.9 2.6 38.8 3.9 55.5 11.3-2.2 1.7-6.1 1.7-9.1 2-17.8 1.8-35.7 1.4-53.6 1.9-46.6 1.3-93.1-1.3-139.7-2.8-46.9-1.5-93.7-4.4-140.8-3.2-38.7 0.9-80.6-3-114.3 4.1z"/><path class="o" d="m1375.1 585.5c4.4 4.4 11.3 5.9 17 7.6 13.5 3.9 27.5 6.2 41.3 8.5 42.7 7 86.1 8.6 129.2 8.6 39.6-0.1 78.9 1.2 118.3-2.9 10.6-1 26.9-0.4 36.6-5.8-43.8-5.2-86.1-16.5-129.3-25-37.6-7.5-76.6-14.6-115.1-12.6-26.2 1.3-57.6 3.7-81.4 15.7z"/><path class="p" d="m-2.4 224.8c4-11.2 12.5-18.7 23.2-23.5-3.4-13.2-22.2-21.1-29.4-31.8-9-13.6 2.7-31.5 3.4-45.6 1.5-26.9-2.2-56.6 10.7-81.7 16.6-32.2 38.2 1.2 60.4 4.5 14.4 2 36.1-12.2 46.4 4.4 2.3 3.8 7.3 19.5 6.6 24.3-0.2 1.7-4.8 2.5-5.3 4.8-1.1 5 3.8 9.8 4.9 14.1 2 7.4 1.7 8.1-4.3 14.8-2.3 2.6-14 10.9-12.2 15.2 1.9 4.5 19.8 4.1 24.1 5.7 9.4 3.6 13.4 10.1 19.1 17.7 3.5-10.9-1.4-24.7 4.4-35.7 5.8-10.9 17-9 27.4-7.9 4-16.4 23.9-26 38.6-30.6 35.1-11 74.4-2.4 99.9 24.5 11.3 11.9 19.4 24.8 3.9 35.5-12.1 8.4-20.2 17.8-9.1 32.3 6.7 8.7 18.4 11.1 18.7 23.2 0.2 6.3-4.7 12.7-3.2 18.7 1.3 5.7 7.6 9.5 12 12.9-14.8 12.4-27.8 26.7-32.9 46.1 20.6-0.7 52.6 18 59.1 38.5 2.6 8.2 1.9 2.6-0.5 8-2.5 5.7-11.1 9.9-9.7 16.9 5.6-1.4 11-2.6 16.7-0.6 7.8 2.8 12.8 13.4 22.1 13.3 10.4 0 4.5-8.2 13.2-15.2 9.7-7.8 36.7-11.6 43.9-3.5 8.7 9.6 7.6 29.7 21.1 35.1 5.7 2.3 12.3-1.1 18.2-0.4 7.9 0.9 22.7 6.4 28.3 12.3 9.5 9.9-8.5 11.4-0.8 21.5 7 9.1 29.9 12.7 39.9 16.4 10.5 3.8 23 8.2 31.6 15.8 2.6 2.3 4.9 4.5 6.8 7.3-11.4-8.1-26.4-11.8-39.2-17.1-24.9-10.2-49-16.4-75.9-21.2-13.6-2.4-51.4-20.3-51.6-3.1-12.2 1.2-28.1-2.4-40.8-3-15.3-0.8-28.5-4.8-43.1-9.3-13.5-4.2-28.2-12.6-13.3-25-13.3-9.9-61.9-27.2-60 2.7-13.4-2.6-24.2-3.6-37.9 0.3-3.6 1.1-13.1 6.6-17.6 5-3.2-1.2-7.4-18-9-20.8-10.4-17.9-29.9-33-51.4-27.8-12.4 3-28 16.7-41.3 14.6-6-0.9-9.5-6-15-7.7-21.8-6.6-42.6 18.6-64.9 7.4-10.7-5.4-14.1-15.9-20.1-25.5-2.4-3.8-8.7-7.9-10.6-11.2-2.6-4.5-3.6-3.2-3.8-11.1-0.4-17.6 0.6-34.2-1.7-54.5z"/><g style="opacity:.3;mix-blend-mode:soft-light"><path class="q" d="m148.5 137.2c2-15.3 21.8-7.3 32.4-6 4.8 0.5 11.1 0.5 15.4 2.9 1.8 1 4.1 4.5 5.6 5 2.4 0.8 3.2 2.4 6.3 0.7 0.6-7.2-7.5-11.8-12.9-15.1 8-1.5 19.5-4.7 25.6 1.8 2.5 2.6 4.4 10.1 7 13.6 5.4 7.1 12.3 14.2 19 20-9.4-7.4-20.6-11.7-32.2-13.8 3.1 7.7 17.5 13.8 24.1 19.7 7.5 6.8 12.7 15.5 19.6 22.6 17.4 18.1 26.3 39.7 36.4 62.7 2.1-6.1 7.6-8.4 10-13.1 3.4-6.4 0.5-13 5.3-18.1 4-4.2 6 0.4 9-7.1 3.8-9.7-8.1-21.6-6.1-31.1 1.6-7.9 5.8-5.1 12.1-1.9-7.6-11.4-21.1-20.1-26.6-33 5.6-5.9 15.7-8.8 19-16.5 7.7-18.5-10.4-37.5-23.3-47.8-22.8-18.2-53.2-16.6-79.9-8-15.1 4.8-41.1 17-35.3 37.3-5.5-6.9-26.2-2.8-31.2 3.8-4.7 6.2-0.7 16.1 0.7 21.4z"/><path class="q" d="m280.7 267.7c24.2-5.5 61.3 4.8 76.7 24.8 6.2 8.2 2.3 10.2 4.5 17.9-6.5-1.4-13.5-5.8-20.1-8 8.8 7.8 2.3 8.4 2.3 17.1 0.1 11.9 19.9 23.6 24.9 34.7-8.3-5.2-45.5-30.1-40.9-43.7 1.1-3.1 7.6-2.7 8.9-6.3 1.7-5.2-6.8-14.5-10.4-17.2-10.4-8-31.5-17-45.9-19.3z"/><path class="q" d="m14.5 45.2c4.7-11.9 27.6-5.3 35.2-0.1 9.5 6.6 18.3 10.7 25.5 19.7 0.4-13.8 16-9.7 20.5-0.6 5.1-5.1-6.2-12.8-10.2-15 10.8-6 22.2 2.3 27.6 12.1 3.5 6.2 1.6 9.7 2 16-3.4-1.7-6.8-4.1-10.6-5.4 4.2 4.5 9.7 15.5 11.2 22.2 3.4 14.3-1.9 9.6-12.4 6 8.6 10.2-17.1 10.3-9.8 22.9 6.5 11.4 22.5 10.3 28.9 21.9 5.9 10.8 9.5 22.2 16.4 32.6-3.9-3.1-7.3-7.7-10.7-11.5-3.6-4.1-10.1-14.8-15.3-16.7-6.5-2.3-0.8 2.1-4.1 6-2.2 2.6-6.4-0.3-9.9-0.6-7.1-0.4-7.8 2.6-12.8 6-7.5 5-14.8-4-20.7-9.4 0.6 0.3 2.2 0.7 2.9 1.1 5.1-3.2 11.8-9.8 12.1-16.1 0.3-6.1-5-10.8-5.5-16.5 6.2-1.4 2.5-7.8 0.7-11.9-8-17.5-23.4-35.1-42-41.4-7.7-2.6-26.1-2-24.2 10.7 0.8 5.4 7 8.4 8.4 13.9-4.4-6-8.8-12.2-12.1-18.9-3-6.2-3.4-7.8 0.6-12.1 4.2-4.6 5.5-3.5 6.6-11.3 0.4-3 0-6.2 1.7-8.4 0.6 0.6 1.9 1.2 0 4.8z"/><path class="q" d="m89.6 243.5c4-14 25.7-17.7 37.6-19.3 16.4-2.2 29.9 2.5 45.6 3.8 2.9 0.2 6.8-0.9 9.9-1.1 14.9-1.2 29.8 3.5 40.9 13.7 3.5 3.2 6.7 7.9 10.7 10.4 3.5 2.2 8.4 3.2 12.2 5.6 20.5 13.3 29.8 38.4 39.5 59.5-7.6-6.1-13.1-14.1-21.4-19.3 0.2 0.5 0.4 0.9 0.6 1.4-2.9-2.1-5.7-4.2-9.6-4.6-2.8 6.6 7.8 24.3 10.2 31.5-6.8-4.5-12.3 6-13.8 11.3-3.9-8.9-6.1-19.9-10.3-29.2-3.7-8.3-10.4-15.3-13.8-23.4 4.5-1.5 9.2 3.7 14 1.4 8.3-4.2 0.1-14.9-3.5-19.3-7-8.4-14.1-11.6-24.3-10.9 2.5 3.2 7.9 5.9 8.8 9.9-9 0.3-18-0.2-26.8 1.8 4.5 8.2 12.5 15.6 18.1 23.4 6.9 9.7 13.6 20.1 18.8 30.8-8.6-7.2-15.2-16-25.6-21.2-7-3.6-14.8-3.6-21.5-6.4-4.2-1.8-8.4-5.9-12.3-8.1-10.6-5.8-22.8-9-34.7-10.1-12.7-1.3-25.2-0.4-37.9 0.6-3.8 0.3-12.1 2.4-15-0.6 7.7-9.7 23.7-18.7 35.2-23.4-9.6-4.5-26.4 0.4-35.3 4.5-15 7-29.3 24.6-45.8 27.3-5.6-11.4 35.5-33.6 49.5-40z"/></g><path class="r" d="m137.8 217.6c-6.7-3.6-8.4-16.8-6.7-23 1.5-5.5 4.4-9 8.5-12.5 1.7-1.4 4-2.5 5-4.6 3.1-6.9-1.1-18.8-0.2-26.4 1.3-9.8 6-17.1 16.2-19 12-2.1 28.8 3 38.4 10.5 5.2 4 9.2 10 14.3 14.2 0.3-2.2 1-4.5 1.9-6.6 11.8 5.4 24.6 13.6 34.2 22.7 10.9 10.4 14.7 25.6 22.3 38 2.8 4.6 4.4 10.2 6.1 15.3 1.6 4.5 5 10.8 4.8 15.5-0.3 5.7-5 2.5-10.6 3-4.1 0.3-11.1 4.2-14.8 2.8-4.9-2-7.2-9.3-13.1-11.1 4.8 9.4 11.8 20.3 19.3 28-11.8-15-28.7-19.9-45.3-27.8-11.3-5.3-23.2-10.5-35.3-13.5-13.8-3.5-27.1-2.5-45-5.5z"/><path class="s" d="m30.6 308.3c7.4-18.1 35.7-30.1 54.4-28.1 6 0.7 10 0.9 16.2 0.3 13.6-1.3 25.4-1.6 38.9 1.3 26.3 5.6 47.7 16.9 66.5 35.9 4.2 4.2 7.9 9.2 7 15.5-9-11.7-26.7-18-40.8-20.7-12-2.3-24.9 2.9-34.9 9.2-8 5-11.4 5.3-20.2 2-13.7-5.1-27-8.3-41.7-5.7-9 1.7-20.9 9.2-30.1 6.9-6.4-1.6-14.4-7.7-15.3-16.6z"/><path class="t" d="m15 210.9c0.3-6.7 12.3-11.6 17.3-13.9 11.3-5.2 23.8-6.6 36.2-5.4 16.3 1.7 30.4 8.1 43.4 17.4 3.2-4.2 6.4-8.8 11-11.7 2.4-1.5 5-1.6 6-3.9 2.3-5.4-2-17.4-4.2-22.1-3.2-6.8-9-12.6-14.7-17.6-1.7 2.3-0.3 6.5-3 8.5-2.2 1.5-7.2 0.2-9.6 0.1-4.4-0.2-9.4-0.2-13.6 1.4-6.2 2.3-5.1 4-11.6 0.2-6.4-3.8-13.8-9.9-18.2-16 3.8 0.3 12.5 0.8 15.5-1.8 5.7-4.9 2.4-21.2 0.9-26.9-6.4-24-26.7-51.3-54.5-46.7 2.2 11 13.4 19.3 13.3 31.7-7.1-3.8-18.9-8.6-25-0.5-1.3 1.8-1.6 4.1-2.7 6-2.6 4.5-7.3 7.3-10.2 11.6-12.4 18.1 9.9 31.9 18 46.3 6.5 11.2 10.2 20 8.4 32.2z"/><path class="u" d="m917.7 547.7c0 0-12.5 25.1 17.2 46.9 29.6 21.8 109.9 42.5 159.3 43.2 49.3 0.8 138.8-12.2 138.8-12.2z"/><path class="u" d="m1880.9 579.5c0 0 108.6 20.5 154.6 26.4 46.1 5.8 143.5-42.4 143.5-42.4z"/><path class="v" d="m942.5 553.2c0 0 72.2 23.1 98.7 30.3 26.5 7.2 176.5 38.2 176.5 38.2 0 0-120.1-32.1-136.5-36.4-16.3-4.2-138.7-32.1-138.7-32.1z"/><path class="g" d="m-3.5 580.7c0 0 126.9 8.3 193.4 13.9 31.1 2.7 87.7-8.6 135-15.2 53.5-7.5 96.3-10.6 98.2-11.9 3.5-2.5-129.9-67-190.7-97.6-60.8-30.6 9.1-117.9-97.3-153.7-46.4-15.7-137.7-30.9-137.7-30.9z"/><path class="w" d="m219.4 404.2c0 0 132.8 47 196.2 69.7 63.4 22.7 104 15.5 117 18.8 13 3.3 125.8 32.7 125.8 32.7 0 0-11.1-64.2-271.1-137.7-177.3-50.2-260.8-40.2-167.9 16.5z"/><path class="v" d="m1837.3 572c0 0 28.2 5.9 63 8.9 34.8 3 79.7-6 79.7-6z"/><path class="x" d="m82.5 358.5c0 0 241.6 91.8 321.3 114.4 79.7 22.5 94 16.7 125.3 20.1 31.2 3.3 159.9 44.7 159.9 44.7 0 0-134-35.3-171.1-37.4-37.1-2.2-61.6 13.6-84.4 6.6-22.8-7-233.1-80.2-271.1-97.6-38-17.5-79.9-50.8-79.9-50.8z"/><path class="x" d="m1964.1 592.1c0 0 60.8 15 88.4 15 27.6 0 41.4-15.9 112.3-19.1 70.8-3.2 96.6-3.5 139.5-6.5 42.8-3 125.6-9.9 125.6-9.9v13.9c0 0-88.7 6.9-177.7 8.4-89.1 1.6-124.7-3-154.5 9.8-29.8 12.9-52.6 8.2-55.5 7.1-2.9-1.1-78.1-18.7-78.1-18.7z"/><path class="g" d="m2352.5 734.1c0 0 129.4-27 230.3-31.9 100.8-4.9 242.4 11.5 242.4 11.5v92.9c0 0-370.8-50.7-472.7-72.5z"/><path class="o" d="m1464.2 643.3c87.6 0 175-0.3 262.5 3.7 61.9 2.9 127.4 6.8 188.5-6.8-17.4 6.6-44 1.2-62.4-0.7-11-1.1-20.2-5.3-30.8-9.4-48-18.4-99.3-1.1-147.2-14.9 48.7-6.6 98 1.9 146.4-8-27.3 0.8-54.2-6.5-81.3-7.2 25 0.7 56.6-2.5 77.5-17.6-9.6 6.9-31.9 5.7-43.6 6.2-44.6 1.9-89.9-2.7-134.2-6.3-38.7-3.1-76.8-8.8-114.4-18.1-12.1-3-32.4-6.8-40.1-17.9 9.9 3.8 22 3.9 32.5 4.8 27.3 2.1 55.2 1.8 82.5 1 38.9-1.2 78-6.3 116.1-14-8.9 1.3-25.5 1.6-32.1-5.6 1.9-2.2 5.2-3.2 7.9-4-17.9-1.2-33.8-10.5-49.1-19.1-8.9-5.1-20.2-16.1-31-14.7-7.4 1-15.4 5.6-23.1 7-17.3 3.1-35.5 3.4-53 4.4-29.2 1.7-58.5 2.3-87.7 3.3 7.9 8.6 28.7 11.1 39.7 13.6 15.7 3.5 32.5 4.2 47.8 8.9-34.1 12-71.2 0.4-105.8 3.2 0.1 9.6 11 9.1-0.6 16.5-27.5 17.3-65.8 16-96.4 22.7-20.3 4.5-40.6 9-60.4 15.5-7.4 2.5-23.7 6.4-29.1 12.7 22.1 5.1 46.9 2.1 69.5 5.5 12.9 1.9 40 3.1 48.2 15.2-3.4 3.3-9.3 3.8-14.2 4.7-24.4 4.9-48.9 9.3-73.4 14.2-29.8 6-59.7 11.4-89.6 17-11.7 2.2-29.2 8.3-41 3.7 20.7-6.2 44-7.8 65.4-9.8z"/><path class="y" d="m1562.6 610.2c0 0 98.3 2.1 129.2 0 30.9-2.2 183.7 2.7 183.7 2.7 0 0-123.2 2.6-139.7 3.7-16.5 1-173.2-6.4-173.2-6.4z"/><path class="z" d="m1138.2 640.5c0 0 154.5-7.8 173.5-11.3 19-3.5 38.8-5.5 63.4-5.6 24.7-0.1 176.6-10.7 176.6-10.7 0 0-166.4 1.7-186.5 3.8-20 2-48.2 2.5-48.2 2.5z"/><path class="A" d="m1497.1 554.2c0 0 43-4.8 58.9-4.8 16-0.1 44.1 2.7 44.1 2.7l30.9 2.1c0 0-26.7 4.7-62 6.2-35.3 1.4-71.9-6.2-71.9-6.2z"/><path class="B" d="m1344.9 592.8c0 0 102 14.8 159.9 16.1 57.8 1.3 278.5 0 278.5 0 0 0-85.5-6.3-91.5-6.8-6-0.5 71.9-9.3 71.9-9.3 0 0-81.7 0.4-167.8-16.1-86-16.4-98.8-22.5-98.8-22.5 0 0 77.5-0.8 103-2.1 25.5-1.4 88.1-10.2 88.1-10.2 0 0-66.3-16.3-56.4-17.9 9.9-1.6 60.9-12.9 60.9-12.9 0 0-44.6-14.1-141-5.4-96.3 8.7-124.3 18.3-124.3 18.3 0 0 70.3 4 71.9 3.3 1.6-0.6-34.9 8.3-34.9 8.3l25.5 0.2c0 0-83.2 5.2-167.7 27.7-84.6 22.6-87.7 31.1-87.7 31.1z"/><path class="B" d="m1302.1 629.2c0 0 125.3 12.1 231.6 16.3 106.3 4.2 264.2-8.1 264.2-8.1 0 0-158.7-24.8-233.7-24.3-75.1 0.6-262.1 16.1-262.1 16.1z"/><path class="C" d="m1894.5 586.3c17.6 4.3 42.5 3.5 57.4 15.5 9.7 7.8-7.9 9.4-15.7 10.3-23.8 2.7-50.5 1.1-74.5-0.1-18.3-1-36.5-3.3-55-3.2-14 0-28 1.9-42 1.6 18.9 0.5 37.9-0.7 55.9-4.6 28.3-6.2 61.5 8 89.2-3.4-3.2-3.1-11.2-5-15.8-6.3 0.3 0 2.5-0.3 1.5-0.1-9.9 0.5-29.1-1-33.8-11.2 1.9 0.1 4.4-0.5 6.3-0.3-10.4-5.9-25.3-0.9-36.9-2.2-7.1-0.7-43.8-9.1-40.4 2.3-19.7 1.9-41.6-4.3-61.5-5.1-20.1-0.9-44.8 5.4-64.2 0.4 32.2-8.6 65-4.1 97.5-2.5 30.5 1.5 60.7-1.7 91.2 0.5 17.5 1.3 33.3 8.1 40.8 8.4z"/><path class="C" d="m1929.8 619.2c-28.5 0.1-59.9-0.9-87.7 5.9 9.3 1.7 18.9-0.5 28.2 0.7 6.7 0.8 12.4 3.1 19.3 3 6.6 0 24.8 0.6 40.2-9.6z"/><path class="C" d="m1916.2 635.3c-10.1-2.5-25.6 0-34.6 4.8 5.4 5.9 37.7 5.9 44.4-0.8-2.3-2.9-5.9-4.1-9.8-4z"/><path class="C" d="m1706.7 643.3c-11.1 2.3-35.6 1.2-41.1 12.1 7.8 2.8 46.9 4.1 41.1-12.1z"/><path class="C" d="m1334.2 581.5c-4.4 0.1-7.4 0.5-9.6 3.8 6.1 3 20.1 6.9 25.5 0.8-1.5-2.5-4-3.8-7.1-4.6z"/><path class="C" d="m1251.6 595.5c-12.5 2.3-42.8 7.6-46.1 17.2 13 4 33.3 0.3 47.8 2.1 6.8 0.9 14.2 1.8 20.7 1.8 18.7 0.2 37.3-2 55.7-3.7 11.7-1.1 29.4-0.5 39.2-4.9-9.6-7.1-23.2-2.5-31.7-6.1-4.5-2-7.2-7.4-15.3-9.5-27.6-7.1-62.4-4.3-70.3 3.1z"/><path class="D" d="m1365.2 595.6c0 0 17.6 17.9 96.4 18 78.9 0 179.1-3.3 179.1-3.3 0 0-137.7-8-168.2-7.8-30.5 0.1-107.3-6.9-107.3-6.9z"/><path class="D" d="m1412.2 637.6c0 0 94 4.5 170.2 5.9 76.2 1.5 142.6-8.9 142.6-8.9 0 0-117.1-21.4-188.2-18-71.2 3.4-124.6 21-124.6 21z"/><path class="D" d="m1529 551.1c0 0 46-10.4 74.3-10.1 28.3 0.3 69.7 3 69.7 3 0 0-36.1 10.2-59.7 9-23.6-1.3-49.3-4.7-84.3-1.9z"/><path class="E" d="m56 737.5c0 0 149.7-49.5 281-75.8 131.3-26.3 331-1.6 375 0 43.9 1.7 117.6 8.8 117.6 8.8 0 0-177.9 18.5-241.9 23.1-64 4.6-214.1 17.2-250.7 21.2-36.6 4-50.3 1.6-117.6 6.4-67.3 4.7-163.4 16.3-163.4 16.3z"/><path class="g" d="m145.9 710.5c0 0 252.1-60.1 344.5-58.5 92.3 1.5 183.2 18.4 229.5 20.9 46.2 2.4 109.7-2.4 109.7-2.4 0 0-194.4-14.8-268.6-23.8-74.2-8.9-247 13.2-276.2 19.7-29.1 6.5-138.9 44.1-138.9 44.1z"/><path class="F" d="m308.2 716.2c0 0 58.3-39.7 130.6-52.3 72.4-12.6 157.1 5 174.8 9 17.7 3.9 100.3 8.3 100.3 8.3 0 0-153.1 15.2-175.5 17.5-22.3 2.2-230.2 17.5-230.2 17.5z"/></g></svg>